<svg width="1072" height="1072" viewBox="0 0 1072 1072" fill="none" xmlns="http://www.w3.org/2000/svg">
<path d="M964.585 854.362H893.576V854.898H964.585V854.362Z" fill="#EBEBEB"/>
<path d="M710.136 860.194H691.504V860.73H710.136V860.194Z" fill="#EBEBEB"/>
<path d="M891.432 834.466H850.289V835.002H891.432V834.466Z" fill="#EBEBEB"/>
<path d="M205.073 838.068H112.474V838.604H205.073V838.068Z" fill="#EBEBEB"/>
<path d="M237.748 838.068H224.177V838.604H237.748V838.068Z" fill="#EBEBEB"/>
<path d="M482.721 847.116H281.872V847.652H482.721V847.116Z" fill="#EBEBEB"/>
<path d="M508.15 724.243H94.1646C87.411 724.243 81.9224 718.755 81.9224 712.001V130.055C81.9224 123.301 87.411 117.813 94.1646 117.813H508.171C514.925 117.813 520.413 123.301 520.413 130.055V712.001C520.392 718.755 514.903 724.243 508.15 724.243ZM94.1646 118.349C87.7112 118.349 82.4584 123.602 82.4584 130.055V712.001C82.4584 718.454 87.7112 723.707 94.1646 723.707H508.171C514.624 723.707 519.877 718.454 519.877 712.001V130.055C519.877 123.602 514.624 118.349 508.171 118.349H94.1646V118.349Z" fill="#EBEBEB"/>
<path d="M971.897 724.243H557.89C551.137 724.243 545.648 718.755 545.648 712.001V130.055C545.648 123.301 551.137 117.813 557.89 117.813H971.897C978.65 117.813 984.139 123.301 984.139 130.055V712.001C984.139 718.755 978.65 724.243 971.897 724.243ZM557.89 118.349C551.437 118.349 546.184 123.602 546.184 130.055V712.001C546.184 718.454 551.437 723.707 557.89 723.707H971.897C978.35 723.707 983.603 718.454 983.603 712.001V130.055C983.603 123.602 978.35 118.349 971.897 118.349H557.89V118.349Z" fill="#EBEBEB"/>
<path d="M1072 819.866H0V820.402H1072V819.866Z" fill="#EBEBEB"/>
<path d="M893.512 202.972H625.962V487.889H893.512V202.972Z" fill="#EBEBEB"/>
<path d="M877.432 219.052H642.042V471.809H877.432V219.052Z" fill="#F5F5F5"/>
<path d="M734.427 471.809H805.179L871.6 219.052H800.848L734.427 471.809Z" fill="#FAFAFA"/>
<path d="M767.981 219.052L701.56 471.809H718.712L785.133 219.052H767.981Z" fill="#FAFAFA"/>
<path d="M896.9 216.372H622.575L616.786 202.865H902.689L896.9 216.372Z" fill="#F5F5F5"/>
<path d="M896.9 224.198H622.575L616.786 210.691H902.689L896.9 224.198Z" fill="#F0F0F0"/>
<path d="M896.9 232.024H622.575L616.786 218.516H902.689L896.9 232.024Z" fill="#E6E6E6"/>
<path d="M896.9 239.849H622.575L616.786 226.342H902.689L896.9 239.849Z" fill="#E0E0E0"/>
<path d="M912.658 185.949H606.816V203.959H912.658V185.949Z" fill="#E0E0E0"/>
<path d="M609.947 367.246C608.231 367.246 606.838 365.852 606.838 364.137V259.102C606.838 257.387 608.231 255.994 609.947 255.994C611.662 255.994 613.055 257.387 613.055 259.102V364.137C613.055 365.852 611.662 367.246 609.947 367.246Z" fill="#E0E0E0"/>
<path d="M611.062 200.357H608.811V262.747H611.062V200.357Z" fill="#E0E0E0"/>
<path d="M194.075 197.462H190.216V498.416H194.075V197.462Z" fill="#E0E0E0"/>
<path d="M434.31 197.462H430.451V498.416H434.31V197.462Z" fill="#E0E0E0"/>
<path d="M449.426 216.372H175.101L169.312 202.865H455.214L449.426 216.372Z" fill="#F5F5F5"/>
<path d="M449.426 234.918H175.101L169.312 221.411H455.214L449.426 234.918Z" fill="#F5F5F5"/>
<path d="M449.426 253.464H175.101L169.312 239.956H455.214L449.426 253.464Z" fill="#F5F5F5"/>
<path d="M449.426 272.009H175.101L169.312 258.502H455.214L449.426 272.009Z" fill="#F5F5F5"/>
<path d="M449.426 290.555H175.101L169.312 277.048H455.214L449.426 290.555Z" fill="#F5F5F5"/>
<path d="M449.426 309.1H175.101L169.312 295.593H455.214L449.426 309.1Z" fill="#F5F5F5"/>
<path d="M449.426 327.646H175.101L169.312 314.139H455.214L449.426 327.646Z" fill="#F5F5F5"/>
<path d="M449.426 346.192H175.101L169.312 332.684H455.214L449.426 346.192Z" fill="#F5F5F5"/>
<path d="M449.426 364.737H175.101L169.312 351.23H455.214L449.426 364.737Z" fill="#F5F5F5"/>
<path d="M449.426 383.283H175.101L169.312 369.776H455.214L449.426 383.283Z" fill="#F5F5F5"/>
<path d="M449.426 401.828H175.101L169.312 388.321H455.214L449.426 401.828Z" fill="#F5F5F5"/>
<path d="M449.426 420.374H175.101L169.312 406.867H455.214L449.426 420.374Z" fill="#F5F5F5"/>
<path d="M449.426 438.898H175.101L169.312 425.391H455.214L449.426 438.898Z" fill="#F5F5F5"/>
<path d="M449.426 457.444H175.101L169.312 443.937H455.214L449.426 457.444Z" fill="#F5F5F5"/>
<path d="M449.426 475.989H175.101L169.312 462.482H455.214L449.426 475.989Z" fill="#F5F5F5"/>
<path d="M449.426 494.535H175.101L169.312 481.028H455.214L449.426 494.535Z" fill="#F5F5F5"/>
<path d="M455.214 494.535H169.312V502.253H455.214V494.535Z" fill="#E0E0E0"/>
<path d="M465.184 185.949H159.342V203.959H465.184V185.949Z" fill="#E0E0E0"/>
<path d="M162.494 367.246C160.779 367.246 159.385 365.852 159.385 364.137V259.102C159.385 257.387 160.779 255.994 162.494 255.994C164.209 255.994 165.603 257.387 165.603 259.102V364.137C165.603 365.852 164.209 367.246 162.494 367.246Z" fill="#E0E0E0"/>
<path d="M163.609 200.357H161.357V262.747H163.609V200.357Z" fill="#E0E0E0"/>
<path d="M191.502 691.183C191.245 691.483 192.682 693.498 186.807 692.598C172.335 690.432 147.143 684.558 140.132 669.678C130.12 648.431 161.165 656.193 160.093 645.323C159.021 634.452 123.688 636.361 119.936 620.409C116.184 604.479 140.154 612.069 140.475 604.286C140.797 596.525 113.182 601.349 107.693 584.154C102.205 566.959 123.087 579.609 120.686 572.469C118.285 565.33 94.9366 532.977 107.629 529.225C120.343 525.473 141.762 558.662 150.016 563.357C158.27 568.053 165.624 540.974 175.465 552.402C185.306 563.829 169.698 603.836 182.262 611.597C191.61 617.386 188.972 601.456 201.322 604.415C218.109 608.489 212.471 667.727 191.502 691.183Z" fill="#EBEBEB"/>
<path d="M146.843 604.394C152.524 604.865 156.727 606.023 159.342 606.966C154.239 599.505 150.573 595.668 150.445 595.539C150.037 595.11 150.037 594.445 150.466 594.017C150.895 593.609 151.559 593.609 151.988 594.038C152.095 594.145 160.543 602.85 169.805 619.895C174.35 592.473 162.88 568.524 162.751 568.267C162.558 567.86 162.73 567.388 163.116 567.195C163.502 567.002 163.995 567.174 164.188 567.56C164.316 567.817 176.58 593.395 171.006 622.167C172.485 624.997 173.964 627.999 175.444 631.258C179.689 640.627 184.148 652.634 187.664 667.084C190.109 662.668 195.704 650.854 196.198 634.367C196.219 633.917 196.583 633.573 197.034 633.595C197.484 633.616 197.827 633.981 197.806 634.431C197.227 653.513 189.916 666.57 188.222 669.357C192.874 689.425 195.662 714.124 193.668 743.239C193.625 743.839 193.11 744.268 192.531 744.225C192.488 744.225 192.446 744.225 192.403 744.204C191.888 744.097 191.502 743.625 191.545 743.089C194.204 704.561 188.436 673.581 180.461 650.125C178.445 647.788 172.463 641.785 163.351 640.37C162.944 640.263 162.623 639.898 162.687 639.448C162.751 639.019 163.159 638.719 163.609 638.783C170.813 639.92 176.087 643.65 179.217 646.545C173.343 630.25 166.482 617.858 160.929 609.389C159.149 608.574 154.261 606.688 146.714 606.045C146.285 605.98 145.942 605.616 145.985 605.165C146.007 604.672 146.392 604.351 146.843 604.394Z" fill="#F5F5F5"/>
<path d="M210.027 699.394C222.054 699.63 242.594 688.46 250.655 677.59C258.845 666.57 235.819 673.409 238.177 664.747C240.536 656.085 268.922 662.496 274.154 650.082C279.385 637.69 258.91 640.541 259.724 634.195C260.539 627.849 281.743 629.135 288.561 615.971C295.379 602.786 276.705 610.182 279.642 604.715C282.58 599.248 305.949 576.264 296.172 571.483C286.396 566.681 264.463 590.629 257.13 593.309C249.776 595.989 248.061 579.437 238.52 587.349C228.958 595.26 236.119 629.821 224.863 634.388C216.48 637.776 220.039 621.953 210.412 625.962C193.518 632.952 205.16 699.287 210.027 699.394Z" fill="#E0E0E0"/>
<g opacity="0.3">
<path d="M210.027 699.394C222.054 699.63 242.594 688.46 250.655 677.59C258.845 666.57 235.819 673.409 238.177 664.747C240.536 656.085 268.922 662.496 274.154 650.082C279.385 637.69 258.91 640.541 259.724 634.195C260.539 627.849 281.743 629.135 288.561 615.971C295.379 602.786 276.705 610.182 279.642 604.715C282.58 599.248 305.949 576.264 296.172 571.483C286.396 566.681 264.463 590.629 257.13 593.309C249.776 595.989 248.061 579.437 238.52 587.349C228.958 595.26 236.119 629.821 224.863 634.388C216.48 637.776 220.039 621.953 210.412 625.962C193.518 632.952 205.16 699.287 210.027 699.394Z" fill="#E0E0E0"/>
</g>
<path d="M214.014 684.965C213.843 684.901 213.693 684.794 213.585 684.622C213.307 684.086 206.725 671.329 208.183 652.398C208.225 651.948 208.59 651.626 209.04 651.669C209.49 651.712 209.812 652.098 209.769 652.526C208.526 668.521 213.307 680.227 214.636 683.164C220.017 668.542 226.471 655.549 232.946 644.422C230.823 618.608 244.052 597.469 244.18 597.254C244.416 596.89 244.909 596.761 245.295 596.997C245.66 597.233 245.788 597.726 245.552 598.112C245.424 598.305 233.267 617.751 234.404 641.935C249.819 616.121 264.848 601.135 265.149 600.835C265.577 600.427 266.242 600.427 266.671 600.856C267.078 601.285 267.078 601.949 266.649 602.378C266.392 602.636 255.694 613.313 243.194 632.051C250.527 629.328 258.481 627.913 265.92 628.042C266.371 628.042 266.714 628.406 266.714 628.857C266.714 629.285 266.349 629.65 265.899 629.65C265.899 629.65 265.899 629.65 265.878 629.65C257.923 629.5 249.347 631.172 241.629 634.367C237.319 640.97 232.86 648.517 228.551 656.857C232.688 654.07 240.707 650.189 250.977 652.912C251.406 653.02 251.663 653.47 251.556 653.899C251.448 654.327 250.998 654.585 250.569 654.477C237.534 651.047 228.358 658.83 226.857 660.202C215.065 683.936 204.902 713.952 203.551 748.342C203.53 748.921 203.058 749.371 202.479 749.371C202.458 749.371 202.458 749.371 202.437 749.371C201.836 749.349 201.386 748.856 201.407 748.256C202.351 724.972 207.282 703.682 214.014 684.965Z" fill="#F5F5F5"/>
<path d="M176.216 816.821C164.745 795.253 157.198 764.057 157.198 750.4C157.198 738.844 162.623 728.488 171.22 721.22H229.987C238.584 728.488 244.009 738.844 244.009 750.4C244.009 764.057 236.462 795.253 224.992 816.821H176.216Z" fill="#F0F0F0"/>
<path d="M525.666 908.434C755.251 908.434 941.366 897.568 941.366 884.164C941.366 870.76 755.251 859.894 525.666 859.894C296.081 859.894 109.966 870.76 109.966 884.164C109.966 897.568 296.081 908.434 525.666 908.434Z" fill="#F5F5F5"/>
<path d="M627.442 256.508H576.029C572.663 256.508 569.597 259.017 568.889 262.361L568.546 263.969C566.788 272.138 559.306 278.248 551.094 278.248H502.211C493.978 278.248 487.589 272.138 487.246 263.969L487.181 262.361C487.053 259.017 484.416 256.508 481.049 256.508H429.636C412.484 256.508 397.369 270.401 395.868 287.553L354.511 760.391C353.01 777.543 365.702 791.436 382.854 791.436H580.681C597.833 791.436 612.948 777.543 614.449 760.391L655.807 287.553C657.286 270.423 644.594 256.508 627.442 256.508Z" fill="#254658"/>
<path opacity="0.7" d="M627.442 256.508H576.029C572.663 256.508 569.597 259.017 568.889 262.361L568.546 263.969C566.788 272.138 559.306 278.248 551.094 278.248H502.211C493.978 278.248 487.589 272.138 487.246 263.969L487.181 262.361C487.053 259.017 484.416 256.508 481.049 256.508H429.636C412.484 256.508 397.369 270.401 395.868 287.553L354.511 760.391C353.01 777.543 365.702 791.436 382.854 791.436H580.681C597.833 791.436 612.948 777.543 614.449 760.391L655.807 287.553C657.286 270.423 644.594 256.508 627.442 256.508Z" fill="white"/>
<path d="M607.395 473.996H502.361C498.544 473.996 495.736 470.908 496.057 467.092L503.969 376.637C504.312 372.82 507.656 369.733 511.473 369.733H616.507C620.324 369.733 623.132 372.82 622.811 376.637L614.899 467.092C614.556 470.887 611.212 473.996 607.395 473.996Z" fill="white"/>
<path d="M572.405 756.811H396.64C387.185 756.811 380.174 749.135 381.011 739.68C381.847 730.225 390.187 722.549 399.642 722.549H575.428C584.884 722.549 591.894 730.225 591.058 739.68C590.222 749.157 581.882 756.811 572.405 756.811Z" fill="white"/>
<path d="M586.449 344.862H425.156C419.838 344.862 415.915 340.553 416.387 335.236L417.694 320.206C418.166 314.889 422.84 310.58 428.157 310.58H589.45C594.767 310.58 598.691 314.889 598.219 320.206L596.911 335.236C596.461 340.553 591.766 344.862 586.449 344.862Z" fill="white"/>
<path d="M619.252 319.713C619.123 321.193 617.815 322.393 616.336 322.393C614.856 322.393 613.763 321.193 613.892 319.713C614.02 318.234 615.328 317.033 616.808 317.033C618.287 317.055 619.38 318.234 619.252 319.713Z" fill="white"/>
<path d="M618.544 327.732C618.415 329.211 617.108 330.412 615.628 330.412C614.149 330.412 613.055 329.211 613.184 327.732C613.313 326.253 614.621 325.052 616.1 325.052C617.579 325.052 618.673 326.253 618.544 327.732Z" fill="white"/>
<path d="M617.858 335.729C617.729 337.208 616.422 338.409 614.942 338.409C613.463 338.409 612.369 337.208 612.498 335.729C612.627 334.25 613.935 333.049 615.414 333.049C616.893 333.049 617.987 334.25 617.858 335.729Z" fill="white"/>
<path d="M594.338 623.218H398.098C394.282 623.218 391.473 620.131 391.795 616.314L400.821 513.059C401.164 509.243 404.509 506.156 408.325 506.156H604.565C608.382 506.156 611.19 509.243 610.869 513.059L601.842 616.314C601.499 620.131 598.155 623.218 594.338 623.218Z" fill="white"/>
<path d="M452.084 644.787H390.98C390.058 644.787 389.35 644.036 389.436 643.093C389.522 642.171 390.337 641.399 391.259 641.399H452.384C453.306 641.399 454.014 642.149 453.928 643.093C453.842 644.036 453.006 644.787 452.084 644.787Z" fill="white"/>
<path d="M528.453 644.787H462.868C461.946 644.787 461.239 644.036 461.324 643.093C461.41 642.171 462.225 641.399 463.147 641.399H528.732C529.654 641.399 530.361 642.149 530.275 643.093C530.19 644.036 529.375 644.787 528.453 644.787Z" fill="white"/>
<path d="M431.009 659.687H389.672C388.75 659.687 388.043 658.937 388.129 657.994C388.214 657.072 389.029 656.3 389.951 656.3H431.287C432.209 656.3 432.917 657.05 432.831 657.994C432.767 658.937 431.952 659.687 431.009 659.687Z" fill="white"/>
<path d="M509.5 659.687H441.793C440.871 659.687 440.163 658.937 440.249 657.994C440.335 657.072 441.15 656.3 442.072 656.3H509.779C510.701 656.3 511.409 657.05 511.323 657.994C511.237 658.937 510.422 659.687 509.5 659.687Z" fill="white"/>
<path d="M498.566 674.567H388.386C387.464 674.567 386.756 673.816 386.842 672.873C386.928 671.951 387.743 671.179 388.664 671.179H498.845C499.767 671.179 500.474 671.93 500.388 672.873C500.324 673.816 499.488 674.567 498.566 674.567Z" fill="white"/>
<path d="M516.618 674.567H509.35C508.428 674.567 507.721 673.816 507.806 672.873C507.892 671.951 508.707 671.179 509.629 671.179H516.897C517.819 671.179 518.526 671.93 518.441 672.873C518.376 673.816 517.54 674.567 516.618 674.567Z" fill="white"/>
<path d="M438.513 689.468H387.078C386.156 689.468 385.449 688.717 385.534 687.774C385.62 686.852 386.435 686.08 387.357 686.08H438.791C439.713 686.08 440.421 686.83 440.335 687.774C440.271 688.696 439.456 689.468 438.513 689.468Z" fill="white"/>
<path d="M513.338 689.468H449.297C448.375 689.468 447.667 688.717 447.753 687.774C447.839 686.852 448.654 686.08 449.597 686.08H513.638C514.56 686.08 515.268 686.83 515.182 687.774C515.096 688.696 514.281 689.468 513.338 689.468Z" fill="white"/>
<path d="M449.125 704.347H385.791C384.87 704.347 384.162 703.597 384.248 702.653C384.334 701.731 385.148 700.959 386.07 700.959H449.404C450.326 700.959 451.033 701.71 450.948 702.653C450.862 703.597 450.047 704.347 449.125 704.347Z" fill="white"/>
<path d="M510.915 704.347H459.888C458.966 704.347 458.259 703.597 458.344 702.653C458.43 701.731 459.245 700.959 460.188 700.959H511.215C512.137 700.959 512.845 701.71 512.759 702.653C512.673 703.597 511.859 704.347 510.915 704.347Z" fill="white"/>
<path d="M604.908 465.42C604.051 466.299 602.679 466.384 601.864 465.613L514.11 381.868C513.295 381.075 513.317 379.724 514.174 378.845C515.032 377.966 516.404 377.88 517.219 378.652L604.973 462.397C605.787 463.19 605.766 464.541 604.908 465.42Z" fill="#254658"/>
<path d="M506.349 465.398C505.641 464.519 505.855 463.147 506.799 462.375L551.566 425.777C552.53 424.984 553.86 425.091 554.567 425.97C555.275 426.849 555.06 428.221 554.117 428.993L509.35 465.591C508.407 466.363 507.056 466.277 506.349 465.398Z" fill="#254658"/>
<path d="M564.194 418.08C563.486 417.201 563.701 415.829 564.644 415.057L609.496 378.395C610.461 377.601 611.791 377.687 612.498 378.588C613.206 379.467 612.991 380.839 612.048 381.611L567.195 418.273C566.252 419.066 564.901 418.981 564.194 418.08Z" fill="#254658"/>
<g opacity="0.7">
<path d="M604.908 465.42C604.051 466.299 602.679 466.384 601.864 465.613L514.11 381.868C513.295 381.075 513.317 379.724 514.174 378.845C515.032 377.966 516.404 377.88 517.219 378.652L604.973 462.397C605.787 463.19 605.766 464.541 604.908 465.42Z" fill="white"/>
</g>
<g opacity="0.7">
<path d="M506.349 465.398C505.641 464.519 505.855 463.147 506.799 462.375L551.566 425.777C552.53 424.984 553.86 425.091 554.567 425.97C555.275 426.849 555.06 428.221 554.117 428.993L509.35 465.591C508.407 466.363 507.056 466.277 506.349 465.398Z" fill="white"/>
</g>
<g opacity="0.7">
<path d="M564.194 418.08C563.486 417.201 563.701 415.829 564.644 415.057L609.496 378.395C610.461 377.601 611.791 377.687 612.498 378.588C613.206 379.467 612.991 380.839 612.048 381.611L567.195 418.273C566.252 419.066 564.901 418.981 564.194 418.08Z" fill="white"/>
</g>
<path d="M355.346 246.217H327.581C321.943 246.217 317.376 250.784 317.376 256.422V284.187C317.376 289.826 321.943 294.393 327.581 294.393H355.346C360.985 294.393 365.552 289.826 365.552 284.187V256.422C365.552 250.784 360.985 246.217 355.346 246.217ZM341.475 256.079C345.655 256.079 347.928 259.467 347.928 263.669C347.928 267.85 345.677 271.259 341.475 271.259C337.294 271.259 335.021 267.871 335.021 263.669C335.021 259.488 337.272 256.079 341.475 256.079ZM358.219 284.53H324.687C324.408 284.53 324.151 284.423 323.98 284.23L326.124 278.355C327.496 274.582 331.098 272.074 335.128 272.074H347.778C351.809 272.074 355.389 274.582 356.783 278.355L358.927 284.23C358.755 284.423 358.519 284.53 358.219 284.53Z" fill="#54AB44"/>
<path opacity="0.7" d="M355.346 246.217H327.581C321.943 246.217 317.376 250.784 317.376 256.422V284.187C317.376 289.826 321.943 294.393 327.581 294.393H355.346C360.985 294.393 365.552 289.826 365.552 284.187V256.422C365.552 250.784 360.985 246.217 355.346 246.217ZM341.475 256.079C345.655 256.079 347.928 259.467 347.928 263.669C347.928 267.85 345.677 271.259 341.475 271.259C337.294 271.259 335.021 267.871 335.021 263.669C335.021 259.488 337.272 256.079 341.475 256.079ZM358.219 284.53H324.687C324.408 284.53 324.151 284.423 323.98 284.23L326.124 278.355C327.496 274.582 331.098 272.074 335.128 272.074H347.778C351.809 272.074 355.389 274.582 356.783 278.355L358.927 284.23C358.755 284.423 358.519 284.53 358.219 284.53Z" fill="white"/>
<path d="M256.551 360.449H235.454C227.864 360.449 221.711 366.603 221.711 374.192V395.289C221.711 402.879 227.864 409.032 235.454 409.032H256.551C264.141 409.032 270.294 402.879 270.294 395.289V374.192C270.273 366.581 264.141 360.449 256.551 360.449ZM246.002 396.233C246.002 396.233 237.341 386.799 237.341 382.018C237.341 377.237 241.221 373.356 246.002 373.356C250.784 373.356 254.664 377.237 254.664 382.018C254.664 386.82 246.002 396.233 246.002 396.233Z" fill="#54AB44"/>
<path d="M246.003 378.073C243.816 378.073 242.058 379.852 242.058 382.039C242.058 384.226 243.837 385.984 246.003 385.984C248.189 385.984 249.969 384.205 249.969 382.039C249.948 379.831 248.189 378.073 246.003 378.073Z" fill="#54AB44"/>
<g opacity="0.7">
<path d="M256.551 360.449H235.454C227.864 360.449 221.711 366.603 221.711 374.192V395.289C221.711 402.879 227.864 409.032 235.454 409.032H256.551C264.141 409.032 270.294 402.879 270.294 395.289V374.192C270.273 366.581 264.141 360.449 256.551 360.449ZM246.002 396.233C246.002 396.233 237.341 386.799 237.341 382.018C237.341 377.237 241.221 373.356 246.002 373.356C250.784 373.356 254.664 377.237 254.664 382.018C254.664 386.82 246.002 396.233 246.002 396.233Z" fill="white"/>
<path d="M246.003 378.073C243.816 378.073 242.058 379.852 242.058 382.039C242.058 384.226 243.837 385.984 246.003 385.984C248.189 385.984 249.969 384.205 249.969 382.039C249.948 379.831 248.189 378.073 246.003 378.073Z" fill="white"/>
</g>
<path d="M719.741 300.653L733.87 291.52L719.741 282.365V300.653Z" fill="#54AB44"/>
<path d="M737.943 266.585H711.015C704.669 266.585 699.544 271.731 699.544 278.055V304.984C699.544 311.33 704.69 316.454 711.015 316.454H737.943C744.29 316.454 749.414 311.309 749.414 304.984V278.055C749.414 271.709 744.29 266.585 737.943 266.585ZM724.479 309.443C714.574 309.443 706.555 301.425 706.555 291.52C706.555 281.614 714.574 273.596 724.479 273.596C734.384 273.596 742.403 281.636 742.403 291.52C742.424 301.425 734.384 309.443 724.479 309.443Z" fill="#54AB44"/>
<g opacity="0.7">
<path d="M719.741 300.653L733.87 291.52L719.741 282.365V300.653Z" fill="white"/>
<path d="M737.943 266.585H711.015C704.669 266.585 699.544 271.731 699.544 278.055V304.984C699.544 311.33 704.69 316.454 711.015 316.454H737.943C744.29 316.454 749.414 311.309 749.414 304.984V278.055C749.414 271.709 744.29 266.585 737.943 266.585ZM724.479 309.443C714.574 309.443 706.555 301.425 706.555 291.52C706.555 281.614 714.574 273.596 724.479 273.596C734.384 273.596 742.403 281.636 742.403 291.52C742.424 301.425 734.384 309.443 724.479 309.443Z" fill="white"/>
</g>
<path d="M764.379 369.861C764.379 369.304 764.358 368.747 764.293 368.211L767.531 366.41C767.295 364.844 766.888 363.344 766.33 361.929L762.643 361.993C762.171 360.985 761.613 360.042 760.992 359.141L762.9 355.968C761.914 354.768 760.82 353.653 759.619 352.688L756.446 354.596C755.546 353.974 754.603 353.417 753.595 352.945L753.659 349.258C752.223 348.7 750.722 348.293 749.178 348.057L747.377 351.294C746.841 351.252 746.284 351.209 745.726 351.209C745.169 351.209 744.611 351.23 744.075 351.294L742.275 348.057C740.709 348.293 739.209 348.7 737.794 349.258L737.858 352.945C736.85 353.417 735.907 353.974 735.006 354.596L731.833 352.688C730.633 353.674 729.518 354.768 728.553 355.968L730.461 359.141C729.839 360.042 729.282 360.985 728.81 361.993L725.123 361.929C724.565 363.365 724.158 364.866 723.922 366.41L727.159 368.211C727.116 368.747 727.074 369.304 727.074 369.861C727.074 370.419 727.095 370.976 727.159 371.512L723.922 373.313C724.158 374.878 724.565 376.379 725.123 377.794L728.81 377.73C729.282 378.738 729.839 379.681 730.461 380.581L728.553 383.755C729.539 384.955 730.633 386.07 731.833 387.035L735.006 385.127C735.907 385.748 736.85 386.306 737.858 386.778L737.794 390.465C739.23 391.023 740.731 391.43 742.275 391.666L744.075 388.428C744.611 388.471 745.169 388.514 745.726 388.514C746.284 388.514 746.841 388.493 747.377 388.428L749.178 391.666C750.743 391.43 752.244 391.023 753.659 390.465L753.595 386.778C754.603 386.306 755.546 385.748 756.446 385.127L759.619 387.035C760.82 386.049 761.935 384.955 762.9 383.755L760.992 380.581C761.613 379.681 762.171 378.738 762.643 377.73L766.33 377.794C766.888 376.358 767.295 374.857 767.531 373.313L764.293 371.512C764.336 370.976 764.379 370.419 764.379 369.861ZM745.683 382.554C738.673 382.554 732.991 376.872 732.991 369.861C732.991 362.851 738.673 357.169 745.683 357.169C752.694 357.169 758.376 362.851 758.376 369.861C758.376 376.872 752.694 382.554 745.683 382.554Z" fill="#54AB44"/>
<path opacity="0.7" d="M764.379 369.861C764.379 369.304 764.358 368.747 764.293 368.211L767.531 366.41C767.295 364.844 766.888 363.344 766.33 361.929L762.643 361.993C762.171 360.985 761.613 360.042 760.992 359.141L762.9 355.968C761.914 354.768 760.82 353.653 759.619 352.688L756.446 354.596C755.546 353.974 754.603 353.417 753.595 352.945L753.659 349.258C752.223 348.7 750.722 348.293 749.178 348.057L747.377 351.294C746.841 351.252 746.284 351.209 745.726 351.209C745.169 351.209 744.611 351.23 744.075 351.294L742.275 348.057C740.709 348.293 739.209 348.7 737.794 349.258L737.858 352.945C736.85 353.417 735.907 353.974 735.006 354.596L731.833 352.688C730.633 353.674 729.518 354.768 728.553 355.968L730.461 359.141C729.839 360.042 729.282 360.985 728.81 361.993L725.123 361.929C724.565 363.365 724.158 364.866 723.922 366.41L727.159 368.211C727.116 368.747 727.074 369.304 727.074 369.861C727.074 370.419 727.095 370.976 727.159 371.512L723.922 373.313C724.158 374.878 724.565 376.379 725.123 377.794L728.81 377.73C729.282 378.738 729.839 379.681 730.461 380.581L728.553 383.755C729.539 384.955 730.633 386.07 731.833 387.035L735.006 385.127C735.907 385.748 736.85 386.306 737.858 386.778L737.794 390.465C739.23 391.023 740.731 391.43 742.275 391.666L744.075 388.428C744.611 388.471 745.169 388.514 745.726 388.514C746.284 388.514 746.841 388.493 747.377 388.428L749.178 391.666C750.743 391.43 752.244 391.023 753.659 390.465L753.595 386.778C754.603 386.306 755.546 385.748 756.446 385.127L759.619 387.035C760.82 386.049 761.935 384.955 762.9 383.755L760.992 380.581C761.613 379.681 762.171 378.738 762.643 377.73L766.33 377.794C766.888 376.358 767.295 374.857 767.531 373.313L764.293 371.512C764.336 370.976 764.379 370.419 764.379 369.861ZM745.683 382.554C738.673 382.554 732.991 376.872 732.991 369.861C732.991 362.851 738.673 357.169 745.683 357.169C752.694 357.169 758.376 362.851 758.376 369.861C758.376 376.872 752.694 382.554 745.683 382.554Z" fill="white"/>
<path d="M715.517 433.603C715.517 432.766 715.474 431.952 715.41 431.137L720.256 428.457C719.891 426.12 719.269 423.89 718.455 421.746L712.923 421.832C712.216 420.331 711.401 418.895 710.457 417.565L713.309 412.827C711.851 411.026 710.2 409.375 708.399 407.917L703.661 410.769C702.31 409.826 700.895 408.989 699.394 408.303L699.48 402.772C697.336 401.957 695.085 401.335 692.769 400.971L690.089 405.816C689.275 405.752 688.46 405.709 687.624 405.709C686.788 405.709 685.973 405.752 685.158 405.816L682.478 400.971C680.141 401.335 677.912 401.957 675.768 402.772L675.853 408.303C674.353 409.011 672.916 409.826 671.587 410.769L666.849 407.917C665.048 409.375 663.397 411.026 661.939 412.827L664.79 417.565C663.847 418.916 663.011 420.331 662.325 421.832L656.793 421.746C655.978 423.89 655.357 426.12 654.992 428.457L659.838 431.137C659.773 431.952 659.73 432.766 659.73 433.603C659.73 434.439 659.773 435.253 659.838 436.068L654.992 438.748C655.357 441.085 655.978 443.315 656.793 445.459L662.325 445.373C663.032 446.874 663.847 448.31 664.79 449.64L661.939 454.378C663.397 456.179 665.048 457.83 666.849 459.288L671.587 456.436C672.937 457.38 674.353 458.216 675.853 458.902L675.768 464.433C677.912 465.248 680.141 465.87 682.478 466.234L685.158 461.389C685.973 461.453 686.788 461.496 687.624 461.496C688.46 461.496 689.275 461.453 690.089 461.389L692.769 466.234C695.106 465.87 697.336 465.248 699.48 464.433L699.394 458.902C700.895 458.194 702.332 457.38 703.661 456.436L708.399 459.288C710.2 457.83 711.851 456.179 713.309 454.378L710.457 449.64C711.401 448.289 712.237 446.874 712.923 445.373L718.455 445.459C719.269 443.315 719.891 441.085 720.256 438.748L715.41 436.068C715.474 435.253 715.517 434.439 715.517 433.603ZM687.581 444.623C681.492 444.623 676.561 439.692 676.561 433.603C676.561 427.514 681.492 422.582 687.581 422.582C693.67 422.582 698.601 427.514 698.601 433.603C698.601 439.692 693.67 444.623 687.581 444.623Z" fill="#54AB44"/>
<path opacity="0.7" d="M715.517 433.603C715.517 432.766 715.474 431.952 715.41 431.137L720.256 428.457C719.891 426.12 719.269 423.89 718.455 421.746L712.923 421.832C712.216 420.331 711.401 418.895 710.457 417.565L713.309 412.827C711.851 411.026 710.2 409.375 708.399 407.917L703.661 410.769C702.31 409.826 700.895 408.989 699.394 408.303L699.48 402.772C697.336 401.957 695.085 401.335 692.769 400.971L690.089 405.816C689.275 405.752 688.46 405.709 687.624 405.709C686.788 405.709 685.973 405.752 685.158 405.816L682.478 400.971C680.141 401.335 677.912 401.957 675.768 402.772L675.853 408.303C674.353 409.011 672.916 409.826 671.587 410.769L666.849 407.917C665.048 409.375 663.397 411.026 661.939 412.827L664.79 417.565C663.847 418.916 663.011 420.331 662.325 421.832L656.793 421.746C655.978 423.89 655.357 426.12 654.992 428.457L659.838 431.137C659.773 431.952 659.73 432.766 659.73 433.603C659.73 434.439 659.773 435.253 659.838 436.068L654.992 438.748C655.357 441.085 655.978 443.315 656.793 445.459L662.325 445.373C663.032 446.874 663.847 448.31 664.79 449.64L661.939 454.378C663.397 456.179 665.048 457.83 666.849 459.288L671.587 456.436C672.937 457.38 674.353 458.216 675.853 458.902L675.768 464.433C677.912 465.248 680.141 465.87 682.478 466.234L685.158 461.389C685.973 461.453 686.788 461.496 687.624 461.496C688.46 461.496 689.275 461.453 690.089 461.389L692.769 466.234C695.106 465.87 697.336 465.248 699.48 464.433L699.394 458.902C700.895 458.194 702.332 457.38 703.661 456.436L708.399 459.288C710.2 457.83 711.851 456.179 713.309 454.378L710.457 449.64C711.401 448.289 712.237 446.874 712.923 445.373L718.455 445.459C719.269 443.315 719.891 441.085 720.256 438.748L715.41 436.068C715.474 435.253 715.517 434.439 715.517 433.603ZM687.581 444.623C681.492 444.623 676.561 439.692 676.561 433.603C676.561 427.514 681.492 422.582 687.581 422.582C693.67 422.582 698.601 427.514 698.601 433.603C698.601 439.692 693.67 444.623 687.581 444.623Z" fill="white"/>
<path d="M636.704 309.293V320.528L626.005 326.167C624.162 327.153 624.162 329.79 626.005 330.776L636.704 336.415V347.65C636.704 350.158 638.741 352.195 641.249 352.195H679.605C682.114 352.195 684.151 350.158 684.151 347.65V309.293C684.151 306.785 682.114 304.748 679.605 304.748H641.249C638.719 304.748 636.704 306.785 636.704 309.293Z" fill="#54AB44"/>
<g opacity="0.9">
<path d="M649.889 321C650.769 321 670.793 321 671.673 321C673.152 321 674.353 319.799 674.353 318.32C674.353 316.84 673.152 315.64 671.673 315.64C670.579 315.64 650.961 315.64 649.889 315.64C648.41 315.64 647.209 316.84 647.209 318.32C647.231 319.799 648.41 321 649.889 321Z" fill="white"/>
<path d="M671.694 325.781C670.708 325.781 650.897 325.781 649.911 325.781C648.432 325.781 647.231 326.981 647.231 328.461C647.231 329.94 648.432 331.141 649.911 331.141C650.897 331.141 670.708 331.141 671.694 331.141C673.173 331.141 674.374 329.94 674.374 328.461C674.374 326.981 673.173 325.781 671.694 325.781Z" fill="white"/>
<path d="M671.694 335.943C670.558 335.943 651.047 335.943 649.911 335.943C648.432 335.943 647.231 337.144 647.231 338.623C647.231 340.103 648.432 341.303 649.911 341.303C650.726 341.303 670.879 341.303 671.694 341.303C673.173 341.303 674.374 340.103 674.374 338.623C674.374 337.144 673.173 335.943 671.694 335.943Z" fill="white"/>
</g>
<path d="M420.01 291.67H429.165L433.881 300.61C435.254 303.205 438.963 303.205 440.313 300.61L445.03 291.67H454.185C457.83 291.67 460.789 288.711 460.789 285.066V250.848C460.789 247.203 457.83 244.245 454.185 244.245H420.01C416.365 244.245 413.406 247.203 413.406 250.848V285.045C413.406 288.711 416.344 291.67 420.01 291.67Z" fill="#54AB44"/>
<path opacity="0.9" d="M437.119 254.471L426.57 260.646V278.699H434.417V266.585H439.842V278.699H447.689V260.646L437.119 254.471Z" fill="white"/>
<path d="M522.707 782.11H514.453L509.179 772.119C508.042 769.975 504.955 769.975 503.819 772.119L498.544 782.11H490.29C486.131 782.11 482.765 785.476 482.765 789.635V822.01C482.765 826.169 486.131 829.535 490.29 829.535H522.664C526.824 829.535 530.19 826.169 530.19 822.01V789.635C530.233 785.476 526.867 782.11 522.707 782.11Z" fill="#54AB44"/>
<path opacity="0.9" d="M511.109 794.481C506.542 789.914 499.102 789.914 494.557 794.481C489.99 799.047 489.99 806.466 494.557 811.032C498.609 815.084 504.912 815.535 509.458 812.405C509.543 812.919 509.779 813.434 510.187 813.841L517.455 821.109C518.484 822.138 520.135 822.138 521.164 821.109C522.193 820.08 522.193 818.429 521.164 817.4L513.896 810.132C513.488 809.724 512.995 809.489 512.459 809.403C515.59 804.815 515.139 798.511 511.109 794.481ZM508.622 808.567C505.427 811.761 500.217 811.761 497.022 808.567C493.828 805.372 493.828 800.162 497.022 796.946C500.217 793.752 505.427 793.752 508.643 796.946C511.816 800.141 511.816 805.351 508.622 808.567Z" fill="white"/>
<path d="M868.942 566.509C868.942 566.509 851.468 609.818 834.359 614.513C817.25 619.209 791.458 615.392 791.458 615.392L783.482 617.579L775.657 616.421C775.571 616.4 775.485 616.4 775.378 616.4L766.545 616.207C765.044 616.164 764.208 614.706 765.044 613.549L768.217 609.175C768.474 608.832 768.839 608.574 769.267 608.424L777.672 605.723C777.994 605.616 778.358 605.594 778.701 605.637L791.544 607.674C791.544 607.674 827.241 601.821 830.886 598.519C834.509 595.217 845.272 560.592 845.272 560.592L868.942 566.509Z" fill="#B97964"/>
<path opacity="0.1" d="M792.358 607.524C791.822 607.61 791.544 607.652 791.544 607.652L778.701 605.616C778.358 605.573 778.015 605.594 777.672 605.701L769.267 608.403C768.839 608.531 768.474 608.81 768.217 609.153L765.044 613.527C764.208 614.685 765.044 616.143 766.545 616.186L775.378 616.379C775.464 616.379 775.549 616.379 775.657 616.4L780.909 617.172C784.812 615.478 788.692 611.94 792.358 607.524Z" fill="#254658"/>
<path d="M879.49 523.608C866.798 519.448 848.938 528.989 842.099 568.953L868.449 576.65C868.449 576.65 897.629 529.568 879.49 523.608Z" fill="#54AB44"/>
<path d="M805.651 471.38C805.673 472.688 806.359 473.76 807.217 473.738C808.074 473.738 808.825 472.602 808.76 471.337C808.717 470.072 808.053 468.957 807.195 468.979C806.337 469.021 805.651 470.072 805.651 471.38Z" fill="#254658"/>
<path d="M810.84 472.688L804.601 483C804.601 483 806.766 485.444 811.44 483.643L810.84 472.688Z" fill="#D4827D"/>
<path d="M812.019 463.168C811.869 463.34 811.633 463.426 811.397 463.404C809.682 463.104 807.945 463.661 806.702 464.862C806.444 465.141 806.015 465.184 805.737 464.926C805.458 464.669 805.437 464.24 805.672 463.962C807.216 462.375 809.424 461.667 811.59 462.032C811.976 462.075 812.233 462.439 812.169 462.804C812.169 462.932 812.104 463.061 812.019 463.168Z" fill="#254658"/>
<path d="M856.099 462.032C857.085 479.463 857.857 486.838 850.182 496.743C837.897 507.356 816.95 509.05 810.797 492.262C805.244 477.147 804.579 451.248 820.723 442.264C832.215 435.875 846.73 440.013 853.141 451.505C854.899 454.742 855.928 458.344 856.099 462.032Z" fill="#B97964"/>
<path d="M831.808 500.195L836.225 526.009L857.751 521.035L850.225 494.664L831.808 500.195Z" fill="#B97964"/>
<path d="M816.307 463.318C817.4 451.998 813.519 465.076 808.267 450.133C803.014 435.189 827.756 423.054 831.722 425.841C835.667 428.628 833.416 432.916 846.494 435.318C859.573 437.719 859.015 450.433 859.015 450.433C859.015 450.433 866.541 453.928 863.861 470.093C861.181 486.259 850.975 498.48 850.975 498.48C850.975 498.48 846.022 493.377 838.197 498.094C838.197 498.094 834.338 495.929 830.543 490.268C827.005 484.994 825.933 479.999 821.088 479.548C810.947 478.627 815.942 467.049 816.307 463.318Z" fill="#254658"/>
<path d="M857.579 452.405C857.579 452.405 868.256 445.845 863.539 438.963C858.822 432.08 861.095 446.531 857.579 452.405Z" fill="#254658"/>
<path d="M819.373 469.9C816.993 472.559 815.771 476.054 815.964 479.613C816.264 484.33 820.895 485.166 824.54 482.593C827.841 480.256 831.636 475.003 829.535 470.865C827.434 466.706 822.331 466.684 819.373 469.9Z" fill="#B97964"/>
<path opacity="0.1" d="M832.215 502.618L833.973 512.866C833.866 503.497 838.819 498.866 838.819 498.866C833.78 499.616 832.215 502.618 832.215 502.618Z" fill="#254658"/>
<path d="M680.87 569.253H674.717V605.551H680.87V569.253Z" fill="#54AB44"/>
<path opacity="0.7" d="M680.87 569.253H674.717V605.551H680.87V569.253Z" fill="white"/>
<path d="M638.591 497.172H623.261C617.515 497.172 612.863 501.825 612.863 507.571V578.58C612.863 584.326 617.515 588.978 623.261 588.978H638.591V497.172Z" fill="#54AB44"/>
<path d="M732.326 589H628.621C622.875 589 618.223 584.347 618.223 578.601V507.592C618.223 501.846 622.875 497.194 628.621 497.194H732.326C738.072 497.194 742.725 501.846 742.725 507.592V578.601C742.725 584.326 738.072 589 732.326 589Z" fill="#54AB44"/>
<path opacity="0.5" d="M732.326 589H628.621C622.875 589 618.223 584.347 618.223 578.601V507.592C618.223 501.846 622.875 497.194 628.621 497.194H732.326C738.072 497.194 742.725 501.846 742.725 507.592V578.601C742.725 584.326 738.072 589 732.326 589Z" fill="white"/>
<path d="M628.621 501.46C625.255 501.46 622.511 504.204 622.511 507.571V578.58C622.511 581.946 625.255 584.69 628.621 584.69H732.326C735.693 584.69 738.437 581.946 738.437 578.58V507.571C738.437 504.204 735.693 501.46 732.326 501.46H628.621V501.46Z" fill="#254658"/>
<path d="M655.399 620.774C655.399 608.403 665.433 598.39 677.783 598.39C690.154 598.39 700.166 608.424 700.166 620.774H655.399Z" fill="#54AB44"/>
<path d="M708.249 613.141H663.482V620.409H753.037V617.429L708.249 613.141Z" fill="#54AB44"/>
<path opacity="0.8" d="M708.249 613.141H663.482V620.409H753.037V617.429L708.249 613.141Z" fill="white"/>
<path d="M708.249 620.409H663.482V613.141L708.249 617.429V620.409Z" fill="#54AB44"/>
<path opacity="0.6" d="M708.249 620.409H663.482V613.141L708.249 617.429V620.409Z" fill="white"/>
<path d="M807.002 870.635H714.595C706.834 870.635 700.552 864.354 700.552 856.592V644.186C700.552 636.425 706.834 630.143 714.595 630.143H807.002C809.082 630.143 810.754 631.815 810.754 633.895C810.754 635.975 809.082 637.647 807.002 637.647H714.595C710.994 637.647 708.056 640.563 708.056 644.186V856.592C708.056 860.194 710.972 863.131 714.595 863.131H807.002C809.082 863.131 810.754 864.804 810.754 866.883C810.754 868.963 809.082 870.635 807.002 870.635Z" fill="#254658"/>
<g opacity="0.5">
<path d="M807.002 870.635H714.595C706.834 870.635 700.552 864.354 700.552 856.592V644.186C700.552 636.425 706.834 630.143 714.595 630.143H807.002C809.082 630.143 810.754 631.815 810.754 633.895C810.754 635.975 809.082 637.647 807.002 637.647H714.595C710.994 637.647 708.056 640.563 708.056 644.186V856.592C708.056 860.194 710.972 863.131 714.595 863.131H807.002C809.082 863.131 810.754 864.804 810.754 866.883C810.754 868.963 809.082 870.635 807.002 870.635Z" fill="white"/>
</g>
<path d="M714.252 620.409H583.061V631.408H714.252V620.409Z" fill="#54AB44"/>
<path opacity="0.2" d="M714.252 620.409H583.061V631.408H714.252V620.409Z" fill="white"/>
<path d="M820.144 620.409H708.249V631.408H820.144V620.409Z" fill="#54AB44"/>
<path opacity="0.5" d="M820.144 620.409H708.249V631.408H820.144V620.409Z" fill="white"/>
<path d="M780.909 792.701L787.105 855.349H772.269L757.411 794.331L780.909 792.701Z" fill="#B97964"/>
<path d="M770.875 851.254L789.807 851.575C790.514 851.597 791.136 852.09 791.265 852.797L794.416 868.256C794.716 869.628 793.837 870.979 792.465 871.257C792.294 871.3 792.101 871.322 791.929 871.322C785.111 871.086 779.044 870.614 770.553 870.485C760.52 870.314 763.049 871.557 751.257 871.536C744.161 871.515 742.982 863.41 746.005 863.067C759.812 861.566 761.313 857.428 766.716 852.583C767.916 851.64 769.374 851.168 770.875 851.254Z" fill="#254658"/>
<path opacity="0.1" d="M785.497 838.99L780.909 792.701L757.411 794.331L768.281 838.99H785.497Z" fill="#254658"/>
<path d="M882.492 648.26L821.624 650.447C821.624 650.447 739.744 679.069 737.429 701.174C735.071 723.857 762.6 828.056 762.6 828.056H787.063C787.063 828.056 780.309 751.579 777.736 728.167C775.142 704.754 863.046 712.515 878.311 692.533C892.376 674.159 882.492 648.26 882.492 648.26Z" fill="#254658"/>
<path opacity="0.2" d="M882.492 648.26L821.624 650.447C821.624 650.447 739.744 679.069 737.429 701.174C735.071 723.857 762.6 828.056 762.6 828.056H787.063C787.063 828.056 780.309 751.579 777.736 728.167C775.142 704.754 863.046 712.515 878.311 692.533C892.376 674.159 882.492 648.26 882.492 648.26Z" fill="#254658"/>
<path d="M791.243 824.561L791.779 833.201H761.549L758.59 824.561H791.243Z" fill="#54AB44"/>
<path d="M724.286 795.681L725.915 855.349H711.336L702.696 795.681H724.286Z" fill="#B97964"/>
<path d="M709.321 851.254L728.252 851.575C728.96 851.597 729.582 852.09 729.71 852.797L732.862 868.256C733.162 869.628 732.283 870.979 730.911 871.257C730.74 871.3 730.547 871.322 730.375 871.322C723.557 871.086 717.49 870.614 708.999 870.485C698.965 870.314 701.495 871.557 689.703 871.536C682.607 871.515 681.427 863.41 684.451 863.067C698.258 861.566 699.759 857.428 705.162 852.583C706.341 851.64 707.82 851.168 709.321 851.254Z" fill="#254658"/>
<path opacity="0.1" d="M725.465 838.947L724.286 795.681H702.696L708.978 838.99C713.673 839.012 720.127 838.969 725.465 838.947Z" fill="#254658"/>
<path d="M856.035 653.298C856.035 653.298 861.095 699.544 814.013 701.71C766.93 703.875 730.225 709.278 729.153 726.001C728.081 742.746 729.153 828.056 729.153 828.056H703.575C703.575 828.056 693.627 774.134 689.746 740.666C685.973 708.185 679.091 684.622 712.43 673.623C747.87 661.917 810.861 651.111 810.861 651.111L856.228 648.238L856.035 653.298Z" fill="#254658"/>
<path d="M732.927 824.561L731.319 833.201H703.232L700.273 824.561H732.927Z" fill="#54AB44"/>
<path d="M866.262 520.563C866.262 520.563 866.262 510.122 845.186 511.323C822.824 512.609 827.026 522.6 827.026 522.6L866.262 520.563Z" fill="#54AB44"/>
<path opacity="0.3" d="M866.262 520.563C866.262 520.563 866.262 510.122 845.186 511.323C822.824 512.609 827.026 522.6 827.026 522.6L866.262 520.563Z" fill="#254658"/>
<path d="M885.815 567.302C884.4 587.906 884.893 649.889 884.893 649.889C884.893 649.889 839.933 652.848 804.536 651.69L800.441 532.462C800.441 528.217 803.078 524.358 807.173 522.75C817.164 518.869 840.619 514.474 877.303 519.277C889.953 520.949 887.487 542.947 885.815 567.302Z" fill="#54AB44"/>
<path d="M807.667 566.509C807.667 566.509 790.193 609.818 773.084 614.513C755.975 619.209 730.183 615.392 730.183 615.392L722.207 617.579L714.381 616.421C714.295 616.4 714.21 616.4 714.103 616.4L705.269 616.207C703.768 616.164 702.932 614.706 703.768 613.549L706.942 609.175C707.199 608.832 707.563 608.574 707.992 608.424L716.397 605.723C716.718 605.616 717.083 605.594 717.426 605.637L730.268 607.674C730.268 607.674 765.966 601.821 769.611 598.519C773.234 595.217 783.997 560.592 783.997 560.592L807.667 566.509Z" fill="#B97964"/>
<path opacity="0.1" d="M807.216 546.356C807.216 546.356 804.515 549.571 801.191 554.267L802.371 588.785C815.513 582.996 820.723 549.143 820.723 549.143L812.19 543.097L807.216 546.356Z" fill="#254658"/>
<path d="M818.215 523.608C805.523 519.448 787.663 528.989 780.824 568.953L807.174 576.65C807.174 576.65 836.353 529.568 818.215 523.608Z" fill="#54AB44"/>
<path d="M835.002 724.179H815.17V782.303H835.002V724.179Z" fill="#254658"/>
<path opacity="0.6" d="M835.002 724.179H815.17V782.303H835.002V724.179Z" fill="white"/>
<path d="M838.068 834.959V761.099H812.083V834.959L752.93 843.171V851.382L825.076 845.229L897.221 851.382V843.171L838.068 834.959Z" fill="#254658"/>
<path d="M752.073 871.515C756.395 871.515 759.898 868.011 759.898 863.689C759.898 859.367 756.395 855.863 752.073 855.863C747.751 855.863 744.247 859.367 744.247 863.689C744.247 868.011 747.751 871.515 752.073 871.515Z" fill="#54AB44"/>
<path d="M897.222 871.515C901.544 871.515 905.047 868.011 905.047 863.689C905.047 859.367 901.544 855.863 897.222 855.863C892.9 855.863 889.396 859.367 889.396 863.689C889.396 868.011 892.9 871.515 897.222 871.515Z" fill="#54AB44"/>
<path d="M825.076 871.515C829.398 871.515 832.901 868.011 832.901 863.689C832.901 859.367 829.398 855.863 825.076 855.863C820.754 855.863 817.25 859.367 817.25 863.689C817.25 868.011 820.754 871.515 825.076 871.515Z" fill="#54AB44"/>
<path opacity="0.3" d="M835.002 724.179H815.17V738.544H835.002V724.179Z" fill="#254658"/>
<path d="M903.482 592.43H838.862C828.335 592.43 819.544 600.449 818.558 610.911L813.112 669.292C811.869 682.585 801.041 692.962 787.706 693.648L725.337 696.8C717.747 697.186 711.808 703.446 711.808 711.036V712.344C711.808 718.862 717.104 724.157 723.622 724.157H807.988H825.076H913.559L923.785 614.706C924.9 602.764 915.488 592.43 903.482 592.43Z" fill="#54AB44"/>
<path opacity="0.3" d="M903.482 592.43H838.862C828.335 592.43 819.544 600.449 818.558 610.911L813.112 669.292C811.869 682.585 801.041 692.962 787.706 693.648L725.337 696.8C717.747 697.186 711.808 703.446 711.808 711.036V712.344C711.808 718.862 717.104 724.157 723.622 724.157H807.988H825.076H913.559L923.785 614.706C924.9 602.764 915.488 592.43 903.482 592.43Z" fill="white"/>
<path d="M759.748 709.128H759.426C757.068 709.128 755.138 707.22 755.138 704.84V658.294H764.036V704.84C764.036 707.22 762.128 709.128 759.748 709.128Z" fill="#254658"/>
<path opacity="0.2" d="M759.748 709.128H759.426C757.068 709.128 755.138 707.22 755.138 704.84V658.294H764.036V704.84C764.036 707.22 762.128 709.128 759.748 709.128Z" fill="white"/>
<path d="M798.061 644.851H778.229V661.274H798.061C802.585 661.274 806.272 657.608 806.272 653.062C806.272 648.517 802.606 644.851 798.061 644.851Z" fill="#54AB44"/>
<path opacity="0.5" d="M798.061 644.851H778.229V661.274H798.061C802.585 661.274 806.272 657.608 806.272 653.062C806.272 648.517 802.606 644.851 798.061 644.851Z" fill="white"/>
<path d="M790.15 661.252H720.813C716.439 661.252 712.901 657.715 712.901 653.341V652.741C712.901 648.367 716.439 644.829 720.813 644.829H790.15C794.523 644.829 798.061 648.367 798.061 652.741V653.341C798.061 657.715 794.523 661.252 790.15 661.252Z" fill="#54AB44"/>
<path opacity="0.3" d="M790.15 661.252H720.813C716.439 661.252 712.901 657.715 712.901 653.341V652.741C712.901 648.367 716.439 644.829 720.813 644.829H790.15C794.523 644.829 798.061 648.367 798.061 652.741V653.341C798.061 657.715 794.523 661.252 790.15 661.252Z" fill="white"/>
<path d="M918.018 724.179H823.018L833.609 610.933C834.595 600.449 843.386 592.451 853.913 592.451H918.533C930.539 592.451 939.951 602.786 938.837 614.728L929.596 713.652C929.017 719.612 924.021 724.179 918.018 724.179Z" fill="#54AB44"/>
<path opacity="0.5" d="M918.018 724.179H823.018L833.609 610.933C834.595 600.449 843.386 592.451 853.913 592.451H918.533C930.539 592.451 939.951 602.786 938.837 614.728L929.596 713.652C929.017 719.612 924.021 724.179 918.018 724.179Z" fill="white"/>
<path d="M696.093 870.635H603.686C595.925 870.635 589.643 864.354 589.643 856.592V644.186C589.643 636.425 595.925 630.143 603.686 630.143H696.093C698.172 630.143 699.845 631.815 699.845 633.895C699.845 635.975 698.172 637.647 696.093 637.647H603.686C600.084 637.647 597.147 640.563 597.147 644.186V856.592C597.147 860.194 600.063 863.131 603.686 863.131H696.093C698.172 863.131 699.845 864.804 699.845 866.883C699.845 868.963 698.172 870.635 696.093 870.635Z" fill="#254658"/>
<g opacity="0.5">
<path d="M696.093 870.635H603.686C595.925 870.635 589.643 864.354 589.643 856.592V644.186C589.643 636.425 595.925 630.143 603.686 630.143H696.093C698.172 630.143 699.845 631.815 699.845 633.895C699.845 635.975 698.172 637.647 696.093 637.647H603.686C600.084 637.647 597.147 640.563 597.147 644.186V856.592C597.147 860.194 600.063 863.131 603.686 863.131H696.093C698.172 863.131 699.845 864.804 699.845 866.883C699.845 868.963 698.172 870.635 696.093 870.635Z" fill="white"/>
</g>
<path d="M635.031 518.398L628.535 514.088C627.849 513.617 627.849 512.609 628.535 512.137L635.031 507.828C635.525 507.506 636.168 507.635 636.489 508.128C636.811 508.621 636.682 509.264 636.189 509.586L630.872 513.124L636.189 516.661C636.682 516.983 636.811 517.647 636.489 518.119C636.189 518.569 635.525 518.719 635.031 518.398Z" fill="white"/>
<path d="M649.268 518.098C648.946 517.604 649.075 516.961 649.568 516.64L654.885 513.102L649.568 509.564C649.075 509.243 648.946 508.578 649.268 508.107C649.589 507.613 650.254 507.485 650.726 507.806L657.222 512.116C657.93 512.588 657.93 513.595 657.222 514.067L650.726 518.376C650.233 518.719 649.589 518.569 649.268 518.098Z" fill="white"/>
<path d="M640.456 520.906C639.898 520.735 639.598 520.134 639.77 519.577L644.208 505.555C644.379 504.998 644.98 504.698 645.537 504.869C646.095 505.041 646.395 505.641 646.223 506.198L641.785 520.22C641.614 520.778 641.013 521.078 640.456 520.906Z" fill="white"/>
<path d="M676.861 531.712H629.114C628.492 531.712 627.999 531.219 627.999 530.597C627.999 529.975 628.492 529.482 629.114 529.482H676.861C677.483 529.482 677.976 529.975 677.976 530.597C677.976 531.219 677.483 531.712 676.861 531.712Z" fill="white"/>
<path d="M731.704 531.712H683.957C683.335 531.712 682.842 531.219 682.842 530.597C682.842 529.975 683.335 529.482 683.957 529.482H731.704C732.326 529.482 732.819 529.975 732.819 530.597C732.819 531.219 732.326 531.712 731.704 531.712Z" fill="white"/>
<path d="M656.407 541.532H629.135C628.514 541.532 628.021 541.038 628.021 540.417C628.021 539.795 628.514 539.302 629.135 539.302H656.407C657.029 539.302 657.522 539.795 657.522 540.417C657.522 541.038 657.007 541.532 656.407 541.532Z" fill="white"/>
<path d="M708.206 541.532H663.525C662.903 541.532 662.41 541.038 662.41 540.417C662.41 539.795 662.903 539.302 663.525 539.302H708.206C708.828 539.302 709.321 539.795 709.321 540.417C709.299 541.038 708.806 541.532 708.206 541.532Z" fill="white"/>
<path d="M701.838 551.372H629.114C628.492 551.372 627.999 550.879 627.999 550.258C627.999 549.636 628.492 549.143 629.114 549.143H701.838C702.46 549.143 702.953 549.636 702.953 550.258C702.953 550.858 702.46 551.372 701.838 551.372Z" fill="white"/>
<path d="M724.136 551.372H708.957C708.335 551.372 707.842 550.879 707.842 550.258C707.842 549.636 708.335 549.143 708.957 549.143H724.136C724.758 549.143 725.251 549.636 725.251 550.258C725.251 550.858 724.758 551.372 724.136 551.372Z" fill="white"/>
<path d="M663.075 561.192H629.114C628.492 561.192 627.999 560.699 627.999 560.077C627.999 559.455 628.492 558.962 629.114 558.962H663.075C663.697 558.962 664.19 559.455 664.19 560.077C664.19 560.699 663.697 561.192 663.075 561.192Z" fill="white"/>
<path d="M712.451 561.192H670.171C669.55 561.192 669.057 560.699 669.057 560.077C669.057 559.455 669.55 558.962 670.171 558.962H712.451C713.073 558.962 713.566 559.455 713.566 560.077C713.566 560.699 713.073 561.192 712.451 561.192Z" fill="white"/>
<path d="M676.861 571.011H629.114C628.492 571.011 627.999 570.518 627.999 569.897C627.999 569.275 628.492 568.782 629.114 568.782H676.861C677.483 568.782 677.976 569.275 677.976 569.897C677.976 570.518 677.483 571.011 676.861 571.011Z" fill="white"/>
<path d="M717.661 571.011H683.979C683.357 571.011 682.864 570.518 682.864 569.897C682.864 569.275 683.357 568.782 683.979 568.782H717.661C718.283 568.782 718.776 569.275 718.776 569.897C718.754 570.518 718.261 571.011 717.661 571.011Z" fill="white"/>
<path d="M303.312 379.102C304.169 389.2 302.004 407.489 294.371 413.342C306.806 417.823 319.949 425.541 328.375 435.725C336.715 423.59 327.217 416.665 327.217 416.665C316.476 412.849 317.655 404.723 320.399 397.24L303.312 379.102Z" fill="#B97964"/>
<path d="M343.898 370.397C343.769 371.662 344.369 372.756 345.206 372.842C346.042 372.927 346.814 371.941 346.921 370.676C347.049 369.411 346.449 368.296 345.613 368.232C344.798 368.146 344.048 369.132 343.898 370.397Z" fill="#254658"/>
<path d="M345.291 368.275L348.421 367.675C348.4 367.675 346.62 369.969 345.291 368.275Z" fill="#254658"/>
<path d="M344.326 371.748C345.205 374.75 346.47 377.623 348.121 380.303C346.728 381.117 345.034 381.289 343.512 380.732L344.326 371.748Z" fill="#A24E3F"/>
<path d="M347.5 363.73C347.693 363.708 347.886 363.622 348.014 363.472C348.272 363.151 348.25 362.679 347.928 362.4C346.149 360.771 343.683 360.106 341.304 360.642C340.939 360.857 340.832 361.328 341.046 361.671C341.175 361.907 341.432 362.036 341.689 362.036C343.576 361.671 345.506 362.207 346.921 363.515C347.092 363.644 347.285 363.73 347.5 363.73Z" fill="#254658"/>
<path d="M302.24 362.357C301.747 378.052 301.211 384.719 308.2 393.445C318.727 406.588 337.787 403.715 342.869 388.45C347.457 374.707 347.5 351.316 333.092 343.705C318.663 336.093 302.754 346.621 302.24 362.357Z" fill="#B97964"/>
<path d="M302.99 391.945C287.574 389.308 291.991 379.595 291.991 379.595C276.812 376.529 288.539 369.111 288.539 369.111C275.911 363.665 288.539 358.798 288.539 358.798C276.361 348.7 293.813 345.27 293.813 345.27C289.504 329.511 304.469 335.986 304.469 335.986C312.638 322.458 319.649 335.386 319.649 335.386C333.928 315.983 337.422 332.363 337.422 332.363C352.002 328.525 346.406 343.876 346.406 343.876C358.412 347.092 349 353.181 349 353.181C353.631 359.034 336.886 360.042 336.886 360.042C336.886 360.042 344.862 372.82 336.822 376.444L316.54 391.988C316.518 391.945 307.192 388.064 302.99 391.945Z" fill="#254658"/>
<path d="M318.148 379.295C318.148 379.295 328.761 353.631 320.485 331.612L327.56 329.19C327.56 329.19 336.801 361.114 318.148 379.295Z" fill="#54AB44"/>
<path d="M328.847 376.465C330.626 380.153 331.291 381.739 333.821 382.983C336.05 384.226 338.859 383.433 340.103 381.225C340.681 380.217 340.832 379.016 340.574 377.88C339.91 374.192 337.058 368.768 333.156 368.639C329.211 368.532 327.003 372.82 328.847 376.465Z" fill="#B97964"/>
<path d="M317.763 430.022C317.763 430.022 332.277 440.678 338.173 444.966L380.174 425.155C380.067 420.396 382.876 416.043 387.271 414.178L390.251 412.913L396.576 410.104C398.977 409.032 401.764 409.332 403.887 410.876C406.395 412.699 407.489 415.915 406.61 418.895C404.809 425.027 399.921 429.765 393.746 431.373L387.614 432.981C387.614 432.981 351.595 460.317 338.774 461.024C325.953 461.732 307.064 449.039 307.064 449.039L317.763 430.022Z" fill="#B97964"/>
<path d="M282.858 411.948C293.942 411.905 306.335 418.852 325.845 431.501C325.845 431.501 322.158 445.373 310.816 455.257C310.816 455.257 300.117 452.384 285.881 438.963C268.622 422.754 276.062 411.97 282.858 411.948Z" fill="#254658"/>
<path d="M493.399 444.065H388.364C384.548 444.065 381.739 440.978 382.061 437.162L389.972 346.706C390.315 342.89 393.66 339.803 397.476 339.803H502.511C506.327 339.803 509.136 342.89 508.814 346.706L500.903 437.162C500.581 440.978 497.215 444.065 493.399 444.065Z" fill="#54AB44"/>
<path opacity="0.4" d="M493.399 444.065H388.364C384.548 444.065 381.739 440.978 382.061 437.162L389.972 346.706C390.315 342.89 393.66 339.803 397.476 339.803H502.511C506.327 339.803 509.136 342.89 508.814 346.706L500.903 437.162C500.581 440.978 497.215 444.065 493.399 444.065Z" fill="white"/>
<path opacity="0.7" d="M493.785 439.777C495.221 439.777 496.508 438.598 496.636 437.162L504.548 346.706C504.676 345.27 503.604 344.091 502.168 344.091H397.133C395.697 344.091 394.41 345.27 394.282 346.706L386.37 437.162C386.242 438.598 387.314 439.777 388.75 439.777H493.785Z" fill="white"/>
<path d="M420.781 386.606L386.435 436.283L386.349 437.183C386.22 438.62 387.292 439.799 388.729 439.799H448.246L420.781 386.606Z" fill="#54AB44"/>
<path opacity="0.3" d="M420.781 386.606L386.435 436.283L386.349 437.183C386.22 438.62 387.292 439.799 388.729 439.799H448.246L420.781 386.606Z" fill="white"/>
<path d="M496.915 433.71L468.164 379.102L425.584 439.799H493.785C495.221 439.799 496.507 438.619 496.636 437.183L496.915 433.71Z" fill="#54AB44"/>
<path d="M457.058 369.454C456.586 374.793 451.891 379.102 446.552 379.102C441.214 379.102 437.269 374.771 437.74 369.454C438.212 364.116 442.907 359.806 448.246 359.806C453.585 359.785 457.53 364.116 457.058 369.454Z" fill="#54AB44"/>
<path opacity="0.4" d="M457.058 369.454C456.586 374.793 451.891 379.102 446.552 379.102C441.214 379.102 437.269 374.771 437.74 369.454C438.212 364.116 442.907 359.806 448.246 359.806C453.585 359.785 457.53 364.116 457.058 369.454Z" fill="white"/>
<path d="M194.89 809.081L184.212 840.727L200.571 847.416L213.371 818.215L194.89 809.081Z" fill="#B97964"/>
<path d="M206.446 846.623C206.274 846.537 206.188 846.344 206.188 846.151C206.21 845.958 206.36 845.787 206.553 845.744C206.896 845.658 214.614 843.943 217.487 845.787C218.023 846.13 218.409 846.644 218.559 847.266C218.795 847.973 218.581 848.745 218.002 849.217C216.908 849.989 214.357 849.667 212.02 848.938C210.112 848.316 208.247 847.545 206.446 846.623ZM208.075 846.473C211.441 847.995 216.201 849.431 217.444 848.467C217.616 848.359 217.809 848.123 217.659 847.459C217.573 847.073 217.337 846.751 216.973 846.558C216.716 846.387 216.437 846.258 216.158 846.194C213.478 845.765 210.734 845.872 208.075 846.473Z" fill="#54AB44"/>
<path d="M206.21 846.515C206.103 846.387 206.081 846.215 206.124 846.044C206.231 845.808 208.29 840.898 211.291 839.655C212.17 839.29 213.135 839.29 214.014 839.655C215.215 840.148 215.386 840.898 215.279 841.413C215.022 843.664 209.233 846.344 206.682 846.644C206.617 846.666 206.553 846.644 206.489 846.601C206.403 846.623 206.296 846.601 206.21 846.515ZM213.478 840.427C212.921 840.255 212.299 840.276 211.763 840.512C209.855 841.692 208.354 843.45 207.475 845.508C210.241 844.843 214.186 842.571 214.464 841.263C214.464 841.134 214.507 840.791 213.735 840.491L213.478 840.427Z" fill="#54AB44"/>
<path d="M205.331 843.385L184.791 837.039C184.02 836.803 183.183 837.125 182.776 837.832L173.9 853.398C173.107 854.77 173.578 856.528 174.95 857.321C175.122 857.428 175.315 857.514 175.508 857.579C182.948 859.744 189.658 861.373 198.877 864.225C209.769 867.591 206.596 868.041 219.331 872.179C227.007 874.666 231.123 866.326 227.993 864.89C213.607 858.393 213.457 853.398 209.34 846.258C208.397 844.843 206.982 843.814 205.331 843.385Z" fill="#254658"/>
<path opacity="0.2" d="M189.766 824.261L206.918 832.923L213.371 818.215L194.89 809.081L189.766 824.261Z" fill="#254658"/>
<path d="M267.4 516.382C267.4 516.382 244.352 533.985 249.283 589.128C249.733 594.231 251.384 599.57 251.406 605.401C251.427 609.282 250.334 612.005 249.069 620.709C247.225 633.423 243.837 680.741 240.257 686.895C236.719 692.984 235.218 691.976 225.163 708.935C214.336 727.202 200.507 759.233 189.744 813.541C189.744 813.541 199.113 820.852 213.821 823.618C213.821 823.618 272.717 730.74 285.238 696.157C296.451 665.219 309.787 566.488 309.787 566.488L310.859 523.672L267.4 516.382Z" fill="#254658"/>
<path opacity="0.1" d="M292.613 589.128H275.912C275.912 589.128 270.423 641.613 288.561 685.394C290.448 678.362 292.377 669.936 294.243 660.824L301.447 614.599C300.417 606.795 299.624 600.835 299.496 600.449C299.153 599.227 292.613 589.128 292.613 589.128Z" fill="black"/>
<path d="M289.869 821.817L289.976 855.456L308.95 854.191L311.866 821.817H289.869Z" fill="#B97964"/>
<path d="M311.137 853.612C310.944 853.569 310.794 853.441 310.751 853.248C310.708 853.055 310.794 852.862 310.966 852.755C311.266 852.562 317.998 848.402 321.3 849.196C321.921 849.324 322.457 849.71 322.8 850.225C323.272 850.804 323.315 851.618 322.908 852.261C322.136 853.333 319.627 853.891 317.183 853.977C315.168 854.02 313.131 853.912 311.137 853.612ZM312.638 852.948C316.326 853.269 321.278 853.055 322.157 851.747C322.286 851.575 322.393 851.297 322.029 850.739C321.836 850.396 321.471 850.182 321.085 850.117C320.785 850.053 320.485 850.01 320.185 850.032C317.505 850.503 314.932 851.49 312.638 852.948Z" fill="#54AB44"/>
<path d="M310.901 853.612C310.751 853.526 310.665 853.376 310.687 853.205C310.708 852.948 311.03 847.63 313.474 845.486C314.182 844.843 315.103 844.522 316.047 844.607C317.333 844.693 317.762 845.315 317.826 845.851C318.319 848.059 313.753 852.497 311.437 853.612C311.373 853.655 311.309 853.655 311.244 853.634C311.116 853.655 310.987 853.655 310.901 853.612ZM315.747 845.465C315.146 845.486 314.589 845.701 314.16 846.108C312.745 847.866 311.909 849.989 311.759 852.24C314.139 850.718 317.14 847.266 316.969 845.937C316.926 845.808 316.862 845.486 316.025 845.443L315.747 845.465Z" fill="#54AB44"/>
<path d="M309.036 850.932L287.553 851.704C286.738 851.725 286.052 852.326 285.902 853.119L282.643 870.743C282.343 872.308 283.372 873.809 284.916 874.109C285.109 874.152 285.323 874.173 285.516 874.152C293.256 873.744 300.138 873.08 309.786 872.737C321.171 872.329 318.32 873.809 331.72 873.509C339.781 873.337 340.939 864.118 337.508 863.775C321.793 862.36 319.992 857.707 313.753 852.304C312.402 851.297 310.73 850.804 309.036 850.932Z" fill="#254658"/>
<path opacity="0.2" d="M289.933 839.226L310.344 838.797L311.866 821.817H289.869L289.933 839.226Z" fill="#254658"/>
<path d="M280.242 510.208C280.242 510.208 257.237 540.674 274.282 600.32L293.514 687.323C293.514 687.323 275.204 726.902 284.873 831.315C284.873 831.315 299.41 833.652 313.281 830.671C313.281 830.671 334.7 720.405 337.959 683.143C341.539 642.128 339.395 518.419 339.395 518.419L280.242 510.208Z" fill="#254658"/>
<path d="M294.136 411.519C294.136 411.519 290.577 396.297 313.41 402.943C336.265 409.611 334.357 422.625 334.357 422.625L294.136 411.519Z" fill="#468D4A"/>
<path opacity="0.4" d="M294.136 411.519C294.136 411.519 290.577 396.297 313.41 402.943C336.265 409.611 334.357 422.625 334.357 422.625L294.136 411.519Z" fill="#548B4D"/>
<path d="M350.823 449.597C350.823 454.935 348.572 462.654 346.556 471.294C345.57 475.389 344.67 479.656 344.069 483.987C340.832 507.592 339.781 532.42 339.781 532.42C339.781 532.42 302.433 542.904 266.156 517.819C266.156 517.819 275.14 510.208 273.296 457.487C272.46 433.731 263.884 405.495 303.14 409.933C336.286 413.685 347.435 423.976 350.115 440.077C350.137 440.27 350.18 440.485 350.223 440.699C350.287 441.192 350.351 441.685 350.415 442.2C350.694 444.537 350.823 447.024 350.823 449.597Z" fill="#54AB44"/>
<path opacity="0.4" d="M350.823 449.597C350.823 454.935 348.571 462.654 346.556 471.294C337.594 460.51 328.611 440.313 328.611 440.313L336.008 429.422L349.043 435.489C349.493 436.969 349.836 438.491 350.115 440.077C350.137 440.27 350.179 440.485 350.222 440.699C350.287 441.192 350.351 441.685 350.415 442.2C350.694 444.537 350.823 447.024 350.823 449.597Z" fill="#6D6D6D"/>
<path d="M364.373 440.292C364.373 440.292 377.129 452.984 382.318 458.108L426.784 444.773C427.385 440.035 430.815 436.154 435.425 434.975L438.576 434.181L445.266 432.338C447.796 431.63 450.519 432.338 452.384 434.181C454.592 436.368 455.192 439.692 453.885 442.522C451.183 448.31 445.652 452.277 439.305 452.963L433.002 453.649C433.002 453.649 393.295 475.325 380.517 474.124C367.739 472.924 350.951 457.551 350.951 457.551L364.373 440.292Z" fill="#B97964"/>
<path d="M332.534 417.201C343.512 418.809 354.725 427.535 372.134 442.929C372.134 442.929 366.431 456.093 353.738 464.197C353.738 464.197 343.576 459.759 331.505 444.387C316.862 425.777 325.802 416.215 332.534 417.201Z" fill="#54AB44"/>
</svg>
