<svg xmlns="http://www.w3.org/2000/svg" xmlns:xlink="http://www.w3.org/1999/xlink" width="416" height="336" viewBox="0 0 416 336"><defs><style>.a{fill:#254658;}.b{fill:#659ebc;}.c{fill:#dad9e8;}.d{fill:#d5e9f3;}.e{fill:#05d4f5;}.f{clip-path:url(#r);}.g{isolation:isolate;}.h{fill:#46758e;}.i{fill:#919dd6;}.j{fill:#64a2c2;}.k{fill:#b7b6e3;}.l{fill:#e4e3ee;}.m{fill:#e4f5ff;}.n{fill:#57b746;}.o{fill:#81b6d1;}.p{fill:#76c568;}.q{clip-path:url(#a);}.r{clip-path:url(#b);}.s{clip-path:url(#c);}.t{fill:#1393f2;}.u{clip-path:url(#d);}.v{clip-path:url(#e);}.w{clip-path:url(#f);}.x{fill:#ebebf1;}.y{clip-path:url(#g);}.z{clip-path:url(#h);}.aa{clip-path:url(#i);}.ab{clip-path:url(#j);}.ac{fill:#12b0f3;}.ad{clip-path:url(#k);}.ae{clip-path:url(#l);}.af{clip-path:url(#m);}.ag{clip-path:url(#n);}.ah{clip-path:url(#o);}.ai{clip-path:url(#p);}</style><clipPath id="a"><path class="a" d="M229.815,282.322l-.006,2.192q-1.684-.467-3.227-.882t-2.854-.747q-1.311-.329-2.306-.583c-.664-.168-1.188-.3-1.576-.387l.007-2.192c.387.091.911.22,1.575.389s1.432.362,2.306.582,1.824.469,2.854.747S228.693,282.012,229.815,282.322Z" transform="translate(-219.846 -279.722)"/></clipPath><clipPath id="b"><path class="a" d="M238.925,285.008l-.006,2.19q-1.419-.395-2.823-.786l.005-2.191Z" transform="translate(-236.096 -284.221)"/></clipPath><clipPath id="c"><path class="a" d="M242.018,285.9l-.006,2.192q-1.314-.392-2.732-.788l.006-2.19Q240.7,285.5,242.018,285.9Z" transform="translate(-239.28 -285.109)"/></clipPath><clipPath id="d"><path class="a" d="M224.323,293.646l-.005,2.19q-2.023-2.411-3.682-4.488t-3.062-3.952q-1.4-1.879-2.592-3.6t-2.218-3.433l.006-2.191q1.027,1.709,2.217,3.433t2.592,3.6q1.4,1.875,3.062,3.953T224.323,293.646Z" transform="translate(-212.765 -278.169)"/></clipPath><clipPath id="e"><path class="b" d="M179.485,224.768l-7.528-4.375a3.849,3.849,0,0,1-1.674-2.926l7.528,4.375A3.846,3.846,0,0,0,179.485,224.768Z" transform="translate(-170.283 -217.467)"/></clipPath><clipPath id="f"><path class="c" d="M186.86,137.019l7.528,4.375c-2.2-1.277-5.242-1.117-8.652.851l-7.528-4.375C181.618,135.9,184.664,135.742,186.86,137.019Z" transform="translate(-178.209 -136.198)"/></clipPath><clipPath id="g"><path class="d" d="M169.631,167.121l-7.529-4.375c-1.231-7.81,4.465-18.837,11.967-23.168l7.528,4.375C174.1,148.284,168.4,159.312,169.631,167.121Z" transform="translate(-161.935 -139.578)"/></clipPath><clipPath id="h"><path class="e" d="M194.978,143.351l5.243,3.047c-2.225-1.294-5.307-1.112-8.709.853l-5.244-3.047C189.67,142.24,192.752,142.059,194.978,143.351Z" transform="translate(-186.268 -142.526)"/></clipPath><clipPath id="i"><path class="e" d="M181.315,176.46l-5.243-3.047c-2.2-1.277-3.56-3.992-3.571-7.851-.022-7.771,5.444-17.238,12.206-21.142l5.244,3.047c-6.762,3.9-12.229,13.371-12.206,21.142C177.755,172.468,179.118,175.183,181.315,176.46Z" transform="translate(-172.501 -144.419)"/></clipPath><clipPath id="j"><path class="e" d="M191.836,152.763l-1.215-5.121c6.762-3.9,12.26-.768,12.283,7s-5.44,17.233-12.2,21.137-12.264.773-12.286-7,5.444-17.238,12.206-21.142l1.215,5.121c-4.632,2.671-8.388,9.177-8.369,14.5s3.791,7.474,8.424,4.8,8.384-9.17,8.366-14.491S196.468,150.086,191.836,152.763Z" transform="translate(-178.415 -145.962)"/></clipPath><clipPath id="k"><path class="e" d="M279.346,172.509l5.243,3.047c-2.225-1.294-5.307-1.112-8.709.852l-5.244-3.047C274.038,171.4,277.12,171.216,279.346,172.509Z" transform="translate(-270.636 -171.683)"/></clipPath><clipPath id="l"><path class="b" d="M265.684,205.617l-5.244-3.047c-2.2-1.277-3.56-3.993-3.571-7.851-.022-7.771,5.444-17.238,12.206-21.143l5.244,3.047c-6.762,3.9-12.229,13.372-12.206,21.143C262.123,201.625,263.486,204.34,265.684,205.617Z" transform="translate(-256.869 -173.576)"/></clipPath><clipPath id="m"><path class="e" d="M276.2,181.92l-1.215-5.122c6.762-3.9,12.26-.767,12.283,7s-5.441,17.232-12.2,21.137-12.264.772-12.286-7,5.444-17.239,12.206-21.143l1.215,5.122c-4.632,2.671-8.388,9.176-8.369,14.5s3.791,7.474,8.424,4.8,8.384-9.169,8.366-14.49S280.836,179.244,276.2,181.92Z" transform="translate(-262.783 -175.12)"/></clipPath><clipPath id="n"><path class="b" d="M279.351,262.918l-7.528-4.375a3.852,3.852,0,0,1-1.675-2.926l7.528,4.376A3.851,3.851,0,0,0,279.351,262.918Z" transform="translate(-270.149 -255.617)"/></clipPath><clipPath id="o"><path class="b" d="M286.726,175.169l7.528,4.375c-2.2-1.276-5.242-1.117-8.651.851l-7.528-4.375C281.485,174.052,284.53,173.892,286.726,175.169Z" transform="translate(-278.075 -174.348)"/></clipPath><clipPath id="p"><path class="d" d="M269.5,205.271,261.97,200.9c-1.232-7.81,4.465-18.838,11.966-23.168l7.529,4.374C273.962,186.434,268.266,197.462,269.5,205.271Z" transform="translate(-261.802 -177.729)"/></clipPath><clipPath id="r"><rect width="416" height="336"/></clipPath></defs><g id="q" class="f"><g transform="translate(-5.769 -36.082)"><g transform="translate(63.528 169.945)"><path class="d" d="M230.925,332.975h20.463l78.527-45.4-68.936-40.67-49.268,27.059Z" transform="translate(-83.151 -193.347)"/><g transform="translate(59.278 39.884)"><g transform="translate(13.437 31.568)"><g class="g"><g transform="translate(0.003 3.251)"><path class="h" d="M148.729,272.879l3.659-2.126,4.962,2.865-3.659,2.127Z" transform="translate(-148.729 -270.753)"/></g><g transform="translate(5.635 1.657)"><path class="h" d="M158.826,271.082l3.659-2.127-3.745,6.118-3.659,2.127Z" transform="translate(-155.081 -268.955)"/></g><g transform="translate(18.033 5.385)"><path class="i" d="M169.068,275.287l3.659-2.127,0,1.268-3.659,2.126Z" transform="translate(-169.065 -273.16)"/></g><g transform="translate(8.71)"><path class="h" d="M158.55,269.213l3.659-2.127,9.326,5.385-3.659,2.127Z" transform="translate(-158.55 -267.087)"/></g><g transform="translate(0 2.127)"><path class="j" d="M166.762,274.87l0,1.268-8.654-5-3.745,6.118-5.635-3.254,0-1.27,4.962,2.865,3.745-6.115Z" transform="translate(-148.725 -269.485)"/></g></g></g><g transform="translate(27.029 23.827)"><g class="g"><g transform="translate(0.004 3.251)"><path class="h" d="M164.06,264.148l3.659-2.126,4.962,2.865-3.659,2.127Z" transform="translate(-164.06 -262.022)"/></g><g transform="translate(5.636 1.657)"><path class="h" d="M174.156,262.351l3.659-2.127-3.744,6.117-3.659,2.127Z" transform="translate(-170.411 -260.224)"/></g><g transform="translate(18.033 5.385)"><path class="i" d="M184.4,266.555l3.659-2.127,0,1.268-3.659,2.127Z" transform="translate(-184.394 -264.429)"/></g><g transform="translate(8.71)"><path class="h" d="M173.879,260.482l3.659-2.127,9.326,5.385-3.659,2.127Z" transform="translate(-173.879 -258.355)"/></g><g transform="translate(0 2.127)"><path class="j" d="M182.093,266.139l0,1.268-8.653-5-3.744,6.117-5.636-3.253,0-1.271,4.962,2.866,3.744-6.116Z" transform="translate(-164.055 -260.754)"/></g></g></g><g transform="translate(40.046 16.073)"><g class="g"><g transform="translate(0.003 3.25)"><path class="h" d="M178.741,255.4l3.659-2.127,4.962,2.866-3.659,2.126Z" transform="translate(-178.741 -253.276)"/></g><g transform="translate(5.635 1.657)"><path class="h" d="M188.837,253.606l3.659-2.126-3.745,6.117-3.659,2.127Z" transform="translate(-185.093 -251.479)"/></g><g transform="translate(18.033 5.385)"><path class="i" d="M199.08,257.81l3.659-2.127,0,1.269-3.659,2.127Z" transform="translate(-199.076 -255.684)"/></g><g transform="translate(8.71)"><path class="h" d="M188.561,251.737l3.659-2.127L201.547,255l-3.659,2.127Z" transform="translate(-188.561 -249.61)"/></g><g transform="translate(0 2.127)"><path class="j" d="M196.774,257.394l0,1.269-8.654-5-3.745,6.118-5.635-3.254,0-1.27,4.963,2.865,3.744-6.116Z" transform="translate(-178.737 -252.009)"/></g></g></g><g transform="translate(0 39.989)"><g class="g"><g transform="translate(0.003 3.251)"><path class="h" d="M133.575,282.376l3.659-2.126,4.963,2.865-3.66,2.126Z" transform="translate(-133.575 -280.25)"/></g><g transform="translate(5.636 1.657)"><path class="h" d="M143.671,280.579l3.659-2.127-3.745,6.117-3.659,2.127Z" transform="translate(-139.927 -278.453)"/></g><g transform="translate(18.033 5.385)"><path class="i" d="M153.913,284.783l3.66-2.127,0,1.269-3.659,2.127Z" transform="translate(-153.91 -282.657)"/></g><g transform="translate(8.71)"><path class="h" d="M143.395,278.71l3.66-2.127,9.327,5.385-3.66,2.127Z" transform="translate(-143.395 -276.583)"/></g><g transform="translate(0 2.127)"><path class="j" d="M151.608,284.367l0,1.269-8.653-5-3.745,6.117-5.636-3.253,0-1.271,4.962,2.865,3.745-6.116Z" transform="translate(-133.571 -278.982)"/></g></g></g><g transform="translate(54.517 7.896)"><g class="g"><g transform="translate(0.004 3.25)"><path class="h" d="M195.062,246.181l3.659-2.127,4.962,2.865-3.659,2.127Z" transform="translate(-195.062 -244.054)"/></g><g transform="translate(5.636 1.657)"><path class="k" d="M205.158,244.384l3.659-2.127-3.745,6.117-3.659,2.127Z" transform="translate(-201.414 -242.257)"/></g><g transform="translate(18.033 5.384)"><path class="i" d="M215.4,248.588l3.659-2.127,0,1.269-3.66,2.126Z" transform="translate(-215.397 -246.461)"/></g><g transform="translate(8.71)"><path class="l" d="M204.882,242.515l3.66-2.127,9.326,5.384-3.659,2.127Z" transform="translate(-204.882 -240.388)"/></g><g transform="translate(0 2.127)"><path class="j" d="M213.095,248.171l0,1.268-8.653-5-3.745,6.117-5.636-3.254,0-1.27,4.962,2.865,3.744-6.115Z" transform="translate(-195.058 -242.787)"/></g></g></g><g transform="translate(68.424)"><g class="g"><g transform="translate(0.003 3.25)"><path class="l" d="M210.747,237.275l3.659-2.127,4.962,2.865-3.659,2.127Z" transform="translate(-210.747 -235.148)"/></g><g transform="translate(5.635 1.657)"><path class="k" d="M220.843,235.478l3.659-2.127-3.745,6.117L217.1,241.6Z" transform="translate(-217.099 -233.351)"/></g><g transform="translate(18.033 5.385)"><path class="i" d="M231.086,239.682l3.659-2.126,0,1.269-3.659,2.127Z" transform="translate(-231.082 -237.555)"/></g><g transform="translate(8.71)"><path class="l" d="M220.567,233.609l3.659-2.127,9.326,5.385-3.659,2.126Z" transform="translate(-220.567 -231.482)"/></g><g transform="translate(0 2.127)"><path class="i" d="M228.781,239.265l0,1.269-8.654-5-3.745,6.117-5.635-3.253,0-1.271L215.709,240l3.745-6.116Z" transform="translate(-210.743 -233.881)"/></g></g></g></g><g transform="translate(145.002 40.073)"><g transform="translate(54.987 31.568)"><g class="g"><g transform="translate(13.071 3.25)"><path class="h" d="M315.636,273.093l-3.659-2.127-4.962,2.865,3.659,2.127Z" transform="translate(-307.014 -270.967)"/></g><g transform="translate(8.657 1.657)"><path class="h" d="M305.7,271.3l-3.659-2.126,3.744,6.117,3.659,2.126Z" transform="translate(-302.036 -269.17)"/></g><g transform="translate(0 5.385)"><path class="i" d="M295.932,275.5l-3.659-2.126,0,1.268,3.659,2.127Z" transform="translate(-292.272 -273.374)"/></g><path class="h" d="M305.258,269.427,301.6,267.3l-9.327,5.385,3.659,2.126Z" transform="translate(-292.272 -267.301)"/><g transform="translate(3.659 2.126)"><path class="j" d="M296.4,275.084l0,1.269,8.654-5,3.745,6.117,5.635-3.253,0-1.27-4.962,2.865-3.745-6.116Z" transform="translate(-296.399 -269.699)"/></g></g></g><g transform="translate(41.395 23.827)"><g class="g"><g transform="translate(13.071 3.25)"><path class="h" d="M300.306,264.362l-3.659-2.127-4.962,2.865,3.659,2.126Z" transform="translate(-291.685 -262.236)"/></g><g transform="translate(8.657 1.657)"><path class="h" d="M290.365,262.565l-3.659-2.126,3.745,6.117,3.659,2.127Z" transform="translate(-286.706 -260.438)"/></g><g transform="translate(0 5.384)"><path class="i" d="M280.6,266.769l-3.659-2.127,0,1.269,3.659,2.127Z" transform="translate(-276.942 -264.643)"/></g><path class="h" d="M289.928,260.7l-3.659-2.126-9.327,5.384,3.659,2.127Z" transform="translate(-276.942 -258.57)"/><g transform="translate(3.659 2.126)"><path class="j" d="M281.069,266.353l0,1.269,8.653-5,3.745,6.118,5.636-3.254,0-1.27-4.962,2.865-3.744-6.116Z" transform="translate(-281.069 -260.968)"/></g></g></g><g transform="translate(28.378 16.073)"><g class="g"><g transform="translate(13.071 3.251)"><path class="l" d="M285.625,255.617l-3.659-2.126L277,256.355l3.659,2.127Z" transform="translate(-277.003 -253.491)"/></g><g transform="translate(8.657 1.657)"><path class="k" d="M275.684,253.82l-3.659-2.127,3.745,6.118,3.659,2.127Z" transform="translate(-272.025 -251.693)"/></g><g transform="translate(0 5.385)"><path class="i" d="M265.92,258.024l-3.659-2.127,0,1.268,3.659,2.127Z" transform="translate(-262.261 -255.898)"/></g><path class="m" d="M275.246,251.951l-3.659-2.127-9.327,5.385,3.659,2.127Z" transform="translate(-262.261 -249.824)"/><g transform="translate(3.659 2.127)"><path class="i" d="M266.388,257.608l0,1.268,8.654-5L278.79,260l5.635-3.254,0-1.27-4.962,2.865-3.745-6.115Z" transform="translate(-266.388 -252.223)"/></g></g></g><g transform="translate(68.424 39.989)"><g class="g"><g transform="translate(13.071 3.25)"><path class="h" d="M330.791,282.59l-3.659-2.127-4.963,2.866,3.66,2.127Z" transform="translate(-322.169 -280.463)"/></g><g transform="translate(8.658 1.657)"><path class="h" d="M320.85,280.793l-3.659-2.127,3.745,6.117,3.659,2.127Z" transform="translate(-317.191 -278.666)"/></g><g transform="translate(0 5.385)"><path class="i" d="M311.086,285l-3.66-2.127,0,1.269,3.659,2.127Z" transform="translate(-307.426 -282.871)"/></g><path class="h" d="M320.413,278.924l-3.659-2.127-9.327,5.385,3.66,2.127Z" transform="translate(-307.426 -276.798)"/><g transform="translate(3.66 2.127)"><path class="j" d="M311.554,284.581l0,1.269,8.653-5,3.745,6.117,5.636-3.253,0-1.271-4.962,2.866-3.745-6.116Z" transform="translate(-311.554 -279.196)"/></g></g></g><g transform="translate(13.908 7.896)"><g class="g"><g transform="translate(13.071 3.25)"><path class="h" d="M269.3,246.395l-3.659-2.127-4.962,2.865,3.66,2.127Z" transform="translate(-260.682 -244.268)"/></g><g transform="translate(8.657 1.657)"><path class="k" d="M259.363,244.6l-3.659-2.126,3.745,6.117,3.659,2.127Z" transform="translate(-255.704 -242.471)"/></g><g transform="translate(0 5.384)"><path class="i" d="M249.6,248.8l-3.659-2.127,0,1.269,3.66,2.126Z" transform="translate(-245.94 -246.675)"/></g><path class="l" d="M258.926,242.729l-3.66-2.127-9.326,5.384,3.659,2.127Z" transform="translate(-245.94 -240.602)"/><g transform="translate(3.659 2.127)"><path class="j" d="M250.067,248.385l0,1.269,8.653-5,3.745,6.118,5.636-3.254,0-1.27-4.962,2.865L259.394,243Z" transform="translate(-250.067 -243.001)"/></g></g></g><g transform="translate(0)"><g class="g"><g transform="translate(13.071 3.25)"><path class="l" d="M253.618,237.489l-3.659-2.127L245,238.227l3.659,2.127Z" transform="translate(-244.997 -235.362)"/></g><g transform="translate(8.657 1.657)"><path class="k" d="M243.678,235.691l-3.659-2.126,3.744,6.117,3.659,2.127Z" transform="translate(-240.018 -233.565)"/></g><g transform="translate(0 5.384)"><path class="i" d="M233.914,239.9l-3.659-2.127,0,1.269,3.659,2.127Z" transform="translate(-230.254 -237.769)"/></g><path class="l" d="M243.24,233.823l-3.659-2.127-9.326,5.384,3.659,2.127Z" transform="translate(-230.254 -231.696)"/><g transform="translate(3.659 2.127)"><path class="i" d="M234.382,239.479l0,1.269,8.654-5,3.744,6.118,5.636-3.254,0-1.27-4.962,2.865-3.745-6.115Z" transform="translate(-234.382 -234.095)"/></g></g></g></g><g transform="translate(68.842 39.714)"><g class="g"><g transform="translate(78.938 45.575)"><path class="a" d="M311.837,282.692l-.025,8.763-78.425,45.576.025-8.764Z" transform="translate(-233.387 -282.692)"/></g><g transform="translate(0 45.575)"><path class="a" d="M223.319,328.268l-.025,8.764-78.938-45.575.025-8.764Z" transform="translate(-144.357 -282.693)"/></g><g transform="translate(0.025)"><path class="n" d="M301.748,276.865l-78.425,45.575-78.938-45.575,78.425-45.575Z" transform="translate(-144.385 -231.291)"/></g></g></g><g transform="translate(87.639 48.376)"><g transform="translate(60.086 34.69)"><path class="m" d="M293.033,280.185l-.013,4.382-59.7,34.691.013-4.382Z" transform="translate(-233.325 -280.185)"/></g><g transform="translate(0 34.691)"><path class="m" d="M225.655,314.877l-.013,4.382-60.086-34.69.012-4.382Z" transform="translate(-165.557 -280.186)"/></g><g transform="translate(0.012)"><path class="n" d="M285.352,275.75l-59.7,34.691-60.086-34.691,59.7-34.691Z" transform="translate(-165.571 -241.06)"/></g></g><g transform="translate(53.803 89.969)"><g class="g"><g transform="translate(4.964 5.385)"><path class="h" d="M136.654,306.583l-3.659-2.127,3.7-10.412,3.66,2.126Z" transform="translate(-132.995 -294.044)"/></g><g transform="translate(8.661)"><path class="h" d="M140.825,295.482l-3.66-2.126,9.327-5.385,3.659,2.127Z" transform="translate(-137.165 -287.971)"/></g><g transform="translate(0 15.797)"><path class="h" d="M131.055,310.78l-3.659-2.126,4.964-2.866,3.659,2.127Z" transform="translate(-127.396 -305.787)"/></g><g transform="translate(0 18.663)"><path class="o" d="M131.059,312.417,127.4,310.29l0-1.27,3.659,2.126Z" transform="translate(-127.396 -309.02)"/></g><g transform="translate(3.659 2.127)"><path class="j" d="M149.512,290.369l0,1.268-8.655,5-3.7,10.413-5.637,3.254,0-1.27,4.964-2.866,3.7-10.413Z" transform="translate(-131.523 -290.369)"/></g></g><g transform="translate(13.759 7.875)"><g class="g"><g transform="translate(4.964 5.385)"><path class="h" d="M152.172,315.464l-3.659-2.127,3.7-10.412,3.659,2.127Z" transform="translate(-148.513 -302.926)"/></g><g transform="translate(8.662)"><path class="h" d="M156.342,304.364l-3.659-2.127,9.327-5.385,3.659,2.127Z" transform="translate(-152.683 -296.852)"/></g><g transform="translate(0 15.797)"><path class="h" d="M146.573,319.662l-3.659-2.127,4.964-2.866,3.659,2.127Z" transform="translate(-142.914 -314.669)"/></g><g transform="translate(0 18.663)"><path class="o" d="M146.577,321.3l-3.659-2.127,0-1.27,3.659,2.127Z" transform="translate(-142.914 -317.901)"/></g><g transform="translate(3.659 2.127)"><path class="j" d="M165.03,299.251l0,1.269-8.655,5-3.7,10.413-5.637,3.254,0-1.27,4.964-2.866,3.7-10.412Z" transform="translate(-147.041 -299.251)"/></g></g></g><g transform="translate(27.408 15.831)"><g class="g"><g transform="translate(4.964 5.385)"><path class="h" d="M167.566,324.438l-3.659-2.127,3.7-10.412,3.659,2.126Z" transform="translate(-163.907 -311.899)"/></g><g transform="translate(8.662)"><path class="h" d="M171.737,313.337l-3.659-2.126,9.326-5.385,3.659,2.127Z" transform="translate(-168.078 -305.826)"/></g><g transform="translate(0 15.797)"><path class="h" d="M161.968,328.635l-3.659-2.126,4.964-2.867,3.659,2.127Z" transform="translate(-158.308 -323.642)"/></g><g transform="translate(0 18.663)"><path class="o" d="M161.971,330.272l-3.66-2.127,0-1.27L161.968,329Z" transform="translate(-158.308 -326.876)"/></g><g transform="translate(3.659 2.127)"><path class="j" d="M180.424,308.225l0,1.269-8.655,5-3.7,10.413-5.637,3.254,0-1.27,4.964-2.866,3.7-10.413Z" transform="translate(-162.435 -308.225)"/></g></g></g><g transform="translate(41.053 23.73)"><g class="g"><g transform="translate(4.964 5.385)"><path class="h" d="M182.956,333.347l-3.659-2.127,3.7-10.413,3.659,2.126Z" transform="translate(-179.296 -320.808)"/></g><g transform="translate(8.662)"><path class="h" d="M187.126,322.246l-3.659-2.126,9.327-5.385,3.66,2.126Z" transform="translate(-183.467 -314.735)"/></g><g transform="translate(0 15.797)"><path class="h" d="M177.357,337.545l-3.659-2.127,4.964-2.866,3.659,2.127Z" transform="translate(-173.697 -332.552)"/></g><g transform="translate(0 18.663)"><path class="o" d="M177.36,339.182l-3.659-2.127,0-1.271,3.659,2.127Z" transform="translate(-173.697 -335.784)"/></g><g transform="translate(3.659 2.126)"><path class="j" d="M195.814,317.133l0,1.269-8.656,5-3.7,10.414-5.637,3.255,0-1.27,4.964-2.866,3.7-10.413Z" transform="translate(-177.825 -317.133)"/></g></g></g><g transform="translate(54.87 31.574)"><g class="g"><g transform="translate(4.965 5.385)"><path class="h" d="M198.54,342.2l-3.659-2.127,3.7-10.413,3.659,2.127Z" transform="translate(-194.881 -329.655)"/></g><g transform="translate(8.662)"><path class="h" d="M202.711,331.094l-3.659-2.127,9.327-5.385,3.66,2.127Z" transform="translate(-199.052 -323.582)"/></g><g transform="translate(0 15.797)"><path class="h" d="M192.941,346.392l-3.66-2.127,4.965-2.866,3.659,2.127Z" transform="translate(-189.282 -341.399)"/></g><g transform="translate(0 18.663)"><path class="o" d="M192.945,348.029l-3.659-2.127,0-1.271,3.66,2.127Z" transform="translate(-189.282 -344.632)"/></g><g transform="translate(3.66 2.127)"><path class="j" d="M211.4,325.981l0,1.268-8.656,5-3.7,10.414-5.637,3.255,0-1.27,4.964-2.866,3.7-10.413Z" transform="translate(-193.409 -325.981)"/></g></g></g><g transform="translate(68.423 39.486)"><g class="g"><g transform="translate(4.965 5.385)"><path class="h" d="M213.825,351.119l-3.659-2.127,3.7-10.413,3.659,2.127Z" transform="translate(-210.166 -338.579)"/></g><g transform="translate(8.662)"><path class="h" d="M218,340.017l-3.659-2.127,9.327-5.385,3.66,2.127Z" transform="translate(-214.336 -332.506)"/></g><g transform="translate(0 15.798)"><path class="h" d="M208.226,355.316l-3.659-2.126,4.965-2.866,3.659,2.127Z" transform="translate(-204.567 -350.323)"/></g><g transform="translate(0 18.664)"><path class="o" d="M208.229,356.953l-3.659-2.127,0-1.27,3.659,2.126Z" transform="translate(-204.567 -353.556)"/></g><g transform="translate(3.659 2.127)"><path class="j" d="M226.683,334.9l0,1.269-8.656,5-3.7,10.414-5.638,3.255,0-1.271,4.965-2.866,3.7-10.413Z" transform="translate(-208.694 -334.905)"/></g></g></g></g><g transform="translate(151.489 90.113)"><g transform="translate(68.424)"><g class="g"><g transform="translate(9.33 5.385)"><path class="h" d="M328.963,306.745l3.659-2.127-3.7-10.412-3.659,2.127Z" transform="translate(-325.265 -294.207)"/></g><g transform="translate(0.004)"><path class="h" d="M324.073,295.645l3.659-2.127-9.326-5.385-3.659,2.127Z" transform="translate(-314.747 -288.133)"/></g><g transform="translate(13.027 15.797)"><path class="h" d="M334.4,310.942l3.659-2.126-4.964-2.866-3.659,2.127Z" transform="translate(-329.436 -305.95)"/></g><g transform="translate(17.988 18.663)"><path class="o" d="M335.03,312.579l3.659-2.127,0-1.27-3.659,2.126Z" transform="translate(-335.03 -309.183)"/></g><g transform="translate(0 2.127)"><path class="j" d="M314.746,290.532l0,1.268,8.655,5,3.7,10.413,5.637,3.254,0-1.27-4.964-2.866-3.7-10.412Z" transform="translate(-314.743 -290.532)"/></g></g></g><g transform="translate(54.665 7.875)"><g class="g"><g transform="translate(9.33 5.385)"><path class="h" d="M313.445,315.627,317.1,313.5l-3.7-10.412-3.659,2.127Z" transform="translate(-309.748 -303.088)"/></g><g transform="translate(0.004)"><path class="h" d="M308.555,304.526l3.659-2.127-9.327-5.385-3.659,2.127Z" transform="translate(-299.229 -297.015)"/></g><g transform="translate(13.028 15.797)"><path class="h" d="M318.882,319.824l3.659-2.127-4.964-2.866-3.659,2.127Z" transform="translate(-313.918 -314.831)"/></g><g transform="translate(17.988 18.663)"><path class="o" d="M319.513,321.461l3.659-2.127,0-1.27-3.659,2.127Z" transform="translate(-319.513 -318.064)"/></g><g transform="translate(0 2.127)"><path class="j" d="M299.228,299.413l0,1.268,8.655,5,3.7,10.413,5.637,3.255,0-1.27-4.964-2.866-3.7-10.412Z" transform="translate(-299.224 -299.413)"/></g></g></g><g transform="translate(41.016 15.831)"><g class="g"><g transform="translate(9.33 5.385)"><path class="h" d="M298.051,324.6l3.659-2.127-3.7-10.412-3.659,2.127Z" transform="translate(-294.353 -312.062)"/></g><g transform="translate(0.003)"><path class="h" d="M293.161,313.5l3.659-2.127-9.326-5.385-3.659,2.127Z" transform="translate(-283.834 -305.988)"/></g><g transform="translate(13.028 15.797)"><path class="h" d="M303.488,328.8l3.659-2.127-4.964-2.866-3.659,2.127Z" transform="translate(-298.524 -323.805)"/></g><g transform="translate(17.988 18.663)"><path class="o" d="M304.118,330.434l3.659-2.127,0-1.27-3.659,2.127Z" transform="translate(-304.118 -327.037)"/></g><g transform="translate(0 2.127)"><path class="j" d="M283.834,308.387l0,1.269,8.655,5,3.7,10.413,5.637,3.254,0-1.27-4.964-2.866-3.7-10.412Z" transform="translate(-283.83 -308.387)"/></g></g></g><g transform="translate(27.37 23.73)"><g class="g"><g transform="translate(9.331 5.385)"><path class="h" d="M282.661,333.51l3.659-2.127-3.7-10.412-3.659,2.126Z" transform="translate(-278.964 -320.97)"/></g><g transform="translate(0.004)"><path class="h" d="M277.771,322.408l3.659-2.126L272.1,314.9l-3.659,2.127Z" transform="translate(-268.444 -314.897)"/></g><g transform="translate(13.029 15.798)"><path class="h" d="M288.1,337.707l3.659-2.127-4.964-2.866-3.659,2.127Z" transform="translate(-283.134 -332.714)"/></g><g transform="translate(17.989 18.664)"><path class="o" d="M288.729,339.344l3.66-2.126,0-1.271-3.659,2.127Z" transform="translate(-288.729 -335.947)"/></g><g transform="translate(0 2.127)"><path class="j" d="M268.444,317.3l0,1.269,8.656,5,3.7,10.413,5.637,3.255,0-1.27-4.964-2.866-3.7-10.413Z" transform="translate(-268.44 -317.295)"/></g></g></g><g transform="translate(13.552 31.574)"><g class="g"><g transform="translate(9.33 5.385)"><path class="h" d="M267.077,342.357l3.659-2.127-3.7-10.413-3.66,2.127Z" transform="translate(-263.379 -329.818)"/></g><g transform="translate(0.003)"><path class="h" d="M262.186,331.256l3.66-2.127-9.327-5.385-3.659,2.127Z" transform="translate(-252.859 -323.744)"/></g><g transform="translate(13.028 15.798)"><path class="h" d="M272.514,346.554l3.659-2.127-4.965-2.866-3.659,2.127Z" transform="translate(-267.549 -341.562)"/></g><g transform="translate(17.989 18.664)"><path class="o" d="M273.144,348.191l3.66-2.127,0-1.271-3.659,2.127Z" transform="translate(-273.144 -344.794)"/></g><g transform="translate(0 2.127)"><path class="j" d="M252.859,326.143l0,1.268,8.656,5,3.7,10.414,5.637,3.255,0-1.271-4.965-2.866-3.7-10.413Z" transform="translate(-252.856 -326.143)"/></g></g></g><g transform="translate(0 39.486)"><g class="g"><g transform="translate(9.331 5.385)"><path class="h" d="M251.792,351.281l3.66-2.127-3.7-10.413-3.659,2.127Z" transform="translate(-248.094 -338.742)"/></g><g transform="translate(0.003)"><path class="h" d="M246.9,340.18l3.659-2.127-9.327-5.385-3.66,2.127Z" transform="translate(-237.574 -332.668)"/></g><g transform="translate(13.028 15.798)"><path class="h" d="M257.229,355.479l3.66-2.127-4.965-2.866-3.66,2.127Z" transform="translate(-252.264 -350.486)"/></g><g transform="translate(17.989 18.664)"><path class="o" d="M257.86,357.115l3.659-2.127,0-1.27-3.66,2.127Z" transform="translate(-257.86 -353.718)"/></g><g transform="translate(0 2.127)"><path class="j" d="M237.574,335.066l0,1.269,8.656,5,3.7,10.413L255.56,355l0-1.27-4.965-2.866-3.7-10.413Z" transform="translate(-237.571 -335.066)"/></g></g></g></g><g transform="translate(108.376 60.379)"><path class="m" d="M188.946,277.284l2.933,1.694,36.1,20.846V254.6Z" transform="translate(-188.946 -254.598)"/><path class="m" d="M232.973,254.6v45.226l.255.147,36.106-20.983,2.933-1.7Z" transform="translate(-193.937 -254.598)"/><path class="e" d="M264.719,279.423l-36.106,20.983-36.359-20.994,36.1-20.983Z" transform="translate(-189.321 -255.032)"/></g><path class="p" d="M264.719,279.423l-36.106,20.983-36.359-20.994,36.1-20.983Z" transform="translate(-80.945 -194.653)"/><g transform="translate(129.495 70.583)"><g class="g" transform="translate(14.12)"><g transform="translate(19.154 11.059)"><path class="a" d="M254.584,278.579l-.007,2.191-4.284,2.49.006-2.191Z" transform="translate(-250.293 -278.579)"/></g><g transform="translate(0 2.49)"><path class="a" d="M247.851,279.973l-.006,2.191L228.69,271.105l.007-2.191Z" transform="translate(-228.69 -268.915)"/></g><g transform="translate(0.006)"><path class="m" d="M252.136,277.165l-4.284,2.489L228.7,268.6l4.284-2.49Z" transform="translate(-228.697 -266.106)"/></g></g><g class="g" transform="translate(0 8.335)"><g class="g" transform="translate(6.278 3.737)"><path class="a" d="M229.815,282.322l-.006,2.192q-1.684-.467-3.227-.882t-2.854-.747q-1.311-.329-2.306-.583c-.664-.168-1.188-.3-1.576-.387l.007-2.192c.387.091.911.22,1.575.389s1.432.362,2.306.582,1.824.469,2.854.747S228.693,282.012,229.815,282.322Z" transform="translate(-219.846 -279.722)"/><g class="q"><g class="g"><path class="a" d="M229.815,282.322l-.006,2.192q-1.684-.467-3.227-.882t-2.854-.747q-1.311-.329-2.306-.583c-.664-.168-1.188-.3-1.576-.387l.007-2.192c.387.091.911.22,1.575.389s1.432.362,2.306.582,1.824.469,2.854.747S228.693,282.012,229.815,282.322Z" transform="translate(-219.846 -279.722)"/></g></g></g><g class="g" transform="translate(20.686 7.726)"><path class="a" d="M238.925,285.008l-.006,2.19q-1.419-.395-2.823-.786l.005-2.191Z" transform="translate(-236.096 -284.221)"/><g class="r"><g class="g"><path class="a" d="M238.925,285.008l-.006,2.19q-1.419-.395-2.823-.786l.005-2.191Z" transform="translate(-236.096 -284.221)"/></g></g></g><g class="g" transform="translate(23.509 8.514)"><path class="a" d="M242.018,285.9l-.006,2.192q-1.314-.392-2.732-.788l.006-2.19Q240.7,285.5,242.018,285.9Z" transform="translate(-239.28 -285.109)"/><g class="s"><g class="g"><path class="a" d="M242.018,285.9l-.006,2.192q-1.314-.392-2.732-.788l.006-2.19Q240.7,285.5,242.018,285.9Z" transform="translate(-239.28 -285.109)"/></g></g></g><g transform="translate(26.241 6.634)"><path class="a" d="M246.956,282.989l-.006,2.191-4.588,2.666.006-2.191Z" transform="translate(-242.361 -282.989)"/></g><g transform="translate(13.253 7.726)"><path class="a" d="M235.151,284.221l-.006,2.191-7.433,4.32.006-2.191Z" transform="translate(-227.712 -284.221)"/></g><g class="g" transform="translate(0 2.36)"><path class="t" d="M224.323,293.646l-.005,2.19q-2.023-2.411-3.682-4.488t-3.062-3.952q-1.4-1.879-2.592-3.6t-2.218-3.433l.006-2.191q1.027,1.709,2.217,3.433t2.592,3.6q1.4,1.875,3.062,3.953T224.323,293.646Z" transform="translate(-212.765 -278.169)"/><g class="u"><g class="g"><path class="a" d="M224.323,293.646l-.005,2.19q-2.023-2.411-3.682-4.488t-3.062-3.952q-1.4-1.879-2.592-3.6t-2.218-3.433l.006-2.191q1.027,1.709,2.217,3.433t2.592,3.6q1.4,1.875,3.062,3.953T224.323,293.646Z" transform="translate(-212.765 -278.169)"/></g></g></g><g transform="translate(11.553 15.252)"><path class="a" d="M230.249,292.709l-.006,2.191-4.448,2.585.006-2.191Z" transform="translate(-225.795 -292.709)"/></g><g transform="translate(0.006)"><path class="m" d="M236.281,284.021l-2.824-.787-7.433,4.32,1.378,1.633c.459.545.919,1.069,1.37,1.573l-4.448,2.585q-2.022-2.413-3.681-4.488t-3.062-3.953q-1.4-1.878-2.592-3.6t-2.217-3.433l4.061-2.36q2.929.6,5.924,1.279T229,278.265q3.244.8,6.837,1.759t7.762,2.116l-4.588,2.666Q237.7,284.415,236.281,284.021Zm-12.71.986,5.442-3.163q-1.684-.464-3.227-.881t-2.854-.747q-1.311-.33-2.306-.582c-.664-.169-1.188-.3-1.575-.389q.273.325.716.9c.294.384.641.824,1.031,1.323s.82,1.052,1.284,1.655S223.043,284.356,223.571,285.007Z" transform="translate(-212.772 -275.507)"/></g></g></g><g transform="translate(18.204 24.402)"><path class="a" d="M217.006,363.862,87.245,288.944l128.926-74.923,129.761,74.918ZM90.69,288.939,217,361.867l125.485-72.924L216.174,216.016Z" transform="translate(-87.245 -214.021)"/></g><g transform="translate(0)"><g transform="translate(21.977 122.223)"><g transform="translate(37.586 30.772)"><path class="a" d="M190.023,359.8l-1.515.873-8.73,5.04a.453.453,0,0,1-.455,0l-9.836-5.681L157.068,367.2l-.909.524-18.867,10.894-2.718,1.57a.456.456,0,0,1-.622-.168.455.455,0,0,1,.167-.621l2.422-1.4,18.708-10.8.91-.525,13.1-7.563a.453.453,0,0,1,.455,0l9.836,5.681,8.047-4.647,1.516-.876Z" transform="translate(-133.892 -359.055)"/></g><g transform="translate(7.971 13.394)"><path class="a" d="M156.38,340.338l-1.515.876-8.488,4.9a.467.467,0,0,1-.455,0l-9.836-5.68-12.659,7.308-.91.525L104.382,358.74l-3.21,1.852a.477.477,0,0,1-.228.061.455.455,0,0,1-.227-.849l2.934-1.694,17.957-10.367.909-.524,13.34-7.7a.449.449,0,0,1,.455,0l9.836,5.681,7.805-4.508,1.516-.876Z" transform="translate(-100.491 -339.455)"/></g><g transform="translate(3.338 0)"><path class="a" d="M131.971,324.877l-1.518.876L98.365,344.279l-2.416,1.394a.44.44,0,0,1-.227.061.455.455,0,0,1-.228-.848l2.006-1.158,32.043-18.5,1.518-.876Z" transform="translate(-95.266 -324.349)"/></g><g transform="translate(68.405 37.329)"><path class="a" d="M204.942,366.979l-1.515.872-31.646,18.272-2.446,1.412a.474.474,0,0,1-.227.061.455.455,0,0,1-.228-.849l1.983-1.142,31.655-18.278,1.515-.876Z" transform="translate(-168.652 -366.451)"/></g><g transform="translate(37.364 19.652)"><path class="a" d="M170.352,347.037l-1.515.876-21.373,12.339-.909.525-9.691,5.6h0l-2.537,1.464a.456.456,0,0,1-.622-.168.452.452,0,0,1,.168-.618l2.1-1.212,9.679-5.59.906-.524,21.372-12.34,1.515-.875Z" transform="translate(-133.642 -346.513)"/></g><g transform="translate(21.211 3.298)"><path class="a" d="M167.821,371.108l-11.988,6.92-3.35,1.934-.454-.788,3.013-1.74L166,371.108l-11.937-6.893-.909-.524-8.666-5-.906-.524-19.372-11.185-.909-.524-7.878-4.55,22.125-12.952,1.506-.882.906.521-1.506.882L117.233,341.9l6.978,4.029.909.524,19.369,11.185.909.524,8.666,5,.909.525Z" transform="translate(-115.424 -328.069)"/></g><g transform="translate(77.208 40.994)"><g transform="translate(2.49)"><path class="a" d="M212.312,383.554a.454.454,0,0,1-.228.395L185.3,399.41l-3.234,1.867a.468.468,0,0,1-.227.06.455.455,0,0,1-.228-.849l2.816-1.625,26.518-15.311-10.116-5.84a.456.456,0,0,1,0-.788l9.473-5.469,1.515-.872.906.524-1.515.873-9.242,5.338,10.115,5.841A.45.45,0,0,1,212.312,383.554Z" transform="translate(-181.389 -370.584)"/></g><g transform="translate(0 27.882)"><path class="a" d="M184.5,402.617c1.353.782,1.353,2.049,0,2.83a5.415,5.415,0,0,1-4.9,0c-1.353-.781-1.353-2.048,0-2.83A5.42,5.42,0,0,1,184.5,402.617Z" transform="translate(-178.581 -402.031)"/></g></g><g transform="translate(0 18.964)"><path class="a" d="M97.418,346.323c1.353.781,1.353,2.048,0,2.83a5.42,5.42,0,0,1-4.9,0c-1.354-.782-1.354-2.049,0-2.83A5.42,5.42,0,0,1,97.418,346.323Z" transform="translate(-91.501 -345.737)"/></g><g transform="translate(5.205 31.456)"><path class="a" d="M103.289,360.413c1.354.781,1.354,2.048,0,2.83a5.419,5.419,0,0,1-4.9,0c-1.354-.782-1.354-2.049,0-2.83A5.413,5.413,0,0,1,103.289,360.413Z" transform="translate(-97.372 -359.826)"/></g><g transform="translate(34.225 38.613)"><path class="a" d="M136.019,368.485c1.354.782,1.354,2.049,0,2.831a5.419,5.419,0,0,1-4.9,0c-1.354-.782-1.354-2.049,0-2.831A5.419,5.419,0,0,1,136.019,368.485Z" transform="translate(-130.102 -367.899)"/></g><g transform="translate(34.356 49.155)"><path class="a" d="M136.166,380.374c1.354.781,1.354,2.049,0,2.83a5.419,5.419,0,0,1-4.9,0c-1.354-.781-1.354-2.049,0-2.83A5.419,5.419,0,0,1,136.166,380.374Z" transform="translate(-130.249 -379.788)"/></g><g transform="translate(55.047 52.147)"><path class="a" d="M159.5,383.75c1.353.781,1.353,2.048,0,2.83a5.42,5.42,0,0,1-4.9,0c-1.353-.782-1.353-2.049,0-2.83A5.415,5.415,0,0,1,159.5,383.75Z" transform="translate(-153.586 -383.164)"/></g><g transform="translate(65.237 56.151)"><path class="a" d="M171,388.265c1.354.781,1.354,2.048,0,2.83a5.419,5.419,0,0,1-4.9,0c-1.354-.782-1.354-2.049,0-2.83A5.419,5.419,0,0,1,171,388.265Z" transform="translate(-165.079 -387.679)"/></g></g><g transform="translate(158.992 105.71)"><g transform="translate(93.936 5.135)"><path class="a" d="M383.088,341.948a.453.453,0,0,1-.394.227.472.472,0,0,1-.228-.06l-2.765-1.594-27.25-15.735a.456.456,0,0,1,0-.788l10.116-5.841-9.076-5.241-1.513-.872.9-.528,1.515.873,9.305,5.374a.455.455,0,0,1,0,.788l-10.115,5.841,27.132,15.665,2.2,1.27A.455.455,0,0,1,383.088,341.948Z" transform="translate(-351.979 -311.515)"/></g><g transform="translate(0 59.726)"><path class="a" d="M276.95,403.41a.454.454,0,0,1-.394.228.467.467,0,0,1-.227-.061l-2.68-1.545-27.334-15.783a.462.462,0,0,1-.228-.395.455.455,0,0,1,.228-.394l10.114-5.841-8.887-5.132-1.509-.873.906-.528,1.509.873,9.118,5.265a.456.456,0,0,1,0,.788l-10.115,5.841,27.256,15.738,2.077,1.2A.454.454,0,0,1,276.95,403.41Z" transform="translate(-246.033 -373.086)"/></g><g transform="translate(46.082 32.946)"><path class="a" d="M329.25,370.73a.458.458,0,0,1-.394.227.429.429,0,0,1-.227-.06l-2.514-1.452L305.434,357.5a.456.456,0,0,1,0-.788l7.669-4.429-6.908-4.062-.9-.53-5.79-3.407-1.5-.882.9-.524,1.5.881,5.792,3.408.9.53,7.135,4.2a.458.458,0,0,1,.224.395.466.466,0,0,1-.227.394l-7.663,4.423,20.776,11.995h0l1.733,1A.458.458,0,0,1,329.25,370.73Z" transform="translate(-298.007 -342.882)"/></g><g transform="translate(71.86 17.966)"><path class="a" d="M370.111,367.611a.457.457,0,0,1-.395.227.466.466,0,0,1-.227-.061l-2.677-1.545-37.708-21.773a.454.454,0,0,1,0-.787l13.847-7.993-14.358-8.294-1.514-.873.9-.524,1.513.872,14.592,8.424a.456.456,0,0,1,0,.788l-13.847,7.993,37.623,21.724,2.079,1.2A.455.455,0,0,1,370.111,367.611Z" transform="translate(-327.08 -325.987)"/></g><g transform="translate(12.494 52.467)"><path class="a" d="M322.058,383.392a.457.457,0,0,1-.622.167l-2.3-1.327-26.69-15.411-14.725,8.5a.451.451,0,0,1-.454,0L261.634,366.3l-1.51-.873.9-.524,1.51.872,14.956,8.633,14.725-8.5a.453.453,0,0,1,.455,0l27.374,15.8,1.843,1.064A.453.453,0,0,1,322.058,383.392Z" transform="translate(-260.124 -364.899)"/></g><g transform="translate(78.592 14.052)"><path class="a" d="M370.562,342.294a.455.455,0,0,1-.394.228.477.477,0,0,1-.228-.061l-2.6-1.5-31.16-17.989-1.513-.876.906-.525,1.513.873,31.23,18.029,2.074,1.2A.451.451,0,0,1,370.562,342.294Z" transform="translate(-334.673 -321.573)"/></g><g transform="translate(102.769)"><path class="a" d="M397.733,326.391a.455.455,0,0,1-.394.227.466.466,0,0,1-.227-.061l-2.856-1.648-30.8-17.784-1.515-.873.906-.527,1.516.873,30.766,17.766,2.437,1.406A.455.455,0,0,1,397.733,326.391Z" transform="translate(-361.941 -305.724)"/></g><g transform="translate(50.896 30.148)"><path class="a" d="M339.031,360.278a.458.458,0,0,1-.394.227.43.43,0,0,1-.227-.061l-2.816-1.624-23.876-13.786-.91-.525-5.86-3.386-1.513-.872.907-.525,1.513.873,5.862,3.383.909.528,23.792,13.734,2.445,1.412A.459.459,0,0,1,339.031,360.278Z" transform="translate(-303.436 -339.726)"/></g><g transform="translate(5.632 56.452)"><path class="a" d="M288.049,389.988a.457.457,0,0,1-.622.167l-2.616-1.509h0l-30.915-17.851-1.509-.873.906-.528,1.509.872,30.985,17.888,2.1,1.212A.454.454,0,0,1,288.049,389.988Z" transform="translate(-252.385 -369.394)"/></g><g transform="translate(32.845 21.718)"><path class="a" d="M324.872,335.029l-14.553,8.4-.909.524-4,2.31-.906.525-18.245,10.533-2.725,1.573-.455-.788,2.428-1.4,18.1-10.449.907-.524,3.992-2.3.91-.528,13.643-7.875-5.908-3.41-1.513-.876.907-.524,1.512.873Z" transform="translate(-283.078 -330.219)"/></g><g transform="translate(26.669 88.041)"><path class="a" d="M282.028,405.608c1.354.781,1.354,2.048,0,2.829a5.415,5.415,0,0,1-4.9,0c-1.353-.781-1.353-2.048,0-2.829A5.415,5.415,0,0,1,282.028,405.608Z" transform="translate(-276.111 -405.022)"/></g><g transform="translate(37.314 74.939)"><path class="a" d="M294.035,390.83c1.354.782,1.354,2.049,0,2.831a5.419,5.419,0,0,1-4.9,0c-1.354-.782-1.354-2.049,0-2.831A5.418,5.418,0,0,1,294.035,390.83Z" transform="translate(-288.118 -390.244)"/></g><g transform="translate(29.398 47.643)"><path class="a" d="M285.107,360.045c1.354.782,1.354,2.049,0,2.83a5.419,5.419,0,0,1-4.9,0c-1.354-.781-1.354-2.048,0-2.83A5.413,5.413,0,0,1,285.107,360.045Z" transform="translate(-279.19 -359.459)"/></g><g transform="translate(70.888 68.934)"><path class="a" d="M331.9,384.058c1.354.781,1.354,2.049,0,2.83a5.419,5.419,0,0,1-4.9,0c-1.354-.781-1.354-2.049,0-2.83A5.413,5.413,0,0,1,331.9,384.058Z" transform="translate(-325.984 -383.472)"/></g><g transform="translate(72.798 59.107)"><path class="a" d="M334.055,372.975c1.354.781,1.354,2.048,0,2.83a5.421,5.421,0,0,1-4.9,0c-1.353-.782-1.353-2.049,0-2.83A5.415,5.415,0,0,1,334.055,372.975Z" transform="translate(-328.138 -372.389)"/></g><g transform="translate(82.631 48.2)"><path class="a" d="M345.145,360.672c1.355.782,1.355,2.049,0,2.83a5.413,5.413,0,0,1-4.9,0c-1.353-.781-1.353-2.048,0-2.83A5.419,5.419,0,0,1,345.145,360.672Z" transform="translate(-339.228 -360.086)"/></g><g transform="translate(110.668 57.571)"><path class="a" d="M376.767,371.242c1.354.781,1.354,2.048,0,2.83a5.415,5.415,0,0,1-4.9,0c-1.353-.782-1.353-2.049,0-2.83A5.415,5.415,0,0,1,376.767,371.242Z" transform="translate(-370.85 -370.656)"/></g><g transform="translate(110.515 32.683)"><ellipse class="a" cx="3.466" cy="2.001" rx="3.466" ry="2.001"/></g><g transform="translate(120.808 33.451)"><path class="a" d="M388.2,344.038c1.354.781,1.354,2.049,0,2.83a5.413,5.413,0,0,1-4.9,0c-1.354-.781-1.354-2.049,0-2.83A5.419,5.419,0,0,1,388.2,344.038Z" transform="translate(-382.287 -343.452)"/></g><g transform="translate(134.558 18.242)"><path class="a" d="M403.712,326.884c1.354.782,1.354,2.049,0,2.83a5.415,5.415,0,0,1-4.9,0c-1.353-.781-1.353-2.048,0-2.83A5.421,5.421,0,0,1,403.712,326.884Z" transform="translate(-397.795 -326.298)"/></g></g><g transform="translate(86.307 5.379)"><path class="a" d="M192.121,202.422a.458.458,0,0,1-.222.394l-7.2,4.314-.895.536-9.036,5.414-.891.534-8.472,5.077,23.806,13.746,1.513.872-.907.528-1.515-.872-24.023-13.871a.465.465,0,0,1-.227-.391.455.455,0,0,1,.221-.395l8.7-5.213.895-.536,9.036-5.414.891-.536,6.972-4.177L177.41,194.72l-2.261-1.306a.454.454,0,1,1,.454-.786l2.677,1.545,13.613,7.857A.462.462,0,0,1,192.121,202.422Z" transform="translate(-164.055 -192.566)"/></g><g transform="translate(2.746 62.144)"><path class="a" d="M100.047,286.18l-23.38-13.5,10.116-5.841a.457.457,0,0,0,.227-.394.462.462,0,0,0-.227-.395l-13.738-7.929-2.553-1.474a.455.455,0,0,0-.455.788l1.946,1.125,13.661,7.884-10.115,5.841a.454.454,0,0,0,0,.787l23.61,13.631Z" transform="translate(-69.811 -256.589)"/></g><g transform="translate(48.769 37.078)"><path class="a" d="M153.5,256.207l-.9.524-1.515-.873-16.262-9.39a.452.452,0,0,1,0-.785l7.669-4.429-18.766-11.042-1.78-1.049a.454.454,0,1,1,.461-.782l2.267,1.336,18.951,11.15a.454.454,0,0,1,0,.785l-7.662,4.425,16.031,9.254Z" transform="translate(-121.719 -228.318)"/></g><g transform="translate(66.909 20.196)"><path class="a" d="M176.142,242.24l-.906.524-1.513-.873-25.295-14.6a.455.455,0,0,1,0-.788l11.167-6.448-14.19-8.193-3-1.734a.453.453,0,1,1,.455-.785l3.425,1.976,14.446,8.342a.455.455,0,0,1,0,.788l-11.166,6.448,25.064,14.47Z" transform="translate(-142.177 -209.277)"/></g><g transform="translate(19.736 57.347)"><path class="a" d="M138.342,265.448l-.907.528-1.512-.872-16.515-9.533L107.6,262.388a.453.453,0,0,1-.455,0l-15.977-9.225L89.2,252.026a.455.455,0,0,1,.455-.788l2.352,1.358,15.365,8.872,11.81-6.817a.449.449,0,0,1,.455,0l17.193,9.924Z" transform="translate(-88.973 -251.178)"/></g><g transform="translate(85.657 19.664)"><path class="a" d="M200.155,229.61l-.906.528-1.516-.876L173.8,215.439l-.9-.519-7.414-4.286h0l-1.925-1.109a.455.455,0,0,1,.454-.788l2.483,1.434,7.3,4.213.9.521,23.955,13.828Z" transform="translate(-163.322 -208.677)"/></g><g transform="translate(75.601 2.192)"><path class="a" d="M208.966,221.508l-.906.528-1.515-.873-24.108-13.9-.9-.521-27.884-16.084-1.446-.833a.455.455,0,0,1,.455-.788l2.119,1.222L182.428,206.2l.9.521,24.119,13.913Z" transform="translate(-151.98 -188.972)"/></g><g transform="translate(59.215 35.133)"><path class="a" d="M170.242,247l-.906.528-1.513-.873-31.955-18.447h0l-2.137-1.237a.455.455,0,0,1,.455-.788l2.679,1.546,31.867,18.4Z" transform="translate(-133.5 -226.125)"/></g><g transform="translate(30.713 70.709)"><path class="a" d="M121.686,277.654l-.907.527-1.512-.872L105,269.07,101.58,267.1a.455.455,0,0,1,.454-.788l3.92,2.261,14.219,8.212Z" transform="translate(-101.354 -266.249)"/></g><g transform="translate(0 60.303)"><path class="a" d="M72.631,255.1c1.354.781,1.354,2.048,0,2.83a5.418,5.418,0,0,1-4.9,0c-1.354-.782-1.354-2.049,0-2.83A5.413,5.413,0,0,1,72.631,255.1Z" transform="translate(-66.714 -254.513)"/></g><g transform="translate(29.075 69.828)"><path class="a" d="M105.423,265.841c1.354.781,1.354,2.048,0,2.83a5.418,5.418,0,0,1-4.9,0c-1.354-.782-1.354-2.049,0-2.83A5.413,5.413,0,0,1,105.423,265.841Z" transform="translate(-99.506 -265.254)"/></g><g transform="translate(16.291 55.774)"><path class="a" d="M91,249.99c1.354.781,1.354,2.049,0,2.83a5.413,5.413,0,0,1-4.9,0c-1.354-.781-1.354-2.049,0-2.83A5.419,5.419,0,0,1,91,249.99Z" transform="translate(-85.088 -249.404)"/></g><g transform="translate(45.496 35.266)"><path class="a" d="M123.944,226.861c1.354.781,1.354,2.048,0,2.829a5.413,5.413,0,0,1-4.9,0c-1.354-.781-1.354-2.048,0-2.829A5.413,5.413,0,0,1,123.944,226.861Z" transform="translate(-118.027 -226.275)"/></g><g transform="translate(21.662 49.051)"><path class="a" d="M97.063,242.407c1.353.781,1.353,2.049,0,2.83a5.42,5.42,0,0,1-4.9,0c-1.354-.781-1.354-2.049,0-2.83A5.421,5.421,0,0,1,97.063,242.407Z" transform="translate(-91.146 -241.821)"/></g><g transform="translate(24.711 44.972)"><path class="a" d="M144.962,260.39l-.907.527-1.513-.873L104.71,238.2l-6.86,3.959-2.585,1.491a.454.454,0,0,1-.622-.167.46.46,0,0,1,.167-.622l2.125-1.228,7.548-4.355a.465.465,0,0,1,.454,0l38.511,22.236Z" transform="translate(-94.584 -237.221)"/></g><g transform="translate(106.34 3.411)"><path class="a" d="M218.616,218.338l-.906.528-1.516-.873L199.753,208.5a.456.456,0,0,1,0-.788l7.669-4.429L188.656,192.24l-1.783-1.046a.455.455,0,0,1,.461-.785l2.27,1.333,18.951,11.152a.456.456,0,0,1,.224.394.463.463,0,0,1-.227.395l-7.662,4.423,16.213,9.36Z" transform="translate(-186.65 -190.346)"/></g><g transform="translate(103.065 1.601)"><path class="a" d="M188.873,188.891c1.354.781,1.354,2.048,0,2.83a5.421,5.421,0,0,1-4.9,0c-1.354-.782-1.354-2.049,0-2.83A5.415,5.415,0,0,1,188.873,188.891Z" transform="translate(-182.956 -188.305)"/></g><g transform="translate(56.439 33.468)"><path class="a" d="M136.286,224.833c1.354.781,1.354,2.048,0,2.83a5.419,5.419,0,0,1-4.9,0c-1.354-.782-1.354-2.049,0-2.83A5.413,5.413,0,0,1,136.286,224.833Z" transform="translate(-130.369 -224.247)"/></g><g transform="translate(64.622 19.165)"><path class="a" d="M145.515,208.7c1.353.781,1.353,2.049,0,2.83a5.421,5.421,0,0,1-4.9,0c-1.354-.781-1.354-2.049,0-2.83A5.42,5.42,0,0,1,145.515,208.7Z" transform="translate(-139.598 -208.114)"/></g><g transform="translate(72.595)"><path class="a" d="M154.508,187.085c1.354.782,1.354,2.049,0,2.83a5.413,5.413,0,0,1-4.9,0c-1.354-.781-1.354-2.048,0-2.83A5.419,5.419,0,0,1,154.508,187.085Z" transform="translate(-148.591 -186.499)"/></g><g transform="translate(94.12 3.931)"><path class="a" d="M178.785,191.519c1.354.781,1.354,2.048,0,2.829a5.415,5.415,0,0,1-4.9,0c-1.353-.781-1.353-2.048,0-2.829A5.415,5.415,0,0,1,178.785,191.519Z" transform="translate(-172.868 -190.932)"/></g><g transform="translate(82.735 17.848)"><path class="a" d="M165.944,207.215c1.354.782,1.354,2.049,0,2.83a5.419,5.419,0,0,1-4.9,0c-1.354-.781-1.354-2.048,0-2.83A5.419,5.419,0,0,1,165.944,207.215Z" transform="translate(-160.027 -206.629)"/></g><g transform="translate(151.461 0.79)"><g transform="translate(87.902 40.445)"><path class="a" d="M364.746,259.142a.462.462,0,0,1-.227.392l-22.592,13.043-1.513.872-.91-.524,1.513-.876,22.376-12.919-20.536-12.3-.891-.537-5.064-3.034a.447.447,0,0,1-.222-.394.455.455,0,0,1,.228-.391l13.609-7.857,2.68-1.545a.449.449,0,0,1,.618.167.455.455,0,0,1-.163.622l-2.258,1.3-13.362,7.714,4.834,2.9.895.534,20.763,12.442A.467.467,0,0,1,364.746,259.142Z" transform="translate(-336.68 -233.006)"/></g><g transform="translate(63.411 37.076)"><path class="a" d="M339.969,230.055l-1.78,1.046-18.766,11.042,7.669,4.429a.455.455,0,0,1,0,.788l-15.614,9.014-1.513.872-.909-.524,1.513-.873,15.386-8.884-7.662-4.423a.456.456,0,0,1,0-.787L337.241,230.6l2.267-1.333a.455.455,0,1,1,.461.785Z" transform="translate(-309.057 -229.207)"/></g><g transform="translate(40.204 17.373)"><path class="a" d="M317.614,207.833l-2.916,1.686-14.65,8.457,11.416,6.59a.455.455,0,0,1,0,.788l-26.159,15.1-1.512.876-.91-.525,1.513-.872,25.932-14.974-11.415-6.589a.456.456,0,0,1,0-.788l14.99-8.654,3.258-1.882a.455.455,0,1,1,.455.787Z" transform="translate(-282.883 -206.984)"/></g><g transform="translate(100.337 74.711)"><path class="a" d="M390.758,272.5l-1.95,1.124-13.185,7.612a.454.454,0,0,1-.455,0l-9.921-5.73-12.119,7-1.516.876-.909-.528,1.515-.873,12.8-7.389a.447.447,0,0,1,.454,0l9.921,5.729,12.416-7.166,2.491-1.44a.455.455,0,1,1,.456.788Z" transform="translate(-350.704 -271.653)"/></g><g transform="translate(21.011 19.815)"><path class="a" d="M296.74,210.588l-1.925,1.109h0l-31.151,17.99-1.516.873-.909-.525,1.512-.872,31.055-17.93,2.482-1.434a.455.455,0,1,1,.455.788Z" transform="translate(-261.236 -209.739)"/></g><g transform="translate(11.208 2.193)"><path class="a" d="M306.463,190.712l-1.443.834L252.6,221.776l-1.516.872-.909-.524,1.513-.873,52.2-30.105,2.119-1.222a.455.455,0,0,1,.455.787Z" transform="translate(-250.18 -189.863)"/></g><g transform="translate(47.955 35.132)"><path class="a" d="M327.545,227.863,325.4,229.1,294.05,247.2l-1.516.873-.909-.525,1.512-.872,31.27-18.054,2.683-1.549a.455.455,0,0,1,.455.788Z" transform="translate(-291.625 -227.014)"/></g><g transform="translate(30.613 34.724)"><path class="a" d="M291.353,227.4l-3.419,1.973-13.447,7.763-1.512.873-.91-.525,1.513-.872,13.407-7.739,3.913-2.261a.455.455,0,1,1,.455.787Z" transform="translate(-272.066 -226.553)"/></g><g transform="translate(44.834 33.842)"><ellipse class="a" cx="3.466" cy="2.001" rx="3.466" ry="2.001"/></g><g transform="translate(136.634 72.925)"><path class="a" d="M392.657,270.225c-1.354.781-1.354,2.048,0,2.829a5.413,5.413,0,0,0,4.9,0c1.353-.781,1.353-2.048,0-2.829A5.414,5.414,0,0,0,392.657,270.225Z" transform="translate(-391.642 -269.639)"/></g><g transform="translate(90.89 35.265)"><path class="a" d="M341.065,227.751c-1.354.782-1.354,2.049,0,2.83a5.415,5.415,0,0,0,4.9,0c1.353-.781,1.353-2.048,0-2.83A5.415,5.415,0,0,0,341.065,227.751Z" transform="translate(-340.05 -227.165)"/></g><g transform="translate(114.724 49.05)"><path class="a" d="M367.946,243.3c-1.354.781-1.354,2.049,0,2.83a5.421,5.421,0,0,0,4.9,0c1.353-.781,1.353-2.049,0-2.83A5.415,5.415,0,0,0,367.946,243.3Z" transform="translate(-366.931 -242.711)"/></g><g transform="translate(68.895 44.971)"><path class="a" d="M364.9,244.377a.456.456,0,0,1-.622.167l-2.583-1.491-6.863-3.961-13.5,7.794-.9.521-22.764,13.143-1.515.873-.906-.525,1.512-.873,22.782-13.156.9-.518,14.165-8.178a.453.453,0,0,1,.455,0l7.548,4.359,2.124,1.225A.458.458,0,0,1,364.9,244.377Z" transform="translate(-315.242 -238.111)"/></g><g transform="translate(0 3.412)"><path class="a" d="M274.293,192.087l-1.776,1.045-18.772,11.043,7.669,4.428a.455.455,0,0,1,0,.788l-15.983,9.227-1.513.872-5.7,3.289a.438.438,0,0,1-.224.063.456.456,0,0,1-.231-.849l5.244-3.028,1.515-.873,15.753-9.1-7.662-4.425a.464.464,0,0,1-.228-.392.455.455,0,0,1,.224-.394l18.951-11.152,2.271-1.333a.455.455,0,1,1,.46.785Z" transform="translate(-237.539 -191.239)"/></g><g transform="translate(33.321 1.6)"><path class="a" d="M276.136,189.781c-1.355.782-1.355,2.048,0,2.83a5.413,5.413,0,0,0,4.9,0c1.353-.782,1.353-2.048,0-2.83A5.419,5.419,0,0,0,276.136,189.781Z" transform="translate(-275.12 -189.195)"/></g><g transform="translate(79.947 33.468)"><path class="a" d="M328.723,225.723c-1.354.782-1.354,2.049,0,2.83a5.413,5.413,0,0,0,4.9,0c1.354-.781,1.354-2.048,0-2.83A5.419,5.419,0,0,0,328.723,225.723Z" transform="translate(-327.708 -225.137)"/></g><g transform="translate(70.846 16.408)"><ellipse class="a" cx="3.466" cy="2.001" rx="3.466" ry="2.001"/></g><g transform="translate(63.791)"><path class="a" d="M310.5,187.976c-1.354.782-1.354,2.048,0,2.83a5.42,5.42,0,0,0,4.9,0c1.353-.782,1.353-2.048,0-2.83A5.42,5.42,0,0,0,310.5,187.976Z" transform="translate(-309.486 -187.39)"/></g><g transform="translate(101.221 38.997)"><path class="a" d="M352.717,231.96c-1.354.781-1.354,2.048,0,2.83a5.421,5.421,0,0,0,4.9,0c1.354-.782,1.354-2.049,0-2.83A5.415,5.415,0,0,0,352.717,231.96Z" transform="translate(-351.702 -231.374)"/></g><g transform="translate(52.733 18.001)"><path class="a" d="M298.029,208.278c-1.354.782-1.354,2.049,0,2.83a5.413,5.413,0,0,0,4.9,0c1.354-.781,1.354-2.048,0-2.83A5.419,5.419,0,0,0,298.029,208.278Z" transform="translate(-297.014 -207.692)"/></g></g></g></g><g transform="translate(147.955 40.465)"><g transform="translate(0 84.881)"><g class="g"><g class="g" transform="translate(7.402 72.056)"><path class="b" d="M179.485,224.768l-7.528-4.375a3.849,3.849,0,0,1-1.674-2.926l7.528,4.375A3.846,3.846,0,0,0,179.485,224.768Z" transform="translate(-170.283 -217.467)"/><g class="v"><g class="g"><path class="b" d="M179.486,224.771l-7.528-4.375a3.836,3.836,0,0,1-1.67-2.9l7.528,4.375A3.836,3.836,0,0,0,179.486,224.771Z" transform="translate(-170.284 -217.47)"/><path class="b" d="M177.815,221.869l-7.528-4.375,0-.027,7.528,4.375Z" transform="translate(-170.283 -217.467)"/></g></g></g><g transform="translate(14.429)"><path class="c" d="M186.86,137.019l7.528,4.375c-2.2-1.277-5.242-1.117-8.652.851l-7.528-4.375C181.618,135.9,184.664,135.742,186.86,137.019Z" transform="translate(-178.209 -136.198)"/><g class="w"><g class="g"><path class="c" d="M185.737,142.245l-7.528-4.375c3.409-1.968,6.455-2.128,8.651-.851l7.528,4.375C192.191,140.117,189.147,140.277,185.737,142.245Z" transform="translate(-178.209 -136.198)"/></g></g></g><g transform="translate(0.168 26.165)"><path class="b" d="M176.886,215.975l-7.528-4.374-7.234-45.892,7.528,4.375Z" transform="translate(-162.124 -165.708)"/></g><g transform="translate(12.134 1.672)"><path class="x" d="M183.149,143.784l-7.528-4.375,2.295-1.325,7.528,4.375Z" transform="translate(-175.621 -138.084)"/></g><g class="g" transform="translate(0 2.997)"><path class="x" d="M169.631,167.121l-7.529-4.375c-1.231-7.81,4.465-18.837,11.967-23.168l7.528,4.375C174.1,148.284,168.4,159.312,169.631,167.121Z" transform="translate(-161.935 -139.578)"/><g class="y"><g class="g" transform="translate(0)"><path class="d" d="M169.631,169.094l-7.529-4.375a18.35,18.35,0,0,1,.654-7.737l7.528,4.375A18.333,18.333,0,0,0,169.631,169.094Z" transform="translate(-161.935 -141.551)"/><path class="d" d="M170.39,160.237l-7.528-4.375a28.952,28.952,0,0,1,4.255-8.758l7.528,4.375A28.973,28.973,0,0,0,170.39,160.237Z" transform="translate(-162.04 -140.431)"/><path class="d" d="M175.189,150.8l-7.528-4.375a25.1,25.1,0,0,1,5.031-5.31l7.528,4.374A25.106,25.106,0,0,0,175.189,150.8Z" transform="translate(-162.584 -139.752)"/><path class="x" d="M180.863,145.315l-7.528-4.374a18.415,18.415,0,0,1,2.027-1.363l7.528,4.375A18.523,18.523,0,0,0,180.863,145.315Z" transform="translate(-163.227 -139.578)"/></g></g></g><g transform="translate(7.528 4.374)"><path class="a" d="M184.854,142.8c7.5-4.331,13.238.1,12.056,9.3l-6.948,54.079a13.223,13.223,0,0,1-6.05,9.43c-2.754,1.59-5.512,1.2-6.084-2.424L170.594,167.3c-1.232-7.809,4.464-18.837,11.966-23.168Z" transform="translate(-170.426 -141.132)"/></g></g></g><g transform="translate(9.368 90.491)"><g class="g"><g class="g" transform="translate(12.206)"><path class="e" d="M194.978,143.351l5.243,3.047c-2.225-1.294-5.307-1.112-8.709.853l-5.244-3.047C189.67,142.24,192.752,142.059,194.978,143.351Z" transform="translate(-186.268 -142.526)"/><g class="z"><g class="g"><path class="e" d="M191.512,147.252l-5.244-3.047c3.4-1.964,6.484-2.146,8.71-.853l5.243,3.047C198,145.105,194.914,145.287,191.512,147.252Z" transform="translate(-186.268 -142.526)"/></g></g></g><g transform="translate(10.296 8.697)"><path class="e" d="M192.482,153.485c4.632-2.677,8.408-.522,8.421,4.8s-3.734,11.819-8.366,14.491-8.412.527-8.424-4.8S187.85,156.156,192.482,153.485Z" transform="translate(-184.113 -152.335)"/></g><g class="g" transform="translate(0 1.679)"><path class="e" d="M181.315,176.46l-5.243-3.047c-2.2-1.277-3.56-3.992-3.571-7.851-.022-7.771,5.444-17.238,12.206-21.142l5.244,3.047c-6.762,3.9-12.229,13.371-12.206,21.142C177.755,172.468,179.118,175.183,181.315,176.46Z" transform="translate(-172.501 -144.419)"/><g class="aa"><g class="g"><path class="n" d="M181.322,179.323l-5.243-3.047c-1.952-1.134-3.245-3.4-3.517-6.6l5.244,3.047C178.078,175.921,179.37,178.189,181.322,179.323Z" transform="translate(-172.508 -147.282)"/><path class="n" d="M177.8,170.106l-5.244-3.047q-.052-.605-.054-1.253c-.019-6.7,4.042-14.661,9.5-19.23l5.244,3.047c-5.455,4.569-9.515,12.53-9.5,19.23Q177.746,169.5,177.8,170.106Z" transform="translate(-172.501 -144.663)"/><path class="n" d="M188.455,149.378l-5.244-3.047a19.13,19.13,0,0,1,2.71-1.912l5.244,3.047A19.058,19.058,0,0,0,188.455,149.378Z" transform="translate(-173.715 -144.419)"/></g></g></g><g class="g" transform="translate(5.244 3.047)"><path class="e" d="M191.836,152.763l-1.215-5.121c6.762-3.9,12.26-.768,12.283,7s-5.44,17.233-12.2,21.137-12.264.773-12.286-7,5.444-17.238,12.206-21.142l1.215,5.121c-4.632,2.671-8.388,9.177-8.369,14.5s3.791,7.474,8.424,4.8,8.384-9.17,8.366-14.491S196.468,150.086,191.836,152.763Z" transform="translate(-178.415 -145.962)"/><g class="ab"><g class="g"><path class="ac" d="M191.836,152.763l-1.215-5.121c6.762-3.9,12.26-.768,12.283,7s-5.44,17.233-12.2,21.137-12.264.773-12.286-7,5.444-17.238,12.206-21.142l1.215,5.121c-4.632,2.671-8.388,9.177-8.369,14.5s3.791,7.474,8.424,4.8,8.384-9.17,8.366-14.491S196.468,150.086,191.836,152.763Z" transform="translate(-178.415 -145.962)"/></g></g></g></g></g><g transform="translate(11.186 6.81)"><path class="t" d="M189.579,92.955,175.99,48.587Z" transform="translate(-174.714 -48.196)"/><rect class="p" width="2.67" height="46.403" transform="translate(0 0.782) rotate(-17.028)"/></g><g transform="translate(13.996 81.133)"><g transform="translate(11.771 86.968)"><path class="a" d="M207.467,252.849A35.417,35.417,0,0,1,191,230.39c.969,4.236,4.284,8.45,9.941,11.854,14.133,8.506,37.532,8.743,52.263.529,6.326-3.528,10.025-8.04,11.067-12.714a35.3,35.3,0,0,1-7.93,15.6,36.927,36.927,0,0,1-14.071,9.889C231.063,260.048,217.4,258.987,207.467,252.849Z" transform="translate(-190.997 -230.059)"/></g><g transform="translate(12.178 2.356)"><path class="b" d="M253.492,141c13.778,8.293,13.3,21.505-1.055,29.514s-37.172,7.777-50.949-.516-13.3-21.505,1.056-29.513S239.714,132.71,253.492,141Z" transform="translate(-191.456 -134.629)"/></g><g class="g" transform="translate(0.632 38.357)"><path class="h" d="M189.545,224.055l-11.111-48.546c1.3,5.66,5.6,11.135,12.954,15.559,18.364,11.053,48.77,11.361,67.91.687,8.221-4.584,13.027-10.447,14.381-16.522l-10.836,48.61c-1.042,4.674-4.741,9.187-11.067,12.715-14.731,8.214-38.13,7.977-52.263-.529C193.856,232.624,190.542,228.411,189.545,224.055Z" transform="translate(-178.434 -175.233)"/></g><path class="d" d="M195.08,139.412c18.762-10.185,45.328-9.882,63.168.718-1.592-.958-3.816-.883-6.313.51-13.778-8.292-36.588-8.523-50.948-.516s-14.833,21.222-1.056,29.514,36.588,8.522,50.949.515,14.833-21.221,1.055-29.513c2.5-1.393,4.721-1.467,6.313-.51,3.735,2.415,9.382,6.065,13.309,13.746a24.932,24.932,0,0,1,2.076,16.337c-1.4,6.234-6.2,12.091-14.414,16.671-19.141,10.673-49.546,10.366-67.91-.687-7.343-4.419-11.65-9.888-12.95-15.542a24.784,24.784,0,0,1-.453-8.452,25.4,25.4,0,0,1,2.453-8.176C181.724,151.473,185.355,144.691,195.08,139.412Z" transform="translate(-177.721 -131.972)"/></g><g transform="translate(7.45 20.014)"><g transform="translate(27.171 5.04)"><path class="h" d="M248.566,73.61c10.568,6.361,10.205,16.5-.809,22.639s-28.512,5.964-39.08-.4-10.205-16.5.81-22.638S238,67.25,248.566,73.61Z" transform="translate(-200.982 -68.722)"/></g><g class="g" transform="translate(0.023 51.157)"><path class="a" d="M191.245,155.345c-17.01-10.528-20.745-24.458-20.882-34.29.023,7.9,5.094,15.79,15.277,21.919,20.981,12.628,55.716,12.98,77.585.786,11.254-6.276,16.907-14.652,16.883-23.024a36.886,36.886,0,0,1-2.539,13.564,40.652,40.652,0,0,1-6.071,10.417A48.988,48.988,0,0,1,251,159.351C228.408,168.148,204.71,163.678,191.245,155.345Z" transform="translate(-170.363 -120.735)"/></g><path class="b" d="M192.812,70.984a66.853,66.853,0,0,1,33.245-7.94c12.424.159,23.576,3.116,33.145,8.788-3.583-2.156-8.584-1.948-14.109,1.133-10.568-6.36-28.065-6.537-39.08-.395s-11.378,16.277-.81,22.638,28.065,6.537,39.08.4,11.377-16.278.809-22.639c5.526-3.081,10.526-3.289,14.109-1.133,5.044,3.257,20.392,13.165,20.881,34.289.024,8.373-5.628,16.749-16.883,23.024-21.868,12.194-56.6,11.842-77.585-.785-10.183-6.129-15.254-14.023-15.277-21.92a37.915,37.915,0,0,1,1.584-10.8,38.481,38.481,0,0,1,5.23-10.778A46.29,46.29,0,0,1,192.812,70.984Z" transform="translate(-170.337 -63.038)"/><g transform="translate(0.001 29.963)"><path class="a" d="M236,141.26c-17.769,2.088-36.916-.958-50.39-9.068-10.125-6.095-15.2-13.934-15.276-21.786a19.692,19.692,0,0,1,5.619-13.574c.071,7.042,4.619,14.074,13.7,19.54,12.085,7.273,29.258,10.006,45.195,8.133A145.424,145.424,0,0,1,236,141.26Z" transform="translate(-170.338 -96.832)"/></g><g class="g" transform="translate(0 43.084)"><path class="d" d="M170.36,120.023l-.023-8.073c.023,7.9,5.094,15.79,15.277,21.92,20.981,12.627,55.717,12.979,77.585.785,11.255-6.276,16.907-14.651,16.883-23.024l.023,8.073c.024,8.373-5.629,16.749-16.883,23.024-21.869,12.194-56.6,11.842-77.586-.786C175.454,135.813,170.383,127.919,170.36,120.023Z" transform="translate(-170.337 -111.63)"/></g><g transform="translate(3.849 42.622)"><path class="n" d="M179.746,120.2c-1.079,3.048-2.927,3.252-4.206.465-2.137-4.655.04-10.279,2.812-9.476a2.159,2.159,0,0,1,1.05.744C181.178,114.454,180.221,118.856,179.746,120.2Z" transform="translate(-174.678 -111.109)"/><path class="n" d="M214.114,135.977c-.811,4.578-6.562,5.347-9.467,1.268-3.033-4.259.291-9.166,4.536-8.639.156.019.363.065.518.093A6.47,6.47,0,0,1,214.114,135.977Z" transform="translate(-177.942 -113.088)"/></g></g><path class="p" d="M272.186,114.338c0-2.71-1.9-3.808-4.25-2.453a9.4,9.4,0,0,0-4.249,7.36c0,2.71,1.9,3.808,4.25,2.453A9.393,9.393,0,0,0,272.186,114.338Z" transform="translate(-173.469 -48.495)"/><g transform="translate(93.686 43.774)"><path class="t" d="M269.1,114.588l30.975-23.247Z" transform="translate(-267.769 -90.006)"/><path class="p" d="M268.934,115.752a1.336,1.336,0,0,1-.8-2.4L299.107,90.1a1.335,1.335,0,0,1,1.6,2.135l-30.975,23.247A1.326,1.326,0,0,1,268.934,115.752Z" transform="translate(-267.598 -89.835)"/></g><path class="n" d="M311.066,88.539a7.2,7.2,0,1,0-7.2,7.2A7.2,7.2,0,0,0,311.066,88.539Z" transform="translate(-177.208 -45.098)"/><path class="n" d="M181.532,47.666a7.2,7.2,0,1,0-7.2,7.2A7.2,7.2,0,0,0,181.532,47.666Z" transform="translate(-162.524 -40.465)"/><g transform="translate(84.172 116.343)"><g class="g"><g class="g" transform="translate(12.206)"><path class="e" d="M279.346,172.509l5.243,3.047c-2.225-1.294-5.307-1.112-8.709.852l-5.244-3.047C274.038,171.4,277.12,171.216,279.346,172.509Z" transform="translate(-270.636 -171.683)"/><g class="ad"><g class="g"><path class="n" d="M275.88,176.409l-5.244-3.047c3.4-1.964,6.484-2.146,8.71-.852l5.243,3.047C282.364,174.263,279.282,174.445,275.88,176.409Z" transform="translate(-270.636 -171.683)"/></g></g></g><g transform="translate(10.296 8.698)"><path class="e" d="M276.85,182.643c4.632-2.677,8.409-.522,8.421,4.8s-3.734,11.819-8.366,14.49-8.412.527-8.424-4.8S272.218,185.314,276.85,182.643Z" transform="translate(-268.481 -181.493)"/></g><g class="g" transform="translate(0 1.679)"><path class="e" d="M265.684,205.617l-5.244-3.047c-2.2-1.277-3.56-3.993-3.571-7.851-.022-7.771,5.444-17.238,12.206-21.143l5.244,3.047c-6.762,3.9-12.229,13.372-12.206,21.143C262.123,201.625,263.486,204.34,265.684,205.617Z" transform="translate(-256.869 -173.576)"/><g class="ae"><g class="g"><path class="n" d="M265.691,208.48l-5.244-3.047c-1.952-1.134-3.245-3.4-3.517-6.6l5.243,3.046C262.446,205.078,263.739,207.346,265.691,208.48Z" transform="translate(-256.876 -176.439)"/><path class="n" d="M262.166,199.263l-5.243-3.046q-.052-.605-.054-1.253c-.019-6.7,4.042-14.661,9.5-19.231l5.243,3.047c-5.454,4.57-9.515,12.531-9.5,19.231C262.114,198.442,262.132,198.86,262.166,199.263Z" transform="translate(-256.869 -173.82)"/><path class="n" d="M272.823,178.535l-5.243-3.047a19.151,19.151,0,0,1,2.71-1.912l5.244,3.047A19.134,19.134,0,0,0,272.823,178.535Z" transform="translate(-258.083 -173.576)"/></g></g></g><g class="g" transform="translate(5.244 3.047)"><path class="e" d="M276.2,181.92l-1.215-5.122c6.762-3.9,12.26-.767,12.283,7s-5.441,17.232-12.2,21.137-12.264.772-12.286-7,5.444-17.239,12.206-21.143l1.215,5.122c-4.632,2.671-8.388,9.176-8.369,14.5s3.791,7.474,8.424,4.8,8.384-9.169,8.366-14.49S280.836,179.244,276.2,181.92Z" transform="translate(-262.783 -175.12)"/><g class="af"><g class="g"><path class="ac" d="M276.2,181.92l-1.215-5.122c6.762-3.9,12.26-.767,12.283,7s-5.441,17.232-12.2,21.137-12.264.772-12.286-7,5.444-17.239,12.206-21.143l1.215,5.122c-4.632,2.671-8.388,9.176-8.369,14.5s3.791,7.474,8.424,4.8,8.384-9.169,8.366-14.49S280.836,179.244,276.2,181.92Z" transform="translate(-262.783 -175.12)"/></g></g></g></g></g><g transform="translate(88.546 118.706)"><g class="g"><g class="g" transform="translate(7.401 72.056)"><path class="c" d="M279.351,262.918l-7.528-4.375a3.852,3.852,0,0,1-1.675-2.926l7.528,4.376A3.851,3.851,0,0,0,279.351,262.918Z" transform="translate(-270.149 -255.617)"/><g class="ag"><g class="g"><path class="b" d="M279.352,262.921l-7.528-4.375a3.834,3.834,0,0,1-1.67-2.9l7.528,4.375A3.836,3.836,0,0,0,279.352,262.921Z" transform="translate(-270.15 -255.62)"/><path class="c" d="M277.682,260.019l-7.528-4.375-.005-.027,7.528,4.376Z" transform="translate(-270.149 -255.617)"/></g></g></g><g transform="translate(14.429)"><path class="c" d="M286.726,175.169l7.528,4.375c-2.2-1.276-5.242-1.117-8.651.851l-7.528-4.375C281.485,174.052,284.53,173.892,286.726,175.169Z" transform="translate(-278.075 -174.348)"/><g class="ah"><g class="g"><path class="b" d="M285.6,180.395l-7.528-4.375c3.41-1.968,6.455-2.128,8.651-.851l7.528,4.375C292.058,178.268,289.013,178.427,285.6,180.395Z" transform="translate(-278.075 -174.348)"/></g></g></g><g transform="translate(0.168 26.165)"><path class="b" d="M276.752,254.125l-7.528-4.375-7.234-45.891,7.528,4.374Z" transform="translate(-261.991 -203.859)"/></g><g transform="translate(12.134 1.672)"><path class="b" d="M283.015,181.934l-7.528-4.374,2.294-1.325,7.528,4.375Z" transform="translate(-275.487 -176.234)"/></g><g class="g" transform="translate(0 2.998)"><path class="x" d="M269.5,205.271,261.97,200.9c-1.232-7.81,4.465-18.838,11.966-23.168l7.529,4.374C273.962,186.434,268.266,197.462,269.5,205.271Z" transform="translate(-261.802 -177.729)"/><g class="ai"><g class="g" transform="translate(0)"><path class="d" d="M269.5,207.243l-7.528-4.374a18.353,18.353,0,0,1,.654-7.738l7.528,4.375A18.351,18.351,0,0,0,269.5,207.243Z" transform="translate(-261.802 -179.702)"/><path class="d" d="M270.257,198.387l-7.528-4.375a28.93,28.93,0,0,1,4.255-8.758l7.528,4.375A28.973,28.973,0,0,0,270.257,198.387Z" transform="translate(-261.907 -178.582)"/><path class="d" d="M275.056,188.95l-7.528-4.375a25.075,25.075,0,0,1,5.03-5.31l7.528,4.375A25.1,25.1,0,0,0,275.056,188.95Z" transform="translate(-262.451 -177.903)"/><path class="d" d="M280.729,183.466l-7.528-4.375a18.45,18.45,0,0,1,2.027-1.362l7.528,4.374A18.42,18.42,0,0,0,280.729,183.466Z" transform="translate(-263.094 -177.729)"/></g></g></g><g transform="translate(7.528 4.375)"><path class="a" d="M284.721,180.954c7.5-4.33,13.238.1,12.055,9.3l-6.947,54.08a13.221,13.221,0,0,1-6.05,9.429c-2.754,1.59-5.513,1.2-6.085-2.423l-7.234-45.893c-1.231-7.809,4.465-18.837,11.967-23.168Z" transform="translate(-270.292 -179.282)"/></g></g></g></g></g></g></svg>