<svg xmlns="http://www.w3.org/2000/svg" xmlns:xlink="http://www.w3.org/1999/xlink" width="416" height="336" viewBox="0 0 416 336"><defs><style>.a{clip-path:url(#b);}.b{fill:#dedede;opacity:0.4;}.c{opacity:0.54;}.d{fill:#64a2c2;}.e{fill:#e4f5ff;}.f{fill:#e5e4e4;}.g{fill:#45809f;}.h{fill:#3a718e;}.i{fill:#b3e0f9;}.j{fill:#5498bf;}.k{fill:#254658;}.l{fill:#3a7798;}.m{fill:#99d0de;}.n{fill:#e8fbff;}.o{fill:#57b746;}.p,.t{fill:#fff;}.q{fill:#8bc9d9;}.r{opacity:0.15;mix-blend-mode:multiply;isolation:isolate;}.s{fill:#ffbe8f;}.t{font-size:5px;font-family:SegoeUI, Segoe UI;}.u{fill:#003c5e;}.v{fill:#305970;}.w{fill:#005c91;}.x{fill:#329820;}.y{fill:#3a667e;}.z{fill:#76c568;}.aa{fill:#133447;}</style><clipPath id="b"><rect width="416" height="336"/></clipPath></defs><g id="a" class="a"><g transform="translate(7.535 -58.847)"><g transform="translate(15.301 78.615)"><ellipse class="b" cx="43.616" cy="7.177" rx="43.616" ry="7.177" transform="translate(1.918 190.387)"/><ellipse class="b" cx="43.616" cy="7.177" rx="43.616" ry="7.177" transform="translate(283.096 187.286)"/><ellipse class="b" cx="36.467" cy="7.177" rx="36.467" ry="7.177" transform="translate(270.722 282.111)"/><path class="b" d="M381.346,424.406c0,3.127-12.882,5.662-28.771,5.662s-28.771-2.535-28.771-5.662,12.882-5.662,28.771-5.662S381.346,421.279,381.346,424.406Z" transform="translate(-82.489 -152.691)"/><ellipse class="b" cx="36.467" cy="7.177" rx="36.467" ry="7.177" transform="translate(24.317 251.867)"/><ellipse class="b" cx="36.467" cy="7.177" rx="36.467" ry="7.177" transform="translate(177.7 275.5)"/><ellipse class="b" cx="108.652" cy="13.441" rx="108.652" ry="13.441" transform="translate(84.341 241.987)"/><g class="c" transform="translate(0 115.775)"><path class="d" d="M90.074,268.17a33,33,0,0,0-2.561-12.679l7.88-3.3a41.508,41.508,0,0,0-9.081-13.467l-6.021,6.063a33.144,33.144,0,0,0-10.759-7.142l3.249-7.907a41.408,41.408,0,0,0-15.821-3.112h-.1l.051,8.543a33.01,33.01,0,0,0-12.709,2.55l-3.3-7.884A41.518,41.518,0,0,0,27.428,238.9l6.056,6.026a33.169,33.169,0,0,0-7.152,10.752l-7.9-3.256a41.426,41.426,0,0,0-3.128,15.86l0,.2,7.839-.136h.7a33.009,33.009,0,0,0,2.537,12.662L18.493,284.3a41.489,41.489,0,0,0,9.055,13.487l6.031-6.051A33.147,33.147,0,0,0,44.325,298.9l-3.264,7.9a41.408,41.408,0,0,0,15.9,3.144h.405l.4-.038-.776-8.5V301.4a33,33,0,0,0,12.663-2.525l3.281,7.892a41.511,41.511,0,0,0,13.493-9.039l-6.043-6.038a33.166,33.166,0,0,0,7.175-10.739l7.9,3.27a41.553,41.553,0,0,0,3.159-16.027ZM56.96,284.125A15.841,15.841,0,1,1,72.8,268.283,15.841,15.841,0,0,1,56.96,284.125Z" transform="translate(-15.301 -226.624)"/><path class="e" d="M59.338,237.544a33.117,33.117,0,1,0,33.117,33.117A33.117,33.117,0,0,0,59.338,237.544Zm0,48.959A15.841,15.841,0,1,1,75.18,270.661,15.841,15.841,0,0,1,59.338,286.5Z" transform="translate(-17.679 -229.002)"/><circle class="f" cx="9.712" cy="9.712" r="9.712" transform="translate(27.924 41.659) rotate(-45)"/></g><g class="c" transform="translate(285.508 113.635)"><path class="d" d="M454.252,270a32.991,32.991,0,0,0-.6-12.921l8.29-2.067a41.5,41.5,0,0,0-6.928-14.691l-6.872,5.077a33.156,33.156,0,0,0-9.549-8.694L443,229.385a41.409,41.409,0,0,0-15.164-5.482l-.1-.015-1.248,8.452a33.021,33.021,0,0,0-12.95.587l-2.06-8.293a41.536,41.536,0,0,0-14.7,6.914l5.07,6.876a33.162,33.162,0,0,0-8.7,9.54l-7.317-4.419a41.417,41.417,0,0,0-5.5,15.2l-.029.2L388.07,260l.695.106a33,33,0,0,0,.583,12.9l-8.3,2.049a41.478,41.478,0,0,0,6.9,14.706l6.881-5.063a33.144,33.144,0,0,0,9.532,8.713l-4.427,7.312a41.42,41.42,0,0,0,15.237,5.524l.4.062.405.023.526-8.517v-.006a32.986,32.986,0,0,0,12.9-.571l2.043,8.3a41.508,41.508,0,0,0,14.71-6.883l-5.055-6.886a33.176,33.176,0,0,0,8.724-9.524l7.307,4.433a41.529,41.529,0,0,0,5.558-15.36Zm-36.238,17.785a22.974,22.974,0,1,1,26.2-19.215A22.975,22.975,0,0,1,418.013,287.785Z" transform="translate(-380.302 -223.888)"/><path class="e" d="M428.79,234.593a33.117,33.117,0,1,0,27.7,37.766A33.116,33.116,0,0,0,428.79,234.593Zm-8.526,55.439a22.974,22.974,0,1,1,26.2-19.215A22.975,22.975,0,0,1,420.264,290.032Z" transform="translate(-382.552 -226.135)"/></g><g transform="translate(40.465)"><path class="g" d="M298.475,369.151H164.117l8.352-35.411H290.123Z" transform="translate(-88.176 -134.178)"/><path class="d" d="M299.751,398.872H152.174a12.582,12.582,0,0,1-12.544-12.544h0a12.582,12.582,0,0,1,12.544-12.544H299.751A12.582,12.582,0,0,1,312.3,386.327h0A12.582,12.582,0,0,1,299.751,398.872Z" transform="translate(-82.843 -142.899)"/><path class="h" d="M299.751,390.468H152.174a12.575,12.575,0,0,1-11.385-7.323,12.417,12.417,0,0,0-1.159,5.221h0a12.582,12.582,0,0,0,12.544,12.544H299.751A12.582,12.582,0,0,0,312.3,388.366h0a12.416,12.416,0,0,0-1.159-5.221A12.575,12.575,0,0,1,299.751,390.468Z" transform="translate(-82.843 -144.938)"/><path class="i" d="M253.07,381.121H176.576a1.622,1.622,0,0,1-1.618-1.617h0a1.622,1.622,0,0,1,1.618-1.617H253.07a1.621,1.621,0,0,1,1.617,1.617h0A1.621,1.621,0,0,1,253.07,381.121Z" transform="translate(-90.537 -143.792)"/><path class="j" d="M314.84,381.121h-27.6a1.621,1.621,0,0,1-1.617-1.617h0a1.621,1.621,0,0,1,1.617-1.617h27.6a1.621,1.621,0,0,1,1.617,1.617h0A1.621,1.621,0,0,1,314.84,381.121Z" transform="translate(-114.639 -143.792)"/><rect class="k" width="286.239" height="175.681" rx="8.229" transform="translate(0 25.794)"/><rect class="l" width="275.638" height="140.848" rx="6.967" transform="translate(5.301 37.153)"/><rect class="i" width="270.733" height="136.069" rx="6.787" transform="translate(7.753 39.542)"/><path class="m" d="M97.1,265.209H333.27l6.953-135.971a5.073,5.073,0,0,0-.973-.1H91.123a5.088,5.088,0,0,0-.974.1Z" transform="translate(-72.067 -89.619)"/><circle class="n" cx="6.574" cy="6.574" r="6.574" transform="translate(134.353 186.588) rotate(-25.559)"/><path class="o" d="M253.226,319.865a4.47,4.47,0,1,1-4.47-4.471A4.47,4.47,0,0,1,253.226,319.865Z" transform="translate(-105.636 -130.182)"/><rect class="p" width="236.123" height="175.611" transform="translate(25.058)"/><rect class="k" width="17.571" height="17.571" rx="5.204" transform="translate(146.541 105.529)"/><rect class="o" width="17.571" height="17.571" rx="5.204" transform="translate(175.521 105.529)"/><rect class="o" width="17.571" height="17.571" rx="5.204" transform="translate(233.481 105.529)"/><rect class="k" width="17.571" height="17.571" rx="5.204" transform="translate(204.501 105.529)"/><path class="o" d="M189.878,274.448H177.572l-4.717,22.408h22.408Z" transform="translate(-90.079 -121.265)"/><rect class="k" width="26.307" height="68.014" transform="translate(35.442 107.576)"/><path class="o" d="M168.3,292.908H141.991l8.99-36.585h12.167Z" transform="translate(-83.357 -117.317)"/><rect class="o" width="104.658" height="48.481" transform="translate(35.164 48.566)"/><circle class="p" cx="14.999" cy="14.999" r="14.999" transform="translate(44.421 57.808)"/><path class="k" d="M139.156,178.234h0a1.911,1.911,0,0,1-2.694,0l-5.429-5.429a1.911,1.911,0,0,1,0-2.694h0a1.911,1.911,0,0,1,2.694,0l5.429,5.429A1.911,1.911,0,0,1,139.156,178.234Z" transform="translate(-80.85 -98.42)"/><path class="k" d="M138.077,177h0a1.911,1.911,0,0,1,0-2.695l9.418-9.415a1.911,1.911,0,0,1,2.694,0h0a1.911,1.911,0,0,1,0,2.695L140.771,177A1.911,1.911,0,0,1,138.077,177Z" transform="translate(-82.384 -97.283)"/><rect class="i" width="104.658" height="48.481" transform="translate(146.55 48.566)"/><rect class="k" width="229.75" height="11.081" transform="translate(28.245 3.436)"/><rect class="q" width="129.662" height="4.639" transform="translate(78.289 6.657)"/><g transform="translate(227.474 5.521)"><g transform="translate(20.804 0.38)"><path class="p" d="M384.586,92.16h0a.513.513,0,0,1,0-.724l5.127-5.127a.513.513,0,0,1,.724,0h0a.513.513,0,0,1,0,.724l-5.127,5.127A.513.513,0,0,1,384.586,92.16Z" transform="translate(-384.437 -86.159)"/><path class="p" d="M390.438,92.16h0a.513.513,0,0,0,0-.724l-5.127-5.127a.513.513,0,0,0-.724,0h0a.513.513,0,0,0,0,.724l5.127,5.127A.513.513,0,0,0,390.438,92.16Z" transform="translate(-384.437 -86.159)"/></g><g transform="translate(10.238)"><path class="p" d="M374.384,86.455a2.673,2.673,0,1,1-2.674,2.674,2.676,2.676,0,0,1,2.674-2.674m0-.782a3.455,3.455,0,1,0,3.455,3.456,3.456,3.456,0,0,0-3.455-3.456Z" transform="translate(-370.928 -85.673)"/></g><g transform="translate(0 5.581)"><path class="p" d="M364.462,93.59h-6.231a.391.391,0,0,1,0-.782h6.231a.391.391,0,1,1,0,.782Z" transform="translate(-357.84 -92.808)"/></g></g><g transform="translate(31.936 10.879)"><path class="p" d="M114.481,93.305h-6.23a.391.391,0,0,1,0-.782h6.23a.391.391,0,1,1,0,.782Z" transform="translate(-107.86 -92.523)"/></g><g transform="translate(31.936 8.585)"><path class="p" d="M114.481,90.372h-6.23a.391.391,0,0,1,0-.782h6.23a.391.391,0,1,1,0,.782Z" transform="translate(-107.86 -89.59)"/></g><g transform="translate(31.936 6.292)"><path class="p" d="M114.481,87.44h-6.23a.391.391,0,0,1,0-.782h6.23a.391.391,0,1,1,0,.782Z" transform="translate(-107.86 -86.658)"/></g><path class="p" d="M216.394,174.286H172.507a2.088,2.088,0,0,1-2.081-2.082h0a2.088,2.088,0,0,1,2.081-2.082h43.887a2.088,2.088,0,0,1,2.082,2.082h0A2.088,2.088,0,0,1,216.394,174.286Z" transform="translate(-89.55 -98.544)"/><path class="p" d="M216.394,162.284H172.507a2.088,2.088,0,0,1-2.081-2.082h0a2.088,2.088,0,0,1,2.081-2.082h43.887a2.088,2.088,0,0,1,2.082,2.082h0A2.088,2.088,0,0,1,216.394,162.284Z" transform="translate(-89.55 -95.93)"/><path class="p" d="M216.394,186.288H172.507a2.088,2.088,0,0,1-2.081-2.082h0a2.088,2.088,0,0,1,2.081-2.082h43.887a2.088,2.088,0,0,1,2.082,2.082h0A2.088,2.088,0,0,1,216.394,186.288Z" transform="translate(-89.55 -101.157)"/><path class="r" d="M152.84,259.622h-2.254v-.132a1.4,1.4,0,0,0-1.392-1.392H138.419a1.4,1.4,0,0,0-1.392,1.392v1.584a1.4,1.4,0,0,0,1.392,1.392h10.775a1.4,1.4,0,0,0,1.392-1.392v-.132h1.594v3.91h-8.374a.662.662,0,0,0-.659.659v5a2.064,2.064,0,0,0-1.4,1.945v3.164a19.043,19.043,0,0,1-1.755,1.063A3.772,3.772,0,0,0,138,278.781c-3.822.916-8.961,2.173-13.687,3.022-5.566,1.021-10.51,1.508-11.779,1.65q-.319.038-.613.086a3.644,3.644,0,0,0-.876-.757s-4.252.807-7.472,1.315c-.267.042-1.328.3-2.861.542-.061-.529-.092-.979-.1-1.358a5.1,5.1,0,0,0,2.915-2.4,13.881,13.881,0,0,0,.139-13.747l0,0s-2.111-8.913-12.267-6.192c-6.81,1.825-8.571,14.212-8.993,22.18-.227-.127-.46-.26-.7-.4a20.841,20.841,0,0,1-9.153-11.369,31.278,31.278,0,0,1-1.289-5.109,3.515,3.515,0,0,0,1.07-2.987c-.065-3.2.444-4.056.856-4.621s-.938-1.406-1.839.759l-.9,2.164s-1.214-4.772-2.824-6.152a.738.738,0,0,0-.59-.228v10.554a4.365,4.365,0,0,0,.751.578A24.238,24.238,0,0,0,69.24,277.28a23.035,23.035,0,0,0,2.365,4.565,25.283,25.283,0,0,0,6.343,6.506,26.573,26.573,0,0,0,4.469,2.588c.3.133.588.243.869.341a15.312,15.312,0,0,0-.253,1.51,20.5,20.5,0,0,0,5.146,1.082S95.6,299.045,90.7,310.3c-1.219,2.8-2.246,5.575-3.134,8.242h23.272A50.892,50.892,0,0,0,108,310.3c-4.032-8.822,1.28-10.561,1.409-16.637a7.355,7.355,0,0,0,3.9-1.464s.117-.729.172-1.79a81.167,81.167,0,0,0,12.266-2.768,73.188,73.188,0,0,0,13.437-5.55,4.562,4.562,0,0,0,2.568.486v2.1a2.064,2.064,0,0,0,4.128,0V281.63c2.821-1.356,4.934-4.141,3.267-4.738a7.919,7.919,0,0,0-3.267-.095v-4.337a2.064,2.064,0,0,0-1.4-1.945v-4.344h8.374a.662.662,0,0,0,.659-.66v-5.229A.662.662,0,0,0,152.84,259.622Z" transform="translate(-67.032 -117.066)"/><path class="r" d="M379.361,136.012c-1.905.918-4.211,5.233-4.211,5.233l-.382-2.34c-.383-2.341-1.91-1.879-1.635-1.222s.577,1.623-.232,4.715a3.556,3.556,0,0,0,.358,3.179A30.155,30.155,0,0,1,370.8,150.2a20.509,20.509,0,0,1-5.43,5.694,20.759,20.759,0,0,1-5.813,2.817c-.457-1.255-.792-2.016-.792-2.016a18.684,18.684,0,0,1-13.47,4.352,21.42,21.42,0,0,0,.266-4.708c.437-.181.874-.377,1.3-.606a13.258,13.258,0,0,0,1.326-.82c2.53-.724,4.475-3.1,5.789-5.653,2.114-4.1,2.015-9.987-2.475-13.289-4.4-3.238-8.136-3.06-13.693-2.785a6.386,6.386,0,0,0,.357,5.784,13.592,13.592,0,0,0-4.679,13.706c.577,2.691,2.853,4.262,5.734,4.626a17.792,17.792,0,0,1-.232,2.612c-.171-.05-.3-.085-.363-.1-3.292-.575-10.457-4.732-10.457-4.732a8.657,8.657,0,0,0-2.43,2.3c-.166-.155-.336-.315-.519-.48a18.137,18.137,0,0,1-3.495-5.385c-.21-.58-.5-1.146-.674-1.762s-.338-1.253-.508-1.881a4.951,4.951,0,0,1-.2-.964l-.152-.977q-.08-.488-.16-.972a5.233,5.233,0,0,1-.112-.972c-.041-.651-.082-1.29-.121-1.912a13.434,13.434,0,0,1-.074-1.826c.007-.455.008-.894.006-1.323a3.4,3.4,0,0,0,1.538-2.773c.422-3.206,1.07-3.961,1.576-4.446s-.74-1.583-1.987.405l-.882,1.406-.365.581s-.508-5-1.938-6.686-3.868,2.875-3.281,6.569c.368,2.317.971,3.705,1.719,4.473-.113.386-.228.783-.343,1.2a12.36,12.36,0,0,0-.4,1.979c-.1.7-.2,1.417-.305,2.149a6.409,6.409,0,0,0-.081,1.13q-.009.578-.018,1.163t-.008,1.181a6.66,6.66,0,0,0,.061,1.2c.1.81.2,1.621.3,2.426.124.808.381,1.605.574,2.4a22.631,22.631,0,0,0,4.173,8,24.574,24.574,0,0,0,2.275,2.325c-.219.537-.344.876-.344.876h0a15.8,15.8,0,0,0,4.321,2.873c.6.281,1.2.525,1.78.735s1.13.389,1.643.538c.769.223,1.446.382,1.967.49.348.073.627.123.82.155s.3.046.3.046a77.357,77.357,0,0,1-.27,9.661q-.116,1.306-.264,2.555-.074.624-.154,1.233c-.321,2.434-.718,4.674-1.124,6.644q-.1.493-.2.962c-.135.626-.271,1.22-.4,1.781-.041.17-.08.331-.12.494l-.768-.011-.1-6.413a1.378,1.378,0,0,0-1.359-1.334,1.276,1.276,0,0,0-1.317,1.293l.287,17.448h0l1.108,67.316.156,9.515h0l.167,10.179H366.94l-.008-.687h0l-.312-28.378h0l-.1-9.509h0l-.1-9.534h0l-.106-9.561h0l-.106-9.587h0l-.106-9.613h0l-.213-19.3h0l-.084-7.681a1.358,1.358,0,0,0-1.338-1.327,1.275,1.275,0,0,0-1.309,1.286l.073,6.381-4.159-.06c-.195-.429-.383-.861-.562-1.3-.484-1.179-.911-2.376-1.288-3.572s-.7-2.392-.986-3.566a67.539,67.539,0,0,1-1.816-14.716q.334.014.672,0a11.818,11.818,0,0,0,2-.25,19.33,19.33,0,0,0,4.409-1.551c.246-.121.383-.2.383-.2-.109-.889-.262-1.765-.436-2.619l.106-.038a24.628,24.628,0,0,0,7.75-4.654,22.149,22.149,0,0,0,3.384-3.8,23.463,23.463,0,0,0,3.982-10.248,4.31,4.31,0,0,0,3.066-3.45C380.34,139.826,381.265,135.1,379.361,136.012Zm-28.106,92.326-9.491.021c-.075-2.293-.167-4.722-.249-7.176l8.73-.022C350.592,223.621,350.925,226.056,351.255,228.338Zm-2.03-14.092c.222,1.4.436,2.835.645,4.279l-8.437.022c-.045-1.571-.081-3.133-.1-4.655q-.02-1.263-.025-2.478l7.473-.021Q349.008,212.786,349.226,214.247Zm-7.765-10.87c.029-.6.063-1.153.1-1.675l.584,0a9.752,9.752,0,0,0,1.7.156,17.182,17.182,0,0,0,2.4-.169l.775,0q.225,1.1.487,2.462c.259,1.377.547,2.939.839,4.626l-7.025.02C341.334,206.8,341.382,204.959,341.461,203.377Zm-12.666-11.123,0-.16h.045C328.822,192.149,328.808,192.2,328.794,192.254Zm.149,6.885-.088-4.04q1.821.629,3.617,1.075c-.01.081-.025.157-.034.239-.013.1-.025.229-.038.364-.007.07-.013.145-.02.224,0,.046-.008.095-.012.144-.043.523-.083,1.187-.112,1.983Zm.211,9.69L329,201.742l3.219-.01c0,.431.007.875.019,1.338.041,1.725.148,3.674.32,5.748Zm.057,2.62,3.592-.01q.149,1.421.337,2.887c.175,1.4.379,2.819.6,4.241l-4.377.011Zm.212,9.764,4.757-.012c.432,2.464.917,4.89,1.432,7.172l-6.034.013Zm.214,9.825,6.6-.014c.332,1.338.672,2.6,1.011,3.764a4.808,4.808,0,0,0-1.126,1.8,3.139,3.139,0,0,0-.181,1.654l-6.15.012Zm34.275,50.024.238,7.451-33.263,0-.162-7.442Zm-.087-2.738-33.16.015-.161-7.4,33.084-.023Zm-.557-17.486.234,7.36-33.056.027-.16-7.351Zm-.086-2.7-32.955.038-.159-7.306,32.881-.047Zm-.635-19.942-3.277.006c-.009-.07-.005-.14-.021-.212a3.75,3.75,0,0,0-.391-1.041,5.168,5.168,0,0,0-2.229-2.121c.16-1.168.3-2.462.419-3.845l5.27-.011Zm-.314-9.88-4.987.011c.144-2.272.235-4.7.267-7.181l4.491-.011Zm-.313-9.82-4.4.011c-.009-1.625-.042-3.249-.107-4.838-.024-.777-.058-1.542-.1-2.3l4.375-.013Zm-.311-9.76-4.452.013c-.151-2.117-.341-4.09-.532-5.807-.05-.448-.1-.873-.154-1.285l4.912-.016Zm-1.546-14.018a29.027,29.027,0,0,1-1.743-2.725l2.755-.01.225,7.052-5.2.017c-.048-.3-.092-.573-.135-.828h0l-.013-.072c-.038-.228-.075-.434-.109-.622-.013-.074-.027-.146-.039-.215s-.023-.122-.034-.178c-.024-.125-.047-.241-.066-.336-.051-.251-.106-.492-.164-.726A36.277,36.277,0,0,0,360.063,194.716ZM352.928,240.9l3.978-.007c.064,0,.123-.016.185-.021l5.542-.01.232,7.27-32.854.049-.158-7.26,22.823-.041A2.467,2.467,0,0,0,352.928,240.9Zm-1.277-9.911c.219,1.424.439,2.758.661,3.958a4.378,4.378,0,0,0-1.615,2.013,3.154,3.154,0,0,0-.282,1.254l-5.695.01a2.381,2.381,0,0,0-.024-1.157,3.738,3.738,0,0,0-.447-1.015,5.1,5.1,0,0,0-2.344-1.981c-.01-.964-.031-1.991-.059-3.062Z" transform="translate(-120.886 -89.162)"/><path class="r" d="M297.306,253.916l-9.291-3.255a4.757,4.757,0,0,0-5.775,2.728l-4.085,9.573A4.051,4.051,0,0,0,280.4,268.5l9.291,3.255c.045.016.092.026.138.04.16.4.325.859.5,1.387a4.068,4.068,0,0,0,1.607,2.338c-.386,1.819-.745,3.938-1.264,6.155-.161.738-.3,1.492-.472,2.247l-.57,2.262c-.333,1.525-.831,2.994-1.247,4.433a50.7,50.7,0,0,1-2.315,5.908,26.761,26.761,0,0,0-1.471-2.425c-4.818,4.866-8.443,7.258-11.1,8.39a26.388,26.388,0,0,0,.281-2.894,14.446,14.446,0,0,0,3.914-2.667,16.638,16.638,0,0,0,4.32-6.928,1.152,1.152,0,0,0,.58.142c2.205-.037,5.084-5.809,2.716-6.771a2.29,2.29,0,0,0-1.478-.11c0-.353,0-.706-.028-1.058-.539-6.82-4.226-9.833-11.99-8.681a12.133,12.133,0,0,0-9.757,8.143c-.038.138-.059.274-.093.411a2.281,2.281,0,0,0-1.51-.109c-2.616.615-1.582,6.66.564,7a1.265,1.265,0,0,0,.959-.235,17.069,17.069,0,0,0,1.491,7.756,6.592,6.592,0,0,0,3.2,3.366,18.619,18.619,0,0,1-.343,2.943c-3.6-1.327-8.49-5.913-8.49-5.913l-.039.025c-.11-.18-.221-.371-.35-.573a9.824,9.824,0,0,1-.6-1.048,25.276,25.276,0,0,1-2.264-6.046c-.13-.609-.34-1.206-.422-1.852-.109-.641-.217-1.285-.326-1.929-.124-.644-.138-1.315-.22-1.966-.051-.658-.172-1.3-.178-1.953q-.042-.976-.082-1.912c-.031-.623-.084-1.23-.063-1.82q0-1.016-.024-1.931a2.663,2.663,0,0,0,.339-.067,4.5,4.5,0,0,0,2.706-2.629c.372-.744.706-1.35,1.013-1.855l1.223.429a4.756,4.756,0,0,0,5.774-2.728l4.086-9.573a4.051,4.051,0,0,0-2.247-5.538l-9.291-3.255a4.756,4.756,0,0,0-5.774,2.728L247,262.963a4.051,4.051,0,0,0,2.247,5.538l.737.258c-.034.138-.075.278-.1.416-.49,2.534-.4,4.161.068,5.175-.339.957-.688,2.066-1.04,3.291a17.9,17.9,0,0,0-.454,1.978q-.194,1.04-.4,2.128c-.145.727-.169,1.479-.253,2.239-.054.76-.167,1.533-.16,2.308s0,1.559.007,2.333c-.014.78.113,1.546.17,2.309a27.952,27.952,0,0,0,1.967,8.053,14.055,14.055,0,0,0,.678,1.5c.233.451.417.875.641,1.226.436.707.751,1.245.978,1.536.008.011.016.02.023.03-.8,1.385-1.262,2.42-1.262,2.42,2.861,6.618,7.334,8.254,7.334,8.254q-.122,1.8-.245,3.558h23.429c.327-4.171.771-6.9.771-6.9,3.981.111,7.1-3.623,7.1-3.623-.009-.388-.035-.774-.073-1.159l0,0a20.211,20.211,0,0,0,1.34-1.873c.308-.43.536-.925.845-1.464a16.433,16.433,0,0,0,.878-1.757,39.8,39.8,0,0,0,2.777-8.995,61.924,61.924,0,0,0,.768-16.588c1.063-.858,1.736-2.623,1.668-5.97a9.126,9.126,0,0,0-.686-3.17l2.8-6.55A4.051,4.051,0,0,0,297.306,253.916Z" transform="translate(-106.146 -116.034)"/></g><g transform="translate(250.651 94.04)"><path class="k" d="M337.052,376.974a1.313,1.313,0,0,1-1.313-1.313V200.151a1.313,1.313,0,1,1,2.627,0v175.51A1.313,1.313,0,0,1,337.052,376.974Z" transform="translate(-335.739 -198.838)"/><g transform="translate(35.907)"><path class="k" d="M382.956,376.974a1.313,1.313,0,0,1-1.313-1.313V200.151a1.313,1.313,0,1,1,2.626,0v175.51A1.313,1.313,0,0,1,382.956,376.974Z" transform="translate(-381.643 -198.838)"/></g><g transform="translate(0 7.733)"><path class="k" d="M372.958,211.35H337.052a1.313,1.313,0,1,1,0-2.626h35.906a1.313,1.313,0,1,1,0,2.626Z" transform="translate(-335.739 -208.724)"/><g transform="translate(0 9.753)"><path class="k" d="M372.958,223.818H337.052a1.313,1.313,0,1,1,0-2.626h35.906a1.313,1.313,0,1,1,0,2.626Z" transform="translate(-335.739 -221.192)"/></g><g transform="translate(0 19.505)"><path class="k" d="M372.958,236.286H337.052a1.313,1.313,0,1,1,0-2.626h35.906a1.313,1.313,0,1,1,0,2.626Z" transform="translate(-335.739 -233.66)"/></g><g transform="translate(0 29.257)"><path class="k" d="M372.958,248.754H337.052a1.313,1.313,0,0,1,0-2.627h35.906a1.313,1.313,0,0,1,0,2.627Z" transform="translate(-335.739 -246.127)"/></g><g transform="translate(0 39.011)"><path class="k" d="M372.958,261.222H337.052a1.313,1.313,0,1,1,0-2.626h35.906a1.313,1.313,0,1,1,0,2.626Z" transform="translate(-335.739 -258.596)"/></g><g transform="translate(0 48.763)"><path class="k" d="M372.958,273.69H337.052a1.313,1.313,0,1,1,0-2.626h35.906a1.313,1.313,0,1,1,0,2.626Z" transform="translate(-335.739 -271.064)"/></g><g transform="translate(0 58.515)"><path class="k" d="M372.958,286.158H337.052a1.313,1.313,0,0,1,0-2.627h35.906a1.313,1.313,0,0,1,0,2.627Z" transform="translate(-335.739 -283.531)"/></g><g transform="translate(0 68.268)"><path class="k" d="M372.958,298.625H337.052a1.313,1.313,0,1,1,0-2.626h35.906a1.313,1.313,0,1,1,0,2.626Z" transform="translate(-335.739 -295.999)"/></g><g transform="translate(0 78.02)"><path class="k" d="M372.958,311.093H337.052a1.313,1.313,0,1,1,0-2.626h35.906a1.313,1.313,0,1,1,0,2.626Z" transform="translate(-335.739 -308.467)"/></g><g transform="translate(0 87.773)"><path class="k" d="M372.958,323.562H337.052a1.313,1.313,0,0,1,0-2.627h35.906a1.313,1.313,0,0,1,0,2.627Z" transform="translate(-335.739 -320.935)"/></g><g transform="translate(0 97.525)"><path class="k" d="M372.958,336.03H337.052a1.313,1.313,0,0,1,0-2.627h35.906a1.313,1.313,0,0,1,0,2.627Z" transform="translate(-335.739 -333.403)"/></g><g transform="translate(0 107.278)"><path class="k" d="M372.958,348.5H337.052a1.313,1.313,0,1,1,0-2.626h35.906a1.313,1.313,0,1,1,0,2.626Z" transform="translate(-335.739 -345.871)"/></g><g transform="translate(0 117.031)"><path class="k" d="M372.958,360.965H337.052a1.313,1.313,0,1,1,0-2.626h35.906a1.313,1.313,0,1,1,0,2.626Z" transform="translate(-335.739 -358.339)"/></g><g transform="translate(0 126.783)"><path class="k" d="M372.958,373.433H337.052a1.313,1.313,0,1,1,0-2.626h35.906a1.313,1.313,0,1,1,0,2.626Z" transform="translate(-335.739 -370.807)"/></g><g transform="translate(0 136.535)"><path class="k" d="M372.958,385.9H337.052a1.313,1.313,0,0,1,0-2.627h35.906a1.313,1.313,0,0,1,0,2.627Z" transform="translate(-335.739 -383.274)"/></g><g transform="translate(0 146.289)"><path class="k" d="M372.958,398.37H337.052a1.313,1.313,0,0,1,0-2.627h35.906a1.313,1.313,0,0,1,0,2.627Z" transform="translate(-335.739 -395.743)"/></g><g transform="translate(0 156.041)"><path class="k" d="M372.958,410.837H337.052a1.313,1.313,0,1,1,0-2.626h35.906a1.313,1.313,0,1,1,0,2.626Z" transform="translate(-335.739 -408.211)"/></g></g></g><g transform="translate(75.629 22.288)"><path class="s" d="M327.964,138.5a3.516,3.516,0,0,0,1.559-2.779c.465-3.167,1.108-3.927,1.607-4.416s-.693-1.542-1.939.444l-.882,1.4Z" transform="translate(-159.024 -112.221)"/><rect class="o" width="215.911" height="20.626"/><text class="t" transform="translate(198.819 6.928)"><tspan x="-17.976" y="0">SEARCH</tspan></text><rect class="p" width="202.733" height="0.979" transform="translate(6.589 13.593)"/><path class="s" d="M326.874,132.117l-.364.581s-.41-4.906-1.769-6.534-3.8,2.917-3.3,6.537c.629,4.52,2.228,5.41,4.068,5.05a2.071,2.071,0,0,0,1.019-.289Z" transform="translate(-157.589 -111.184)"/><g transform="translate(171.204 3.139)"><g transform="translate(5.507 5.507)"><path class="p" d="M340.846,121.5a.393.393,0,0,1-.277-.114l-2.555-2.555a.391.391,0,1,1,.553-.553l2.556,2.555a.391.391,0,0,1-.276.667Z" transform="translate(-337.899 -118.161)"/></g><path class="p" d="M334.313,111.9a2.673,2.673,0,1,1-1.89.783,2.658,2.658,0,0,1,1.89-.783m0-.782a3.455,3.455,0,1,0,2.444,1.011,3.444,3.444,0,0,0-2.444-1.011Z" transform="translate(-330.858 -111.121)"/><g transform="translate(5.116 5.116)"><path class="p" d="M338.772,119.817a.782.782,0,0,1-.553-.229l-.591-.591a.782.782,0,1,1,1.106-1.106l.591.591a.782.782,0,0,1-.553,1.335Z" transform="translate(-337.399 -117.662)"/></g></g><g transform="translate(164.162 19.961)"><g transform="translate(17.7)"><path class="s" d="M351,138.393a14.272,14.272,0,0,0-6.22,14.8c.95,4.82,7.419,5.906,13.075,2.769a12.889,12.889,0,0,0,6.6-13.183C363.747,138.685,356.154,134.844,351,138.393Z" transform="translate(-344.483 -133.578)"/><g transform="translate(5.218 20.324)"><path class="s" d="M354.287,170.288a3.1,3.1,0,0,1-.677-.075,3.129,3.129,0,0,1-2.381-3.73c.882-3.992.46-5.571.455-5.587a.909.909,0,0,0,.077.2l5.741-2.49c.292.671,1.14,3.322-.163,9.224A3.13,3.13,0,0,1,354.287,170.288Z" transform="translate(-351.154 -158.609)"/></g><path class="u" d="M351.856,140.5s-2.258,3.519-3.086,4.78c0,0,1.515,1.149,2.545-.185s1.769-3.849,3.868-3.815c1.4.023,1.2,1.492.588,2.676-.933,1.812-2.426,2.736-3.382,2.624,0,0-2.509,4,2.557,6.845s8.794-.874,10.924-4.994,2.1-9.957-2.266-13.126c-4.277-3.1-7.935-2.839-13.374-2.44C350.231,132.862,348.237,136.53,351.856,140.5Z" transform="translate(-345.417 -132.627)"/></g><g transform="translate(34.838 9.98)"><path class="s" d="M389.526,145.386a38.406,38.406,0,0,1-3.232,6.406,20.851,20.851,0,0,1-11.61,8.846,29.617,29.617,0,0,1-3.89.9c-3.043.5-4.255,1.421-4.394,3.859a2.668,2.668,0,0,0,1.268,2.66,6.515,6.515,0,0,0,4.351.391,26.533,26.533,0,0,0,4.958-1.442,25.261,25.261,0,0,0,7.717-4.8,23.074,23.074,0,0,0,3.389-3.865A24.3,24.3,0,0,0,392.34,146Z" transform="translate(-366.394 -145.386)"/></g><g transform="translate(0 3.82)"><path class="s" d="M323.824,137.511c-.335.945-.684,2.057-1.039,3.29a12.523,12.523,0,0,0-.421,1.96c-.109.692-.221,1.4-.334,2.127a6.419,6.419,0,0,0-.1,1.116q-.019.57-.038,1.148t-.029,1.167a6.75,6.75,0,0,0,.038,1.183c.083.8.166,1.6.248,2.391.106.8.343,1.579.518,2.36A21.54,21.54,0,0,0,326.6,162.1a22.071,22.071,0,0,0,2.235,2.312c.329.289.612.551.866.748l.628.454a5.827,5.827,0,0,0,4.121,1.36,2.575,2.575,0,0,0,2.085-2.049,4.025,4.025,0,0,0,0-2.846,6.038,6.038,0,0,0-2.156-2.2l-.434-.293c-.178-.126-.371-.3-.605-.48a18.736,18.736,0,0,1-1.632-1.454,17.11,17.11,0,0,1-3.324-5.264c-.195-.569-.465-1.125-.627-1.731l-.464-1.849a4.877,4.877,0,0,1-.179-.949l-.131-.962q-.07-.481-.139-.957a5.247,5.247,0,0,1-.092-.957c-.03-.641-.059-1.272-.086-1.886a13.3,13.3,0,0,1-.041-1.8c.037-1.164.045-2.247.021-3.2Z" transform="translate(-321.855 -137.511)"/></g><path class="v" d="M345.513,214.5s3.105,7.029,10.234,7.029,11.368-3.586,10.21-11.11C365.958,210.423,351.244,207.913,345.513,214.5Z" transform="translate(-327.008 -149.468)"/><g transform="translate(31.161 61.152)"><path class="w" d="M371.191,255.72a123.812,123.812,0,0,0,1.655-22.112c0-3.977-.225-7.748-.472-10.758s-.588-5.265-.753-6.193c-.846-4.793-3.092-6.633-6.288-5.551-3.217,1.082-4.157,2.946-3.384,7.275.147.835.56,2.862,1.023,5.655s1.013,6.329,1.48,10.13c1.015,7.586,1.771,16.176,2.708,21.507Z" transform="translate(-361.692 -210.805)"/></g><g transform="translate(16.786 59.719)"><path class="k" d="M352.37,255.935c.233-5.623-.093-14.606.01-22.547.037-3.97.185-7.67.405-10.546s.511-4.911.626-5.716c.293-2.106.277-3.406-.228-4.252a5.816,5.816,0,0,0-1.082-1.2,7.526,7.526,0,0,1-.667-.775,9.955,9.955,0,0,0-.8-.866,5.106,5.106,0,0,0-.939-.731,2.006,2.006,0,0,0-1.052-.327,3.525,3.525,0,0,0-2.286.924c-1.4,1.188-2.31,3.225-2.679,5.892a52.145,52.145,0,0,0-.362,6.716,108.783,108.783,0,0,0,.663,11.294,126.92,126.92,0,0,0,4.4,22.675Z" transform="translate(-343.315 -208.973)"/><g transform="translate(14.375 1.433)"><path class="k" d="M371.191,255.72a123.812,123.812,0,0,0,1.655-22.112c0-3.977-.225-7.748-.472-10.758s-.588-5.265-.753-6.193c-.846-4.793-3.092-6.633-6.288-5.551-3.217,1.082-4.157,2.946-3.384,7.275.147.835.56,2.862,1.023,5.655s1.013,6.329,1.48,10.13c1.015,7.586,1.771,16.176,2.708,21.507Z" transform="translate(-361.692 -210.805)"/></g><path class="v" d="M367.9,217.7c-.088-.621-.167-1.115-.224-1.438a8.977,8.977,0,0,0-1.987-4.706q-.046-.65-.152-1.342s-7.774-1.323-14.222.484c-.189-.218-.39-.44-.623-.663a5.1,5.1,0,0,0-.939-.731,2.006,2.006,0,0,0-1.052-.327,3.525,3.525,0,0,0-2.286.924c-1.4,1.188-2.31,3.225-2.679,5.892-.05.347-.107.867-.162,1.507A51.335,51.335,0,0,0,367.9,217.7Z" transform="translate(-343.371 -208.973)"/></g><path class="o" d="M346.616,165.387c.846.133,11.289,3.994,19.849-3.5a44.888,44.888,0,0,1,2.939,11.147s-3.877,2.22-7.4,2.129c0,0-.39,17.619,7.315,28.534,0,0-16.052,6.207-32.96,0a91.371,91.371,0,0,0,4.421-28.745s-6.6-.765-10.522-4.616c0,0,2.735-7.4,6.186-9.444C336.447,160.892,343.4,164.879,346.616,165.387Z" transform="translate(-323.686 -138.783)"/><path class="x" d="M370.392,178.542c3.521.091,7.4-2.129,7.4-2.129s-4.695,1.822-9,.559c0,0-.977,21.056,8.916,30.1C370,196.162,370.392,178.542,370.392,178.542Z" transform="translate(-332.072 -142.163)"/><path class="x" d="M343.472,176.727c-9.473-.758-13.211-3.762-13.211-3.762,3.922,3.851,10.522,4.616,10.522,4.616a91.371,91.371,0,0,1-4.421,28.745C343.271,197.025,343.472,176.727,343.472,176.727Z" transform="translate(-323.686 -141.412)"/><path class="s" d="M395.68,145.591s-1.98-.745-1.151-3.838.54-4.044.275-4.691,1.248-1.14,1.6,1.176l.356,2.317s2.322-4.341,4.215-5.3.935,3.77.3,7.046S397.227,146.652,395.68,145.591Z" transform="translate(-337.639 -133.173)"/><path class="g" d="M370.025,266.207a4.1,4.1,0,0,0-3.813,2.562,2.971,2.971,0,0,0-.257,2.045,2.454,2.454,0,0,0,2.408,1.837H372.4a2.465,2.465,0,0,0,2.468-2.856,3.5,3.5,0,0,0-.365-1.026A4.814,4.814,0,0,0,370.025,266.207Z" transform="translate(-331.443 -161.716)"/><path class="g" d="M350.954,265.4a4.1,4.1,0,0,0-3.647,2.793,2.967,2.967,0,0,0-.13,2.056,2.453,2.453,0,0,0,2.516,1.685l4.028-.25a2.464,2.464,0,0,0,2.287-3,3.506,3.506,0,0,0-.428-1A4.815,4.815,0,0,0,350.954,265.4Z" transform="translate(-327.343 -161.535)"/></g></g><g transform="translate(36.697 134.545)"><g transform="translate(21.092 6.445)"><path class="s" d="M104.686,262.136a14.27,14.27,0,0,1,1.288,16c-2.408,4.283-8.892,3.293-13.286-1.453A12.887,12.887,0,0,1,90.536,262.1C92.488,258.433,100.9,257.156,104.686,262.136Z" transform="translate(-89.18 -258.858)"/><g transform="translate(7.618 17.775)"><path class="s" d="M102.676,293.262a3.13,3.13,0,0,1-3.052-2.455c-1.3-5.9-.454-8.552-.163-9.224l5.741,2.491a.945.945,0,0,0,.077-.2c0,.016-.426,1.6.455,5.587a3.13,3.13,0,0,1-2.38,3.73A3.2,3.2,0,0,1,102.676,293.262Z" transform="translate(-98.919 -281.583)"/></g></g><g transform="translate(2.024 9.116)"><path class="s" d="M65.208,262.274a24.3,24.3,0,0,0,1.175,13,23.051,23.051,0,0,0,2.365,4.564,25.282,25.282,0,0,0,6.343,6.506,26.571,26.571,0,0,0,4.469,2.588,6.514,6.514,0,0,0,4.319.663,2.668,2.668,0,0,0,1.868-2.279c.449-2.4-.508-3.581-3.342-4.8a29.683,29.683,0,0,1-3.561-1.806,20.845,20.845,0,0,1-9.153-11.369,38.43,38.43,0,0,1-1.6-6.995Z" transform="translate(-64.804 -262.274)"/></g><g transform="translate(42.43 2.938)"><path class="s" d="M154.62,279.656a3.52,3.52,0,0,1,2.071-2.422c2.814-1.528,3.3-2.393,3.591-3.031s1.686.119.252,1.973l-1.015,1.312Z" transform="translate(-124.77 -258.645)"/><path class="k" d="M161.966,274.1h0a.661.661,0,0,1-.659-.659v-9.77a.662.662,0,0,1,.659-.66h0a.662.662,0,0,1,.659.66v9.77A.661.661,0,0,1,161.966,274.1Z" transform="translate(-126.227 -256.255)"/><path class="k" d="M161.307,263.669h0a.662.662,0,0,1,.659-.66H171a.662.662,0,0,1,.66.66h0a.662.662,0,0,1-.66.659h-9.033A.662.662,0,0,1,161.307,263.669Z" transform="translate(-126.227 -256.255)"/><path class="k" d="M173.514,256.323h0a.662.662,0,0,1,.66.66v5.23a.662.662,0,0,1-.66.659h0a.662.662,0,0,1-.659-.659v-5.23A.662.662,0,0,1,173.514,256.323Z" transform="translate(-128.742 -254.799)"/><path class="k" d="M172.4,256.983h0a.662.662,0,0,1-.66.659h-6.37a.661.661,0,0,1-.659-.659h0a.662.662,0,0,1,.659-.66h6.37A.662.662,0,0,1,172.4,256.983Z" transform="translate(-126.968 -254.799)"/><rect class="o" width="13.558" height="4.367" rx="1.779" transform="translate(28.961)"/><path class="y" d="M161.575,286.44h0a2.069,2.069,0,0,1-2.063-2.063V272.162a2.069,2.069,0,0,1,2.063-2.064h0a2.069,2.069,0,0,1,2.063,2.064v12.215A2.069,2.069,0,0,1,161.575,286.44Z" transform="translate(-125.836 -257.799)"/><path class="s" d="M159.509,278.392l-.419.542s4.746-1.307,6.743-.592-1.426,4.577-5,5.352c-4.459.968-5.846-.226-6.143-2.078a2.063,2.063,0,0,1-.081-1.056Z" transform="translate(-124.761 -259.548)"/><g transform="translate(0 20.23)"><path class="s" d="M148.3,280.238c-3.884.908-10.027,2.475-15.592,3.474-5.565,1.021-10.51,1.508-11.778,1.65-3.288.393-4.535,1.489-4.463,3.914.069,2.4,1.738,3.481,5.3,3.053a80.424,80.424,0,0,0,12.368-2.78,66.418,66.418,0,0,0,15.278-6.655Z" transform="translate(-116.459 -280.238)"/></g></g><g transform="translate(34.763 78.395)"><path class="s" d="M113.827,394.872a54.583,54.583,0,0,0,2.18-9.879,115.955,115.955,0,0,0,.919-11.806,152.826,152.826,0,0,0-.4-16.388c-.468-4.581-2.271-6.345-5.616-5.887s-4.61,2.462-4.161,6.865c.172,1.7,1.046,8.263,1.772,15.686.36,3.711.662,7.63.888,11.261.246,3.638.293,6.952.437,9.534Z" transform="translate(-106.658 -350.842)"/></g><g transform="translate(7.186 74.724)"><path class="s" d="M71.4,379a17.432,17.432,0,0,0,4.873.516,17.8,17.8,0,0,0,5.893-1.271,20.331,20.331,0,0,0,8.051-5.958,17.108,17.108,0,0,0,1.039-1.381c.083-.12.166-.229.248-.361l.244-.429.474-.867a29.381,29.381,0,0,0,2.034-5.929c.411-1.777.724-3.417.932-4.85.434-2.875.612-4.988.662-5.863.244-4.519-1.331-6.461-4.7-6.461-3.39,0-4.884,1.728-5.109,5.9-.045.806-.1,2.773-.27,5.361-.076,1.3-.215,2.73-.393,4.229a26.6,26.6,0,0,1-.843,4.2l-.131.371-.06.192c-.029.071-.077.154-.115.231a10.184,10.184,0,0,1-.51.94,14.008,14.008,0,0,1-1.26,1.8,15.352,15.352,0,0,1-3.251,2.968,15.181,15.181,0,0,1-3.783,1.828,23.3,23.3,0,0,1-3.7.817Z" transform="translate(-71.402 -346.149)"/></g><path class="z" d="M104.391,287.246c-.846.133-9.666,2.455-16.211-.6a16.285,16.285,0,0,0-4.327,9.294A20.5,20.5,0,0,0,89,297.021s7.417,5.173,2.522,16.427c-5.795,13.321-7.3,26.008-9.836,29.605,0,0,16.052,6.207,32.959,0,0,0-.439-17.813-5.829-29.605-4.033-8.823,1.28-10.562,1.408-16.638a7.358,7.358,0,0,0,3.9-1.464s1.194-7.371-2.257-9.417C111.863,285.93,107.611,286.737,104.391,287.246Z" transform="translate(-66.456 -258.31)"/><path class="s" d="M66.871,262.163s2.1-.25,2.037-3.45.444-4.057.857-4.621-.938-1.406-1.839.759l-.9,2.164s-1.214-4.771-2.823-6.152-1.811,3.436-1.979,6.769S65.116,262.822,66.871,262.163Z" transform="translate(-62.216 -250.62)"/><path class="g" d="M110.526,403.564s3.626.752,4.926,0a8.848,8.848,0,0,0,4.515.752c2.736-.206,4.583.152,4.241,1.751s-10.523,3.076-13.134,1.805c-1.406-.684-.548-4.652-.548-4.652" transform="translate(-72.68 -283.854)"/><path class="g" d="M73,381.958s-1.945,3.151-1.682,4.629a8.85,8.85,0,0,0-2.249,3.987c-.742,2.642-1.708,4.256-3.094,3.389s.7-10.941,2.788-12.961c1.123-1.088,4.559,1.074,4.559,1.074" transform="translate(-62.937 -278.949)"/><path class="u" d="M104.876,264.058s-6.655,8.057-8.125,23.958c0,0-7.884,2-13.229-1.2,0,0-1.069-26.227,9.086-28.948S104.876,264.058,104.876,264.058Z" transform="translate(-66.849 -252.085)"/><path class="s" d="M108.439,269.52s-1.2-2.823-3.475-1.887.035,6.28,2.089,6.28S108.439,269.52,108.439,269.52Z" transform="translate(-71.321 -254.283)"/></g><g transform="translate(182.563 133.223)"><g transform="translate(18.588 25.637)"><path class="s" d="M275.761,285.2c-2.771,3.448-5.234,10.279-1.115,18.1,2.6,4.928,9.139,5.684,14.265.44s4.991-13.93,2.89-18.143S280.2,279.675,275.761,285.2Z" transform="translate(-272.458 -281.705)"/><g transform="translate(5.044 18.978)"><path class="s" d="M282.455,321.341a3.551,3.551,0,0,1-3.38-4.629,16.91,16.91,0,0,0,.289-6.626,3.548,3.548,0,0,1,7-1.158,23.782,23.782,0,0,1-.53,9.945A3.551,3.551,0,0,1,282.455,321.341Z" transform="translate(-278.905 -305.966)"/></g></g><g transform="translate(39.62 24.422)"><path class="s" d="M307.407,280.3c-.379,2.126-.546,4.9-.979,7.847-.1.738-.17,1.492-.277,2.246-.124.749-.25,1.505-.375,2.262-.2,1.525-.571,2.994-.862,4.433a36.946,36.946,0,0,1-2.369,7.184,9.938,9.938,0,0,1-.62,1.221,10.677,10.677,0,0,1-.55.964c-.367.507-.6.951-.771,1.126a5.111,5.111,0,0,0-1.251,2.591,9.629,9.629,0,0,0,.489,3.111,2.491,2.491,0,0,0,2.709,2,6.5,6.5,0,0,0,4.468-3,17.749,17.749,0,0,0,1.177-1.873,15.808,15.808,0,0,0,.718-1.464,14.887,14.887,0,0,0,.726-1.757,37.316,37.316,0,0,0,2-8.995,61.056,61.056,0,0,0-.967-18.054Z" transform="translate(-299.345 -280.151)"/></g><path class="s" d="M260.347,280.653a3.989,3.989,0,0,0,2.479-2.629c1.381-3.357,2.3-4.016,2.982-4.416s-.339-1.887-2.255-.044l-1.356,1.3Z" transform="translate(-251.232 -254.098)"/><rect class="o" width="18.842" height="18.842" rx="5.581" transform="translate(6.065 0) rotate(18.777)"/><path class="s" d="M260.971,273.334l-.561.539s.9-5.51-.151-7.673-4.987,2.164-5.427,6.284c-.549,5.145.965,6.564,3.088,6.673a2.339,2.339,0,0,0,1.2-.037Z" transform="translate(-250.006 -252.565)"/><g transform="translate(31.158 0)"><path class="s" d="M308.608,280.653a3.991,3.991,0,0,1-2.479-2.629c-1.381-3.357-2.3-4.016-2.982-4.416s.339-1.887,2.256-.044l1.356,1.3Z" transform="translate(-291.665 -254.098)"/><rect class="g" width="18.842" height="18.842" rx="5.581" transform="translate(6.065 0) rotate(18.777)"/><path class="s" d="M307.824,273.334l.56.539s-.9-5.51.151-7.673,4.987,2.164,5.427,6.284c.55,5.145-.964,6.564-3.088,6.673a2.339,2.339,0,0,1-1.2-.037Z" transform="translate(-292.729 -252.565)"/></g><g transform="translate(4.035 25.015)"><path class="s" d="M255.182,280.909c-.263.973-.523,2.112-.774,3.37a17.018,17.018,0,0,0-.283,1.979q-.1,1.038-.21,2.127c-.082.727-.041,1.479-.059,2.239.013.76-.034,1.533.041,2.308s.14,1.559.21,2.333c.053.78.247,1.546.37,2.309a29.963,29.963,0,0,0,2.665,8.053,15.477,15.477,0,0,0,.808,1.5c.272.451.493.875.747,1.226.5.708.86,1.244,1.111,1.536A5.8,5.8,0,0,0,263.5,312.3a2.98,2.98,0,0,0,2.821-1.643c1.453-2.361,1.409-3.7-.335-5.784-.174-.2-.44-.574-.829-1.046-.2-.232-.377-.539-.6-.848a11.138,11.138,0,0,1-.688-1.048,27.718,27.718,0,0,1-2.789-6.046c-.183-.609-.445-1.206-.584-1.852-.164-.641-.329-1.285-.494-1.929s-.253-1.315-.39-1.966c-.108-.658-.285-1.3-.347-1.953q-.127-.976-.249-1.912c-.085-.623-.192-1.23-.221-1.82-.1-1.178-.218-2.268-.36-3.225Z" transform="translate(-253.852 -280.909)"/></g><path class="g" d="M270.781,370.408s3.523,7.466,11.59,7.993c10.432.681,12.9-4.042,11.6-12.575C293.974,365.826,277.295,362.947,270.781,370.408Z" transform="translate(-253.504 -274.269)"/><path class="k" d="M306.633,430.734a4.647,4.647,0,0,0-4.329,2.9,3.368,3.368,0,0,0-.3,2.318,2.782,2.782,0,0,0,2.727,2.088l4.576.009a2.794,2.794,0,0,0,2.8-3.233,3.969,3.969,0,0,0-.411-1.164A5.459,5.459,0,0,0,306.633,430.734Z" transform="translate(-260.286 -288.522)"/><g transform="translate(32.906 93.15)"><path class="g" d="M306.515,418.514c.246-6.247-.453-16.262-1.526-25.218-1.039-8.956-2.469-16.854-2.929-18.892-1.172-5.268-3.476-7.124-7.176-6.134s-4.834,3.451-3.7,8.543c.479,1.97,2.326,9.569,4.417,18.168,2.111,8.62,4.419,18.28,6.39,24.178Z" transform="translate(-290.761 -368.015)"/></g><path class="k" d="M268.069,432.036a4.648,4.648,0,0,0-4.288,2.957,3.458,3.458,0,0,0,.347,3.623l1.529.756,6.164-.074a1.871,1.871,0,0,0,1.839-1.639,4.521,4.521,0,0,0-.478-2.779A5.461,5.461,0,0,0,268.069,432.036Z" transform="translate(-251.901 -288.804)"/><g transform="translate(14.321 92.221)"><path class="g" d="M272.075,419.738c1.564-6.21,3.2-16.326,4.836-25.263.814-4.469,1.631-8.638,2.358-11.892s1.339-5.6,1.572-6.567c.609-2.5.711-4.31.209-5.716a5.151,5.151,0,0,0-3.418-3.052,4.542,4.542,0,0,0-4.607.423c-1.284.989-2.322,2.895-3.01,5.716-.264,1.089-.817,3.748-1.321,7.291s-.958,7.968-1.252,12.639a176.93,176.93,0,0,0,.073,26.094Z" transform="translate(-267.003 -366.828)"/></g><path class="o" d="M276.517,315.276c.959.153,5.906,2.58,16.378-9.017,0,0,5.045,6.326,5.761,12.881,0,0-2.8,3.734-6.787,3.623,0,0-1.464,19.354,4.056,33.672a33.52,33.52,0,0,1-27.459,1.119s.07-14.126-.262-31.445c0,0-4.615-1.636-8.051-8.254,0,0,2.292-6.5,6.21-8.811C266.364,309.045,272.867,314.693,276.517,315.276Z" transform="translate(-251.19 -261.415)"/><path class="s" d="M272.79,293.3s-.806-3.19-3.368-2.576-1,6.66,1.172,7S272.79,293.3,272.79,293.3Z" transform="translate(-252.919 -258.015)"/><path class="s" d="M296.981,294.576s1.24-3.048,3.692-2.085.074,6.734-2.128,6.771S296.981,294.576,296.981,294.576Z" transform="translate(-259.192 -258.376)"/><path class="u" d="M271.745,288.029a10.809,10.809,0,0,1,9.05-8.143c7.664-1.152,11.612,1.861,12.743,8.681s-3.567,13.616-10.928,13.266A11.4,11.4,0,0,1,271.745,288.029Z" transform="translate(-253.664 -255.619)"/></g><g transform="translate(270.086 241.987)"><rect class="g" width="50.667" height="38.854" transform="translate(11.771 8.446)"/><path class="k" d="M389.127,387.977l-13.494,8.446H426.3l-13.494-8.446Z" transform="translate(-363.862 -387.977)"/><rect class="aa" width="23.679" height="8.446" transform="translate(25.265 0)"/><path class="e" d="M375.633,398.775l7.3,9.126H418.62l7.68-9.126Z" transform="translate(-363.862 -390.329)"/><path class="e" d="M423.156,387.977,436.65,392.2l10.559,7.218-10.559-2.995Z" transform="translate(-374.212 -387.977)"/><path class="e" d="M385.85,387.977,371.144,392.2l-10.559,7.218,11.771-2.995Z" transform="translate(-360.585 -387.977)"/></g></g></g></g></svg>