<svg xmlns="http://www.w3.org/2000/svg" xmlns:xlink="http://www.w3.org/1999/xlink" width="416" height="336" viewBox="0 0 416 336"><defs><style>.a{clip-path:url(#b);}.b{opacity:0.3;}.c,.d,.e,.f,.g{fill:#254658;}.ak,.al,.am,.ap,.aw,.c,.d,.e,.f,.k,.o,.p{stroke:#254658;}.aa,.ac,.ai,.aj,.ak,.al,.am,.ap,.aq,.ar,.as,.at,.au,.aw,.c,.o{stroke-miterlimit:10;}.aq,.c{stroke-width:0.79px;}.c,.e{opacity:0.8;}.d{opacity:0.9;}.ak,.h{fill:#fff;}.i{fill:#e4f5ff;}.j{fill:#dee3fc;}.aa,.ac,.ai,.aj,.al,.am,.ap,.aq,.ar,.as,.aw,.k,.o,.p{fill:none;}.am,.ap,.ar,.as,.aw,.k,.p{stroke-linecap:round;}.k,.p{stroke-linejoin:round;}.k{stroke-dasharray:2.837;}.l{fill:#305970;}.m{fill:#64a2c2;}.at,.n{fill:#3f7a9a;}.aj,.ak,.ap,.o{stroke-width:0.896px;}.al,.am,.p{stroke-width:1.672px;}.q{fill:#76c568;}.r{fill:#b3e0f9;}.s{fill:#79a5be;}.t{fill:#281616;}.u{fill:#1f3d4e;}.v{fill:#e5918f;}.w{fill:#3a7798;}.x{fill:#c7e5f2;}.y{fill:#002c54;}.z{fill:#cc6362;}.aa,.ar,.at,.au{stroke:#fff;}.aa{stroke-width:0.501px;}.ab{opacity:0.5;}.ac{stroke:#cc6362;stroke-width:0.724px;}.ad,.au{fill:#57b746;}.ae{fill:#e49191;}.af{fill:#659ebc;}.ag{fill:#45809f;}.ah{fill:#329820;}.ai{stroke:#000;stroke-width:1.065px;}.aj{stroke:#659ebc;}.an{fill:#3a667e;}.ao{fill:#d5e9f3;}.aq{stroke:#3a7798;}.ar{stroke-width:2px;}.as{stroke:#dee3fc;}.av{fill:#e5e4e4;}.aw{stroke-width:5px;}</style><clipPath id="b"><rect width="416" height="336"/></clipPath></defs><g id="a" class="a"><g transform="translate(28.968 -31.984)"><g transform="translate(-20.814 76.406)"><g transform="translate(0 0)"><g class="b" transform="translate(40.617 9.017)"><g transform="translate(32.861 21.682)"><path class="c" d="M242.306,148.486V141.63a1.213,1.213,0,0,0-1.214-1.214h-1.764a1.113,1.113,0,0,1-1.09-.855,24.252,24.252,0,0,0-3.054-7.412,1.132,1.132,0,0,1,.148-1.4l1.241-1.241a1.215,1.215,0,0,0,0-1.718l-4.847-4.847a1.214,1.214,0,0,0-1.717,0l-1.239,1.239a1.131,1.131,0,0,1-1.4.147,24.273,24.273,0,0,0-7.414-3.057,1.113,1.113,0,0,1-.854-1.089v-1.759a1.215,1.215,0,0,0-1.215-1.215h-6.855a1.215,1.215,0,0,0-1.215,1.215v1.758a1.113,1.113,0,0,1-.855,1.09,24.259,24.259,0,0,0-7.414,3.057,1.131,1.131,0,0,1-1.4-.148L198.9,122.94a1.214,1.214,0,0,0-1.717,0l-4.847,4.847a1.215,1.215,0,0,0,0,1.718l1.239,1.239a1.13,1.13,0,0,1,.147,1.4,24.3,24.3,0,0,0-3.055,7.414,1.113,1.113,0,0,1-1.089.855h-1.762a1.214,1.214,0,0,0-1.215,1.214v6.856a1.214,1.214,0,0,0,1.215,1.214h1.763a1.113,1.113,0,0,1,1.089.854,24.284,24.284,0,0,0,3.055,7.412,1.13,1.13,0,0,1-.147,1.4l-1.241,1.241a1.214,1.214,0,0,0,0,1.717l4.847,4.848a1.214,1.214,0,0,0,1.717,0l1.242-1.243a1.131,1.131,0,0,1,1.4-.147,24.276,24.276,0,0,0,7.41,3.051,1.113,1.113,0,0,1,.855,1.09v1.768a1.215,1.215,0,0,0,1.215,1.215h6.855a1.215,1.215,0,0,0,1.215-1.215v-1.768a1.114,1.114,0,0,1,.855-1.09,24.268,24.268,0,0,0,7.41-3.051,1.13,1.13,0,0,1,1.4.147l1.243,1.243a1.214,1.214,0,0,0,1.717,0l4.847-4.848a1.214,1.214,0,0,0,0-1.717l-1.242-1.242a1.131,1.131,0,0,1-.148-1.4,24.25,24.25,0,0,0,3.055-7.41,1.113,1.113,0,0,1,1.089-.855h1.766A1.214,1.214,0,0,0,242.306,148.486Zm-27.852,15.9a19.327,19.327,0,1,1,19.319-19.336A19.324,19.324,0,0,1,214.453,164.387Z" transform="translate(-186.604 -117.207)"/><path class="d" d="M298.231,188.114v-4.672a.827.827,0,0,0-.827-.827h-1.2a.759.759,0,0,1-.742-.583,16.536,16.536,0,0,0-2.081-5.051.77.77,0,0,1,.1-.956l.845-.845a.828.828,0,0,0,0-1.171l-3.3-3.3a.827.827,0,0,0-1.17,0l-.845.845a.772.772,0,0,1-.956.1A16.528,16.528,0,0,0,283,169.567a.759.759,0,0,1-.583-.742v-1.2a.827.827,0,0,0-.827-.827h-4.672a.827.827,0,0,0-.827.827v1.2a.759.759,0,0,1-.583.742,16.542,16.542,0,0,0-5.053,2.083.772.772,0,0,1-.957-.1l-.843-.843a.827.827,0,0,0-1.171,0l-3.3,3.3a.828.828,0,0,0,0,1.171l.845.845a.771.771,0,0,1,.1.956,16.533,16.533,0,0,0-2.081,5.053.759.759,0,0,1-.742.582h-1.2a.827.827,0,0,0-.827.827v4.672a.828.828,0,0,0,.827.828h1.2a.758.758,0,0,1,.742.582,16.563,16.563,0,0,0,2.082,5.051.77.77,0,0,1-.1.956l-.845.845a.828.828,0,0,0,0,1.171l3.3,3.3a.828.828,0,0,0,1.171,0L269.5,200a.77.77,0,0,1,.956-.1,16.554,16.554,0,0,0,5.051,2.079.759.759,0,0,1,.583.742v1.205a.828.828,0,0,0,.827.827h4.672a.828.828,0,0,0,.827-.827v-1.206a.758.758,0,0,1,.583-.742,16.559,16.559,0,0,0,5.05-2.08.771.771,0,0,1,.956.1l.847.847a.827.827,0,0,0,1.17,0l3.3-3.3a.828.828,0,0,0,0-1.171l-.847-.846a.772.772,0,0,1-.1-.956,16.54,16.54,0,0,0,2.082-5.051.759.759,0,0,1,.742-.582h1.2A.828.828,0,0,0,298.231,188.114ZM279.25,198.209a12.428,12.428,0,1,1,12.423-12.434A12.426,12.426,0,0,1,279.25,198.209Z" transform="translate(-210.998 -133.629)"/></g><g transform="translate(6.721)"><circle class="e" cx="2.265" cy="2.265" r="2.265" transform="translate(23.131 195.343)"/><circle class="e" cx="2.265" cy="2.265" r="2.265" transform="translate(326.548 133.458)"/><circle class="e" cx="2.265" cy="2.265" r="2.265" transform="translate(322.019 52.587)"/><circle class="e" cx="1.421" cy="1.421" r="1.421" transform="translate(241.433 25.944)"/><path class="e" d="M197.339,96.707a1.421,1.421,0,1,1-1.421-1.421A1.421,1.421,0,0,1,197.339,96.707Z" transform="translate(-163.077 -88.267)"/><path class="e" d="M244.349,227.5a1.421,1.421,0,1,1-1.421-1.421A1.421,1.421,0,0,1,244.349,227.5Z" transform="translate(-178.644 -131.578)"/><path class="e" d="M166.428,382.912a1.421,1.421,0,1,1-1.421-1.42A1.42,1.42,0,0,1,166.428,382.912Z" transform="translate(-152.842 -183.04)"/><circle class="e" cx="2.265" cy="2.265" r="2.265" transform="translate(293.325 196.681)"/><circle class="e" cx="2.265" cy="2.265" r="2.265" transform="translate(341.483 196.681)"/><circle class="e" cx="2.265" cy="2.265" r="2.265" transform="translate(71.044)"/><path class="e" d="M487.749,240.736a3.03,3.03,0,1,1-3.031-3.031A3.03,3.03,0,0,1,487.749,240.736Z" transform="translate(-258.177 -135.427)"/><path class="e" d="M153.583,184.71a3.03,3.03,0,1,1-3.03-3.03A3.03,3.03,0,0,1,153.583,184.71Z" transform="translate(-147.522 -116.875)"/></g><g transform="translate(0 17.901)"><rect class="f" width="4.699" height="4.699" rx="0.664"/><rect class="f" width="4.699" height="4.699" rx="0.664" transform="translate(6.286)"/><rect class="f" width="4.699" height="4.699" rx="0.664" transform="translate(12.572)"/></g><g transform="translate(320.104 182.931)"><g transform="translate(0 0)"><rect class="f" width="4.699" height="4.699" rx="0.664"/><rect class="f" width="4.699" height="4.699" rx="0.664" transform="translate(6.286)"/><rect class="f" width="4.699" height="4.699" rx="0.664" transform="translate(12.572)"/></g></g><g transform="translate(29.506 180.356)"><g transform="translate(0 0)"><rect class="f" width="4.699" height="4.699" rx="0.664"/><rect class="f" width="4.699" height="4.699" rx="0.664" transform="translate(6.286)"/><rect class="f" width="4.699" height="4.699" rx="0.664" transform="translate(12.572)"/></g></g></g><g transform="translate(139.96 4.467)"><rect class="g" width="119.058" height="229.995" rx="9"/><rect class="h" width="114.599" height="224.713" rx="9" transform="translate(2.229 2.014)"/><path class="i" d="M401.4,94.92V294.385a8.47,8.47,0,0,1-8.47,8.47H305.3a8.471,8.471,0,0,1-8.47-8.47V94.92a8.471,8.471,0,0,1,8.47-8.471h14.612a2.142,2.142,0,0,1,1.916,1.183l1.552,3.1a4.186,4.186,0,0,0,3.754,2.324H371.1a4.185,4.185,0,0,0,3.754-2.324l1.552-3.1a2.143,2.143,0,0,1,1.916-1.183h14.612A8.471,8.471,0,0,1,401.4,94.92Z" transform="translate(-289.587 -80.791)"/><path class="j" d="M384.315,89.431H348.909a1.49,1.49,0,0,1-1.49-1.491h0a1.49,1.49,0,0,1,1.49-1.491h35.406a1.491,1.491,0,0,1,1.491,1.491h0A1.491,1.491,0,0,1,384.315,89.431Z" transform="translate(-306.338 -80.791)"/><rect class="k" width="89.996" height="39.029" rx="8.379" transform="translate(13.511 176.113)"/><rect class="k" width="47.169" height="27.402" rx="6.044" transform="translate(50.783 91.968)"/><g transform="translate(13.511 122.409)"><rect class="l" width="90.353" height="43.679" rx="7.201" transform="translate(3.276 3.534)"/><path class="m" d="M396.2,265.809v34.065a4.8,4.8,0,0,1-4.809,4.8H311.009a4.8,4.8,0,0,1-4.809-4.8V265.809A4.81,4.81,0,0,1,311.009,261h80.377A4.81,4.81,0,0,1,396.2,265.809Z" transform="translate(-306.2 -261)"/><rect class="h" width="30.182" height="30.182" rx="4.861" transform="translate(4.158 9.945)"/><g transform="translate(37.272 11.71)"><path class="n" d="M383.805,280.561H362.951a1.027,1.027,0,0,1-1.027-1.027h0a1.027,1.027,0,0,1,1.027-1.027h20.854a1.027,1.027,0,0,1,1.027,1.027h0A1.027,1.027,0,0,1,383.805,280.561Z" transform="translate(-361.924 -278.508)"/><path class="n" d="M374.3,286.691H362.951a1.027,1.027,0,0,1-1.027-1.027h0a1.027,1.027,0,0,1,1.027-1.027H374.3a1.027,1.027,0,0,1,1.027,1.027h0A1.027,1.027,0,0,1,374.3,286.691Z" transform="translate(-361.924 -280.537)"/><path class="n" d="M416.883,286.691H386.168a1.027,1.027,0,0,1-1.027-1.027h0a1.027,1.027,0,0,1,1.027-1.027h30.715a1.027,1.027,0,0,1,1.027,1.027h0A1.027,1.027,0,0,1,416.883,286.691Z" transform="translate(-369.612 -280.537)"/><path class="n" d="M380.514,292.82H362.951a1.027,1.027,0,0,1-1.027-1.027h0a1.027,1.027,0,0,1,1.027-1.027h17.563a1.027,1.027,0,0,1,1.027,1.027h0A1.027,1.027,0,0,1,380.514,292.82Z" transform="translate(-361.924 -282.567)"/><path class="n" d="M406.031,292.82H394.99a1.027,1.027,0,0,1-1.027-1.027h0a1.027,1.027,0,0,1,1.027-1.027h11.041a1.027,1.027,0,0,1,1.027,1.027h0A1.027,1.027,0,0,1,406.031,292.82Z" transform="translate(-372.533 -282.567)"/><path class="n" d="M427.056,292.82H416.888a1.027,1.027,0,0,1-1.027-1.027h0a1.027,1.027,0,0,1,1.027-1.027h10.168a1.027,1.027,0,0,1,1.027,1.027h0A1.027,1.027,0,0,1,427.056,292.82Z" transform="translate(-379.785 -282.567)"/><path class="n" d="M409.2,298.949H362.951a1.026,1.026,0,0,1-1.027-1.027h0a1.026,1.026,0,0,1,1.027-1.027H409.2a1.027,1.027,0,0,1,1.027,1.027h0A1.027,1.027,0,0,1,409.2,298.949Z" transform="translate(-361.924 -284.597)"/><path class="n" d="M388.4,305.078H362.951a1.026,1.026,0,0,1-1.027-1.027h0a1.027,1.027,0,0,1,1.027-1.027H388.4a1.027,1.027,0,0,1,1.027,1.027h0A1.027,1.027,0,0,1,388.4,305.078Z" transform="translate(-361.924 -286.626)"/><path class="n" d="M423.827,305.078h-16.69a1.027,1.027,0,0,1-1.027-1.027h0a1.027,1.027,0,0,1,1.027-1.027h16.69a1.027,1.027,0,0,1,1.027,1.027h0A1.027,1.027,0,0,1,423.827,305.078Z" transform="translate(-376.556 -286.626)"/><path class="n" d="M377.9,311.207H362.951a1.027,1.027,0,0,1-1.027-1.027h0a1.027,1.027,0,0,1,1.027-1.027H377.9a1.027,1.027,0,0,1,1.027,1.027h0A1.027,1.027,0,0,1,377.9,311.207Z" transform="translate(-361.924 -288.656)"/><path class="n" d="M406.312,311.207H391.359a1.026,1.026,0,0,1-1.027-1.027h0a1.027,1.027,0,0,1,1.027-1.027h14.954a1.027,1.027,0,0,1,1.027,1.027h0A1.027,1.027,0,0,1,406.312,311.207Z" transform="translate(-371.331 -288.656)"/><path class="n" d="M427.794,311.207h-8.677a1.027,1.027,0,0,1-1.027-1.027h0a1.027,1.027,0,0,1,1.027-1.027h8.677a1.027,1.027,0,0,1,1.027,1.027h0A1.027,1.027,0,0,1,427.794,311.207Z" transform="translate(-380.523 -288.656)"/><path class="n" d="M383.805,317.337H362.951a1.027,1.027,0,0,1-1.027-1.027h0a1.027,1.027,0,0,1,1.027-1.027h20.854a1.028,1.028,0,0,1,1.027,1.027h0A1.028,1.028,0,0,1,383.805,317.337Z" transform="translate(-361.924 -290.686)"/><path class="n" d="M421.765,280.561H400.91a1.027,1.027,0,0,1-1.027-1.027h0a1.027,1.027,0,0,1,1.027-1.027h20.855a1.027,1.027,0,0,1,1.027,1.027h0A1.027,1.027,0,0,1,421.765,280.561Z" transform="translate(-374.494 -278.508)"/></g><path class="g" d="M396.2,265.809v1.431h-90v-1.431A4.81,4.81,0,0,1,311.009,261h80.377A4.81,4.81,0,0,1,396.2,265.809Z" transform="translate(-306.2 -261)"/><g transform="translate(70.803 2.118)"><path class="j" d="M414.285,265.281a1.115,1.115,0,1,1-1.115-1.114A1.115,1.115,0,0,1,414.285,265.281Z" transform="translate(-412.055 -264.167)"/><path class="j" d="M422.813,265.281a1.115,1.115,0,1,1-1.115-1.114A1.115,1.115,0,0,1,422.813,265.281Z" transform="translate(-414.879 -264.167)"/><path class="j" d="M431.341,265.281a1.115,1.115,0,1,1-1.115-1.114A1.115,1.115,0,0,1,431.341,265.281Z" transform="translate(-417.703 -264.167)"/></g></g><g transform="translate(18.779 91.993)"><rect class="o" width="27.377" height="27.377" rx="7.151"/><g transform="translate(5.474 9.729)"><path class="p" d="M326.2,230.071l-3.944,3.944,3.975,3.975" transform="translate(-322.26 -230.071)"/><path class="p" d="M340.911,230.071l3.944,3.944-3.975,3.975" transform="translate(-328.426 -230.071)"/><line class="p" x1="3.694" y2="7.92" transform="translate(6.368)"/></g></g><g transform="translate(13.511 19.698)"><rect class="q" width="89.996" height="66.639" rx="8.18"/><circle class="i" cx="13.043" cy="13.043" r="13.043" transform="translate(58.726 4.555)"/><path class="h" d="M359.1,181.524H311.671a5.474,5.474,0,0,1-5.471-5.471v-8.769l20.755-35.951a2.819,2.819,0,0,1,4.883,0l15.671,27.142,11.638,20.16A2.766,2.766,0,0,1,359.1,181.524Z" transform="translate(-306.2 -114.885)"/><path class="i" d="M393.416,188.881H348.06l13.31-23.049,7.17-12.421a2.536,2.536,0,0,1,4.394,0Z" transform="translate(-320.061 -122.243)"/></g></g><g transform="translate(243.975 93.934)"><g transform="translate(37.846 100.364)"><rect class="r" width="34.966" height="52.548"/><rect class="s" width="13.388" height="52.548" transform="translate(48.354 52.548) rotate(180)"/><g transform="translate(36.883 2.018)"><rect class="h" width="9.83" height="1.677"/><rect class="h" width="9.83" height="1.677" transform="translate(0 3.603)"/><rect class="h" width="9.83" height="1.677" transform="translate(0 7.205)"/><rect class="h" width="9.83" height="1.677" transform="translate(0 10.808)"/><rect class="h" width="9.83" height="1.677" transform="translate(0 14.411)"/><rect class="h" width="9.83" height="1.677" transform="translate(0 18.013)"/><rect class="h" width="9.83" height="1.677" transform="translate(0 21.616)"/><rect class="h" width="9.83" height="1.677" transform="translate(0 25.219)"/><rect class="h" width="9.83" height="1.677" transform="translate(0 28.821)"/><rect class="h" width="9.83" height="1.677" transform="translate(0 32.424)"/><rect class="h" width="9.83" height="1.677" transform="translate(0 36.027)"/><rect class="h" width="9.83" height="1.677" transform="translate(0 39.629)"/><rect class="h" width="9.83" height="1.677" transform="translate(0 43.232)"/><rect class="h" width="9.83" height="1.677" transform="translate(0 46.835)"/></g></g><path class="t" d="M489.589,436.856h17.77a9.694,9.694,0,0,0-1.159-7.085s-1.43,1.147-5.715.371a19.059,19.059,0,0,1-3.023,2.112C496.221,432.854,489.11,434.251,489.589,436.856Z" transform="translate(-457.423 -283.944)"/><path class="g" d="M491.253,363.666c1.148,6.848,6.444,30.019,8.721,43.706a20.886,20.886,0,0,0,7.218-.367c-.207-4.773-.618-16.19-.57-21.2.079-8.462.476-19.62-3.249-25.744l-12.525.986c.076.661.146,1.2.207,1.584C491.115,363,491.184,363.343,491.253,363.666Z" transform="translate(-457.847 -260.861)"/><path class="t" d="M441.533,436.856H459.3a9.694,9.694,0,0,0-1.159-7.085s-1.431,1.147-5.715.371a19.075,19.075,0,0,1-3.023,2.112C448.165,432.854,441.054,434.251,441.533,436.856Z" transform="translate(-441.509 -283.944)"/><path class="u" d="M457.066,404.933a20.386,20.386,0,0,0,7.02.628c.945-5.5,2.437-17.608,3.78-23.282,2.084-8.82,4.124-20.95,2.707-25.278l-12.32-3.094C458.211,354.3,457.209,391.42,457.066,404.933Z" transform="translate(-446.661 -258.822)"/><path class="u" d="M506.673,332.939h0c-.247-2.435-.532-4.213-.532-4.213L492.376,332.1l-11.693,2.664c-4.335.966-9.571,2.128-14.189,3.172-5.18,1.177-8.62,5.112-7.485,10.3l1.3,6.292c7.246-.1,41.312-3.364,44.226-4.836C507.826,348.024,508.817,342.146,506.673,332.939Z" transform="translate(-447.232 -250.484)"/><path class="g" d="M537.4,332.526h0a19.018,19.018,0,0,0-1.435-5.047l-12.863,4.2L511.4,334.346c-4.335.966-9.572,2.128-14.189,3.172-5.18,1.177-8.62,5.112-7.485,10.3l1.3,6.292c7.245-.1,37.53-1.154,44.226-4.836C538.487,347.5,539.539,341.733,537.4,332.526Z" transform="translate(-457.405 -250.071)"/><g transform="translate(21.225 61.502)"><path class="v" d="M493.479,304.923s6.114-2.762,7.8.008c.921,1.516.284,4.333-1.8,5.515a142.63,142.63,0,0,1-24.99,8.945,26.981,26.981,0,0,0-1.241-3.173,58.559,58.559,0,0,0,9.949-5.553,63.425,63.425,0,0,1,10.286-5.743Z" transform="translate(-473.243 -303.698)"/></g><path class="v" d="M503.188,276.985l-5.24,20.93s.541,5.291,5.885,2.694,8.885-19.271,8.885-19.271Z" transform="translate(-460.198 -233.351)"/><path class="w" d="M513.453,282.725c-.648-.156-1.267-.328-1.864-.507s-1.193-.365-1.744-.559a29.4,29.4,0,0,1-7.67-3.757,54.965,54.965,0,0,1,5.128-14.386,2.12,2.12,0,0,0,.127-.223l.134-.223a13.09,13.09,0,0,1,3.645-3.794l.44-.306.619,10.927.1,1.125Z" transform="translate(-461.598 -227.385)"/><path class="x" d="M517.25,288.024c-.648-.156-1.267-.328-1.863-.507s-1.193-.365-1.744-.559c1.045-7.361,1.99-11.986,1.99-11.986l.536,1.349Z" transform="translate(-465.395 -232.684)"/><path class="w" d="M548.238,261.791c-.127,3.235-.694,8.43-1.185,13.648-.157,1.655-.306,3.317-.433,4.92-.089,1-1.594,6.329-1.655,7.283-.268,4.562-2.5,7.976-.387,14.922a10.934,10.934,0,0,1,.633,3.205c0,.477-.619.977-.864,1.111a14.6,14.6,0,0,1-4.748,1.133h-.007a123.163,123.163,0,0,1-13.179.6c-4.554,0-11.389-.723-12.254-1.871-.79-1.051-.06-2.579.313-4.689,1.677-9.519,1.081-14.482.977-21.355,0-.171-.007-.343-.007-.522-.171-10.6-.872-19.671-.38-22.943l.44-.306c.723-.492,1.431-.932,2.117-1.32.06-.029.134-.074.209-.119.209-.119.425-.231.626-.343a2.4,2.4,0,0,1,.239-.119,51.928,51.928,0,0,1,5.083-2.005c.164-.052.313-.1.44-.142,1.215-.074,2.534-.089,3.958-.051,1.237.037,3.131.2,5.188.469h.007a53.606,53.606,0,0,1,6.887,1.289.4.4,0,0,1,.037.015,14.177,14.177,0,0,1,5.419,3.794A18.361,18.361,0,0,1,548.238,261.791Z" transform="translate(-465.449 -225.346)"/><path class="w" d="M556.86,310.465a10.929,10.929,0,0,1,.633,3.205c0,.477-.619.977-.864,1.111a14.6,14.6,0,0,1-4.748,1.133,3.366,3.366,0,0,0,2.378-2.736c0-.874-1.133-6.776-.82-10.585s.932-9.854-.246-14.7-2.3-11.218-2.3-11.218l6.641,4.01s.858,1.2,1.8,2.653c-.156,1.655-.306,3.317-.433,4.92C558.813,289.259,554.743,303.518,556.86,310.465Z" transform="translate(-477.732 -233.249)"/><g transform="translate(46.791)"><path class="y" d="M516.13,224.354s.574,6.946,2.877,7.413,1.738-2.485,1.738-2.485l-.322-3.3Z" transform="translate(-513.01 -215.923)"/><path class="v" d="M530.507,253.373c-4.51-.537-2.825-4.92-2.207-5.926.164-.052.939-.29,1-.328a.025.025,0,0,1,.015-.007,1.236,1.236,0,0,0,.35-.522,10.7,10.7,0,0,0,.224-3.608v-.425c.074-.276.149-.537.209-.783l2.37-1.863,5.016-3.944s-1.334,6.6-.261,10.756a1.568,1.568,0,0,0,.664,1c0,.007.008,0,.008,0a1.214,1.214,0,0,0,.5.179C539.623,248.483,537.909,254.253,530.507,253.373Z" transform="translate(-516.767 -219.768)"/><path class="z" d="M535.563,242.236a7.482,7.482,0,0,1-4.82,6.426,10.572,10.572,0,0,0,.225-3.6l2-1.572Z" transform="translate(-517.849 -221.844)"/><path class="v" d="M517.776,222.419s1.043,14.412,4.934,15.637a10.121,10.121,0,0,0,8.517-4.322c1.026-1.38,2.322-1.69,2.745-3.356.688-2.706,1.657-7.7.42-10.705C532.631,215.39,517.943,211.988,517.776,222.419Z" transform="translate(-513.555 -212.999)"/><path class="y" d="M532.362,216.044a4.238,4.238,0,0,0-2.714-3.6c-2.638-1.235-8.12-.7-13.772.559-1.325.3-2.988-.518-3.914.124-1.118.776,0,4.321,0,4.321,2.181,6.6,10.2,4.455,12.613,3.641.573,1.7.5,4.063,1.929,5.282.814.695,2.23.714,3.669.475.177.336.843.633.978,1.1a23.335,23.335,0,0,1,.375,5.819l.68-.332C532.291,232.928,539.328,216.26,532.362,216.044Z" transform="translate(-511.465 -211.748)"/><g transform="translate(4.799 11.496)"><path class="aa" d="M522.054,232.149a1.765,1.765,0,1,1-2.055-1.88A2,2,0,0,1,522.054,232.149Z" transform="translate(-518.64 -229.37)"/><path class="aa" d="M529.084,230.835a1.765,1.765,0,1,1-2.056-1.88A2,2,0,0,1,529.084,230.835Z" transform="translate(-520.968 -228.935)"/><path class="aa" d="M523.744,232.961s.206-.335,1.289-.241" transform="translate(-520.33 -230.183)"/><line class="aa" y1="0.642" x2="4.02" transform="translate(8.156 1.544)"/></g><g transform="translate(16.121 12.073)"><path class="v" d="M536.717,235.868c2.768,1.06,3.633-5.753,1-6.055-1.993-.229-2.075,2.552-2.075,2.552S535.136,235.262,536.717,235.868Z" transform="translate(-535.568 -229.799)"/></g><g class="ab" transform="translate(17.246 13.114)"><path class="ac" d="M538.187,231.355s-1.635.866-.586,3.522" transform="translate(-537.25 -231.355)"/><path class="ac" d="M538.631,233.289a1.446,1.446,0,0,0-1.344,1" transform="translate(-537.262 -231.995)"/></g></g><path class="v" d="M570.071,298.734v.007c-1.217,1.411-5.833,2.44-8.054.488a12.892,12.892,0,0,1-2.26-4.294,132.965,132.965,0,0,1-3.834-12.977l10.331-5.279s1.329,5.96,2.474,11.623c0,0,.01.057.031.158.373,1.814.72,3.6.992,5.13a.709.709,0,0,1,.02.122A21.7,21.7,0,0,1,570.071,298.734Z" transform="translate(-479.396 -233.249)"/><path class="w" d="M550.089,268.276a124.081,124.081,0,0,0,4.134,12.01,16.364,16.364,0,0,0,7.582-.917,13.97,13.97,0,0,0,4.83-3.137s-2.08-5.845-3.946-10.044c-1.675-3.77-2.681-5.177-3.407-5.924a16.416,16.416,0,0,0-4.1-3.051Z" transform="translate(-477.464 -226.803)"/><path class="w" d="M564.254,270.415l-6.062-2.616-4.777-12.308s.876.266,2.029.732h.005c.022.011.072.027.155.061a.634.634,0,0,1,.088.039c1.031.482,5.026,2.837,7.792,11.394l.066.216c.294.987.51,1.779.626,2.189.011.039.023.078.033.122S564.238,270.36,564.254,270.415Z" transform="translate(-478.565 -226.233)"/><g transform="translate(51.903 54.899)"><path class="v" d="M561.346,304.413v.007c-.089.757-.3,1.3-.672,1.493-.06.038-.908.543-.967.581a51.562,51.562,0,0,1-6.4,3.312,232.013,232.013,0,0,1-22.363,8.035,26.365,26.365,0,0,0-1.368-3.122,58.592,58.592,0,0,0,9.708-5.96c4.819-3.678,11.75-8.146,11.75-8.146l1.75-2.059S559,292.827,560,293.979c0,0,.01.057.031.158.149.6.642,2.794.992,5.129a.709.709,0,0,1,.02.122A21.7,21.7,0,0,1,561.346,304.413Z" transform="translate(-522.574 -293.826)"/><path class="v" d="M526.823,324.116a3.849,3.849,0,0,1-2.456.472c-.686-.144-.963-.425-1.47-.514a11.415,11.415,0,0,1-2.526-.584c-.668-.328-.929-.365-.906.307s1.342,1.251,1.7,1.437a3.385,3.385,0,0,1,.855.856c.049.075-2.2,1.251-2.8,1.012a1.749,1.749,0,0,0-.077.843c.1.3.564.408.6.56s-.106.462-.006.7.512.241.679.633-.017.4.1.806.643.482.742.692.047.457.266.6a10.186,10.186,0,0,0,2.978-.819c.737-.316,2.709-3.154,4.89-4.121Z" transform="translate(-519.109 -303.574)"/></g><path class="g" d="M538.3,342.716H522.585v-1.538H538.3a.769.769,0,0,1,.769.769h0A.769.769,0,0,1,538.3,342.716Z" transform="translate(-468.357 -254.607)"/><path class="g" d="M509.381,328.111H470.03a1.048,1.048,0,0,1-1.011-.769l-8.054-28.993a1.007,1.007,0,0,1,.97-1.277h38.054a1.974,1.974,0,0,1,1.9,1.446l8.025,28.889A.555.555,0,0,1,509.381,328.111Z" transform="translate(-447.939 -240.002)"/><path class="ad" d="M507.251,328.111H467.9a1.05,1.05,0,0,1-1.011-.769l-8.054-28.993a1.007,1.007,0,0,1,.971-1.277h38.053a1.974,1.974,0,0,1,1.9,1.446l8.025,28.889A.555.555,0,0,1,507.251,328.111Z" transform="translate(-447.234 -240.002)"/></g><g transform="translate(71.933 131.517)"><path class="ae" d="M298.064,309.4l4.558-4.673a12.229,12.229,0,0,1,.406-2.524,11.6,11.6,0,0,1,1.209-2.245,1.651,1.651,0,0,1,.958,0,4.389,4.389,0,0,1,.917-.213,2.689,2.689,0,0,1,.815.259s.682-.046.965-.046a.605.605,0,0,1,.375.08,20.143,20.143,0,0,1,1.631-1.69c.532-.425,1.346-1.21,1.588-1.207s.328.4.162.829a4.722,4.722,0,0,1-.886,1.113l-2.077,3.147a4.465,4.465,0,0,0,.544-.26c.189-.118,1.456-1.3,1.533-1.349s.644-.425.976-.047-2.174,3.38-2.577,3.782a21.948,21.948,0,0,1-2.706,1.568s-2.432,4.375-2.669,4.659S298.064,309.4,298.064,309.4Z" transform="translate(-221.967 -277.608)"/><path class="ae" d="M296.095,279.4s-2.546,14.75-4.943,15.092c0,0-9.568.386-11.7-11.221-1.849-10.066,5.566-12.212,9.033-11.442S296.839,273.1,296.095,279.4Z" transform="translate(-215.708 -269.178)"/><path class="ae" d="M287.147,298.286s-1.34,1.807-1.81,6.183a14.2,14.2,0,0,1-7.658-1.322,54.207,54.207,0,0,0,2.223-12.876" transform="translate(-215.217 -275.334)"/><path class="y" d="M283.957,268.117c-5.228,1.155-4.81,4.413-4.81,4.413-2.447.606-2.974,1.617-2.954,6.135s1.655,9.944,2.557,10.385,6.013.463,6.44.308,2.215-4.3,1.8-5.029.021-3.6,1.211-3.706.957,1.736.957,1.736l.979-.215.756-1.853c6.909.411,8.694-7.462,8.694-7.462C297.925,271.747,289.186,266.961,283.957,268.117Z" transform="translate(-214.725 -267.938)"/><path class="v" d="M199.568,417.456l5.287.764-1.751,6.174-5.725-1.444a3.722,3.722,0,0,1,1.187-5.493A1.925,1.925,0,0,1,199.568,417.456Z" transform="translate(-188.376 -317.426)"/><path class="n" d="M241.489,381.917,233.7,358.324s-2.362-.841-3.571,0c0,0-8.117,4.365-7.252,16.811a203.355,203.355,0,0,0,3.437,23.64l-20.789-.769a7.083,7.083,0,0,0-.906,7.017s26.123,7.026,29.8,7.674c2.99.528,6.264.935,7.844-.419C245.048,409.893,241.489,381.917,241.489,381.917Z" transform="translate(-190.838 -297.744)"/><path class="v" d="M236.369,417.456l5.287.764-1.751,6.174-5.725-1.444a3.722,3.722,0,0,1,1.187-5.493A1.926,1.926,0,0,1,236.369,417.456Z" transform="translate(-200.562 -317.426)"/><path class="af" d="M230.369,419.908c-.118,1.215.945,2.31.75,2.613s-3.748,6.265-3.748,6.265,2.683,1.168,2.25,2.856h-6.794a5.64,5.64,0,0,1-1.731-3.895,19.708,19.708,0,0,1,1.674-4.976c1.211-2.337,3.966-7.613,3.966-7.613A3.847,3.847,0,0,1,229,415.2a13.736,13.736,0,0,1,3.287,1.47S230.661,416.9,230.369,419.908Z" transform="translate(-196.48 -316.642)"/><path class="ag" d="M291.039,407.507c-1.678-6.259-17.461-32.981-22.8-40.2-10.967-4.762-22.656-8.8-22.656-8.8-4.834,1.154-7.215,10.9-4.473,17.389,1.881,4.455,13.813,15.667,21.121,22.268l-20.277-.024s-2.389,3.57-.224,6.962c0,0,33.725,7.669,36.683,8.1a67.222,67.222,0,0,0,9.6,0S292.451,412.776,291.039,407.507Z" transform="translate(-202.724 -297.929)"/><path class="af" d="M193.568,419.908c-.118,1.215.945,2.31.75,2.613s-3.749,6.265-3.749,6.265,2.684,1.168,2.251,2.856h-6.794a5.637,5.637,0,0,1-1.731-3.895,19.709,19.709,0,0,1,1.674-4.976c1.211-2.337,3.966-7.613,3.966-7.613a3.846,3.846,0,0,1,2.265.044,13.751,13.751,0,0,1,3.287,1.47S193.86,416.9,193.568,419.908Z" transform="translate(-184.294 -316.642)"/><path class="ae" d="M341.858,308.679,330.982,327.81l-7.79-7.764-6.447,9.6,1.872.9-.674.56s15.032,7.321,16.833,5.706,10.194-25.954,10.194-25.954Z" transform="translate(-228.153 -281.429)"/><path class="ad" d="M299.1,319.528s-2.053,8.662-6.16,12.769l-10.508-4s-4.876,8.2-9.645,14.488c-1.833,2.428-2.441,5.846-4.6,6.294-.134-.047-.261-.087-.395-.12-5.839-1.752-14.454.107-21.564-2.535-7.852-2.923-6.327-4.568-6.327-4.568a101.434,101.434,0,0,0,7.465-17.671,108.354,108.354,0,0,0,2.6-10.655,12.268,12.268,0,0,1,10.327-9.879c.06-.007.114-.02.174-.027,5.953-.756,21.537,1.084,24.567,2.381S299.1,319.528,299.1,319.528Z" transform="translate(-202.668 -279.696)"/><path class="ah" d="M296.49,339.912s-4.876,8.2-9.645,14.488c-1.833,2.428-2.441,5.846-4.6,6.294.943-.334,2.508-5.3,3.063-6.414s1.451-2.227,3.378-6.127,4.526-9.631,4.526-9.631Z" transform="translate(-216.731 -291.311)"/><path class="ai" d="M273.26,417.8a34.028,34.028,0,0,1,10.482,1.506" transform="translate(-213.754 -317.559)"/><path class="ae" d="M362.107,296.456a10.176,10.176,0,0,0-1.829,1.319l.62-1.187a11.688,11.688,0,0,0,1.115-1.227c.3-.435.14-.87-.093-.893a9.111,9.111,0,0,0-1.713,1.225l.125-.239a11.69,11.69,0,0,0,1.115-1.227c.295-.435.14-.87-.093-.893a14.678,14.678,0,0,0-2.12,1.56l-.919,1.23.692-1.345a5.808,5.808,0,0,0,.609-.932c.243-.486.068-.635-.068-.8s-1.405.784-1.73,1.162a19.6,19.6,0,0,0-1.432,2.128l-1.062,2.2c-.068-.636-.174-1.725-.249-2.419-.108-1-1.013-1.237-1.045-.75a25.446,25.446,0,0,0-.421,4.175c.114,1.3.331,2.148.412,2.878a5.73,5.73,0,0,1-.676,2.188s3.027,1.879,3.528,1.317a23.631,23.631,0,0,0,2.08-2.653,14.127,14.127,0,0,0,1.185-2.675l.946-2.021a11.68,11.68,0,0,0,1.115-1.227C362.5,296.913,362.34,296.478,362.107,296.456Z" transform="translate(-240.274 -276.247)"/></g><g transform="translate(327.891 90.807)"><path class="aj" d="M606.581,207.074H571.089a4.119,4.119,0,0,0-4.119,4.119v8.384a4.12,4.12,0,0,0,3.6,4.087.593.593,0,0,1,.52.589v4.59a.273.273,0,0,0,.5.159l3.615-5.055a.6.6,0,0,1,.487-.251h30.9a4.119,4.119,0,0,0,4.119-4.119v-8.384A4.119,4.119,0,0,0,606.581,207.074Z" transform="translate(-566.97 -207.074)"/><g transform="translate(6.852 6.942)"><path class="aj" d="M579.926,218.809a1.356,1.356,0,1,1-1.357-1.356A1.356,1.356,0,0,1,579.926,218.809Z" transform="translate(-577.214 -217.453)"/><path class="aj" d="M590.135,218.809a1.356,1.356,0,1,1-1.356-1.356A1.356,1.356,0,0,1,590.135,218.809Z" transform="translate(-580.595 -217.453)"/><path class="aj" d="M600.344,218.809a1.356,1.356,0,1,1-1.356-1.356A1.355,1.355,0,0,1,600.344,218.809Z" transform="translate(-583.976 -217.453)"/><path class="aj" d="M610.554,218.809a1.356,1.356,0,1,1-1.356-1.356A1.356,1.356,0,0,1,610.554,218.809Z" transform="translate(-587.356 -217.453)"/><path class="aj" d="M620.763,218.809a1.356,1.356,0,1,1-1.356-1.356A1.355,1.355,0,0,1,620.763,218.809Z" transform="translate(-590.737 -217.453)"/></g></g><g transform="translate(82.928 127.566)"><path class="aj" d="M204.852,262.031h35.493a4.118,4.118,0,0,1,4.118,4.118v8.385a4.119,4.119,0,0,1-3.6,4.086.594.594,0,0,0-.52.59v4.59a.273.273,0,0,1-.495.159l-3.615-5.055a.6.6,0,0,0-.487-.25h-30.9a4.119,4.119,0,0,1-4.119-4.119v-8.385A4.119,4.119,0,0,1,204.852,262.031Z" transform="translate(-200.733 -262.031)"/><g transform="translate(6.852 6.942)"><path class="aj" d="M251.814,273.766a1.356,1.356,0,1,0,1.356-1.356A1.356,1.356,0,0,0,251.814,273.766Z" transform="translate(-224.5 -272.41)"/><path class="aj" d="M241.6,273.766a1.356,1.356,0,1,0,1.356-1.356A1.356,1.356,0,0,0,241.6,273.766Z" transform="translate(-221.119 -272.41)"/><path class="aj" d="M231.4,273.766a1.356,1.356,0,1,0,1.356-1.356A1.356,1.356,0,0,0,231.4,273.766Z" transform="translate(-217.738 -272.41)"/><path class="aj" d="M221.186,273.766a1.356,1.356,0,1,0,1.356-1.356A1.356,1.356,0,0,0,221.186,273.766Z" transform="translate(-214.358 -272.41)"/><path class="aj" d="M210.977,273.766a1.356,1.356,0,1,0,1.356-1.356A1.356,1.356,0,0,0,210.977,273.766Z" transform="translate(-210.977 -272.41)"/></g></g><g transform="translate(230.246 58.544)"><path class="ak" d="M492.134,171.758h-64.69a6.46,6.46,0,0,1-6.46-6.46h0a6.46,6.46,0,0,1,6.46-6.46h64.69a6.46,6.46,0,0,1,6.46,6.46h0A6.46,6.46,0,0,1,492.134,171.758Z" transform="translate(-420.984 -158.838)"/><g transform="translate(63.331 2.579)"><path class="al" d="M522.539,166.13a3.435,3.435,0,1,1-3.435-3.436A3.435,3.435,0,0,1,522.539,166.13Z" transform="translate(-515.669 -162.694)"/><line class="am" x2="1.897" y2="1.897" transform="translate(5.864 5.865)"/></g></g><g transform="translate(39.058 0)"><g transform="translate(138.07 220.572)"><rect class="ah" width="26.585" height="26.585" rx="7.708" transform="translate(4.845)"/><rect class="ad" width="26.585" height="26.585" rx="7.708" transform="translate(0)"/><path class="h" d="M356.222,413.406l7.632,4.406a.707.707,0,0,1,0,1.224l-7.632,4.406a.706.706,0,0,1-1.059-.612v-8.812A.706.706,0,0,1,356.222,413.406Z" transform="translate(-346.07 -405.131)"/></g><g transform="translate(298.339 212.404)"><rect class="g" width="34.753" height="34.753" rx="10.076" transform="translate(6.334)"/><rect class="an" width="34.753" height="34.753" rx="10.076"/><path class="h" d="M609.271,399.551a4.175,4.175,0,1,1-4.176-4.176A4.176,4.176,0,0,1,609.271,399.551Z" transform="translate(-587.719 -391.024)"/><path class="h" d="M611.557,418.445v6.164a1.009,1.009,0,0,1-1.008,1.009H595.157a1.009,1.009,0,0,1-1.009-1.009v-6.164a8.7,8.7,0,0,1,8.7-8.7h0A8.7,8.7,0,0,1,611.557,418.445Z" transform="translate(-585.476 -395.781)"/></g><g transform="translate(223.305 76.852)"><path class="af" d="M483.692,188.263H470.028A1.027,1.027,0,0,1,469,187.237h0a1.027,1.027,0,0,1,1.027-1.027h13.664a1.027,1.027,0,0,1,1.027,1.027h0A1.026,1.026,0,0,1,483.692,188.263Z" transform="translate(-469.001 -186.21)"/><path class="af" d="M506,188.263H496.11a1.027,1.027,0,0,1-1.027-1.027h0a1.027,1.027,0,0,1,1.027-1.027H506a1.027,1.027,0,0,1,1.027,1.027h0A1.027,1.027,0,0,1,506,188.263Z" transform="translate(-477.638 -186.21)"/><path class="af" d="M475.833,195.013h-5.806A1.027,1.027,0,0,1,469,193.987h0a1.027,1.027,0,0,1,1.027-1.027h5.806a1.027,1.027,0,0,1,1.027,1.027h0A1.027,1.027,0,0,1,475.833,195.013Z" transform="translate(-469.001 -188.445)"/><path class="af" d="M501.942,195.013H483.86a1.027,1.027,0,0,1-1.027-1.027h0a1.027,1.027,0,0,1,1.027-1.027h18.082a1.027,1.027,0,0,1,1.027,1.027h0A1.026,1.026,0,0,1,501.942,195.013Z" transform="translate(-473.581 -188.445)"/><path class="af" d="M488.04,201.763H470.028A1.027,1.027,0,0,1,469,200.737h0a1.027,1.027,0,0,1,1.027-1.027H488.04a1.027,1.027,0,0,1,1.027,1.027h0A1.026,1.026,0,0,1,488.04,201.763Z" transform="translate(-469.001 -190.68)"/><path class="af" d="M508.019,201.763h-5.805a1.027,1.027,0,0,1-1.027-1.027h0a1.028,1.028,0,0,1,1.027-1.027h5.805a1.027,1.027,0,0,1,1.027,1.027h0A1.026,1.026,0,0,1,508.019,201.763Z" transform="translate(-479.659 -190.68)"/></g><g transform="translate(14.713 154.585)"><rect class="ao" width="52.815" height="29.193" rx="3.823"/><line class="ap" x2="48.325" transform="translate(2.245 3.944)"/><circle class="h" cx="0.585" cy="0.585" r="0.585" transform="translate(48.709 1.352)"/><circle class="h" cx="0.585" cy="0.585" r="0.585" transform="translate(45.657 1.352)"/><circle class="h" cx="0.585" cy="0.585" r="0.585" transform="translate(42.606 1.352)"/><g transform="translate(2.245 6.257)"><path class="an" d="M169.505,313.4h-8.2a.808.808,0,0,1-.808-.808h0a.809.809,0,0,1,.808-.809h8.2a.809.809,0,0,1,.808.809h0A.808.808,0,0,1,169.505,313.4Z" transform="translate(-160.497 -311.781)"/><path class="an" d="M169.505,318.981h-8.2a.808.808,0,0,1-.808-.808h0a.808.808,0,0,1,.808-.808h8.2a.808.808,0,0,1,.808.808h0A.808.808,0,0,1,169.505,318.981Z" transform="translate(-160.497 -313.63)"/><path class="an" d="M169.505,324.565h-8.2a.808.808,0,0,1-.808-.809h0a.808.808,0,0,1,.808-.808h8.2a.808.808,0,0,1,.808.808h0A.808.808,0,0,1,169.505,324.565Z" transform="translate(-160.497 -315.479)"/><path class="an" d="M169.505,330.148h-8.2a.808.808,0,0,1-.808-.808h0a.809.809,0,0,1,.808-.809h8.2a.809.809,0,0,1,.808.809h0A.808.808,0,0,1,169.505,330.148Z" transform="translate(-160.497 -317.327)"/><path class="an" d="M169.505,335.731h-8.2a.808.808,0,0,1-.808-.808h0a.808.808,0,0,1,.808-.808h8.2a.808.808,0,0,1,.808.808h0A.808.808,0,0,1,169.505,335.731Z" transform="translate(-160.497 -319.177)"/><path class="an" d="M169.505,341.315h-8.2a.808.808,0,0,1-.808-.809h0a.808.808,0,0,1,.808-.808h8.2a.808.808,0,0,1,.808.808h0A.808.808,0,0,1,169.505,341.315Z" transform="translate(-160.497 -321.025)"/><g transform="translate(11.371)"><path class="g" d="M213.643,313.4H178.3a.808.808,0,0,1-.808-.808h0a.809.809,0,0,1,.808-.809h35.338a.809.809,0,0,1,.809.809h0A.808.808,0,0,1,213.643,313.4Z" transform="translate(-177.497 -311.781)"/><path class="g" d="M213.643,318.981H178.3a.808.808,0,0,1-.808-.808h0a.808.808,0,0,1,.808-.808h35.338a.808.808,0,0,1,.809.808h0A.808.808,0,0,1,213.643,318.981Z" transform="translate(-177.497 -313.63)"/><path class="g" d="M213.643,324.565H178.3a.808.808,0,0,1-.808-.809h0a.808.808,0,0,1,.808-.808h35.338a.808.808,0,0,1,.809.808h0A.808.808,0,0,1,213.643,324.565Z" transform="translate(-177.497 -315.479)"/><path class="g" d="M213.643,330.148H178.3a.808.808,0,0,1-.808-.808h0a.809.809,0,0,1,.808-.809h35.338a.809.809,0,0,1,.809.809h0A.808.808,0,0,1,213.643,330.148Z" transform="translate(-177.497 -317.327)"/><path class="g" d="M213.643,335.731H178.3a.808.808,0,0,1-.808-.808h0a.808.808,0,0,1,.808-.808h35.338a.808.808,0,0,1,.809.808h0A.808.808,0,0,1,213.643,335.731Z" transform="translate(-177.497 -319.177)"/><path class="g" d="M213.643,341.315H178.3a.808.808,0,0,1-.808-.809h0a.808.808,0,0,1,.808-.808h35.338a.808.808,0,0,1,.809.808h0A.808.808,0,0,1,213.643,341.315Z" transform="translate(-177.497 -321.025)"/></g></g></g><g transform="translate(265.229)"><circle class="aq" cx="21.742" cy="21.742" r="21.742" transform="matrix(0.233, -0.972, 0.972, 0.233, 0, 42.287)"/><circle class="ad" cx="18.902" cy="18.902" r="18.902" transform="translate(1.275 16.572) rotate(-23.868)"/><path class="h" d="M571.734,109.643a1.72,1.72,0,1,1-1.72-1.721A1.72,1.72,0,0,1,571.734,109.643Z" transform="translate(-543.805 -83.434)"/><path class="h" d="M567.437,104.525h0a.538.538,0,0,1-.732-.209l-5.559-10.027a.538.538,0,0,1,.209-.732h0a.538.538,0,0,1,.732.209l5.559,10.027A.538.538,0,0,1,567.437,104.525Z" transform="translate(-541.416 -78.655)"/><path class="h" d="M571.2,110.825h0a.538.538,0,0,1,.761,0l4.809,4.81a.538.538,0,0,1,0,.76h0a.537.537,0,0,1-.761,0l-4.809-4.809A.539.539,0,0,1,571.2,110.825Z" transform="translate(-544.714 -84.343)"/><g transform="translate(8.906 8.906)"><line class="ar" y1="2.174" transform="translate(17.419)"/><line class="ar" x2="2.174" transform="translate(32.433 17.419)"/><line class="ar" y2="2.174" transform="translate(17.188 32.433)"/><line class="ar" x1="2.174" transform="translate(0 17.188)"/></g><g class="ab" transform="translate(11.166 11.166)"><line class="as" x1="1.087" y1="1.883" transform="translate(6.492)"/><line class="as" y1="1.087" x2="1.883" transform="translate(28.203 6.492)"/><line class="as" x2="1.087" y2="1.883" transform="translate(22.507 28.203)"/><line class="as" x1="1.883" y2="1.087" transform="translate(0 22.507)"/></g><g class="ab" transform="translate(11.282 11.282)"><line class="as" x1="1.883" y1="1.087" transform="translate(0 6.175)"/><line class="as" y1="1.883" x2="1.087" transform="translate(22.592)"/><line class="as" x2="1.883" y2="1.087" transform="translate(27.972 22.592)"/><line class="as" x1="1.087" y2="1.883" transform="translate(6.175 27.972)"/></g></g><g transform="translate(0 95.771)"><rect class="g" width="36.676" height="36.676" rx="9.569" transform="translate(2.843 3.177)"/><rect class="at" width="36.676" height="36.676" rx="7.667"/><g transform="translate(10.194 5.783)"><path class="h" d="M164.879,231.5h-.191v-2.1a6.253,6.253,0,1,0-12.506,0v2.1h-.042a1.754,1.754,0,0,0-1.754,1.754v7.917a1.755,1.755,0,0,0,1.754,1.755h12.74a1.755,1.755,0,0,0,1.755-1.755v-7.917A1.755,1.755,0,0,0,164.879,231.5Zm-11.114-2.1a4.669,4.669,0,1,1,9.339,0v2.1h-9.339Z" transform="translate(-150.385 -223.141)"/><path class="g" d="M163.591,240.707a2.041,2.041,0,1,0-3.069,1.759.366.366,0,0,1,.185.409l-.355,1.311a1.225,1.225,0,1,0,2.366,0l-.351-1.3a.367.367,0,0,1,.19-.413A2.032,2.032,0,0,0,163.591,240.707Z" transform="translate(-153.407 -228.282)"/><path class="h" d="M165.882,256.123H151.137a.752.752,0,0,1-.752-.753h0a.752.752,0,0,1,.752-.753h14.744a.753.753,0,0,1,.752.753h0A.752.752,0,0,1,165.882,256.123Z" transform="translate(-150.385 -233.564)"/><path class="h" d="M165.882,259.936H151.137a.752.752,0,0,1-.752-.753h0a.752.752,0,0,1,.752-.752h14.744a.752.752,0,0,1,.752.752h0A.753.753,0,0,1,165.882,259.936Z" transform="translate(-150.385 -234.827)"/></g></g><g transform="translate(302.513 155.273)"><g transform="translate(0 0)"><path class="ah" d="M5.634,0H15.958a5.634,5.634,0,0,1,5.634,5.634V15.958a5.633,5.633,0,0,1-5.633,5.633H5.634A5.634,5.634,0,0,1,0,15.958V5.634A5.634,5.634,0,0,1,5.634,0Z" transform="translate(1.673 1.87)"/><rect class="au" width="21.592" height="21.592" rx="4.513"/></g><g transform="translate(4.347 4.347)"><g transform="translate(1.417)"><path class="h" d="M596.711,322.85a.636.636,0,0,1-.183-.025.667.667,0,0,1-.461-.825l3.265-11.559a.669.669,0,1,1,1.287.363l-3.265,11.559A.668.668,0,0,1,596.711,322.85Z" transform="translate(-596.041 -309.953)"/></g><g transform="translate(6.877)"><path class="h" d="M604.873,322.85a.629.629,0,0,1-.182-.025.667.667,0,0,1-.462-.825l3.266-11.559a.669.669,0,1,1,1.287.363l-3.266,11.559A.668.668,0,0,1,604.873,322.85Z" transform="translate(-604.204 -309.953)"/></g><g transform="translate(0 3.161)"><path class="h" d="M606.15,316.017H594.592a.669.669,0,0,1,0-1.338H606.15a.669.669,0,0,1,0,1.338Z" transform="translate(-593.923 -314.679)"/></g><g transform="translate(0 8.441)"><path class="h" d="M606.15,323.911H594.592a.669.669,0,0,1,0-1.338H606.15a.669.669,0,1,1,0,1.338Z" transform="translate(-593.923 -322.573)"/></g></g></g><g transform="translate(52.078 108.315)"><path class="av" d="M222.28,235.083h-8.359a.917.917,0,0,1-.917-.917h0a.917.917,0,0,1,.917-.916h8.359a.916.916,0,0,1,.916.916h0A.917.917,0,0,1,222.28,235.083Z" transform="translate(-213.004 -233.25)"/><path class="av" d="M230.7,241.166h-16.78a.917.917,0,0,1-.917-.916h0a.917.917,0,0,1,.917-.917H230.7a.917.917,0,0,1,.916.917h0A.916.916,0,0,1,230.7,241.166Z" transform="translate(-213.004 -235.264)"/><path class="av" d="M215.9,247.25h-1.982a.917.917,0,0,1-.917-.917h0a.917.917,0,0,1,.917-.916H215.9a.916.916,0,0,1,.916.916h0A.917.917,0,0,1,215.9,247.25Z" transform="translate(-213.004 -237.279)"/><path class="av" d="M233.225,247.25H221.54a.917.917,0,0,1-.916-.917h0a.916.916,0,0,1,.916-.916h11.684a.916.916,0,0,1,.916.916h0A.917.917,0,0,1,233.225,247.25Z" transform="translate(-215.527 -237.279)"/><path class="av" d="M236.5,235.083h-5.067a.917.917,0,0,1-.916-.917h0a.917.917,0,0,1,.916-.916H236.5a.916.916,0,0,1,.916.916h0A.917.917,0,0,1,236.5,235.083Z" transform="translate(-218.803 -233.25)"/></g><path class="ao" d="M158.555,420.575a5.8,5.8,0,0,0-2.98.819,6.251,6.251,0,0,0-12.425,1.389,4.826,4.826,0,0,0-.885-.083,4.774,4.774,0,1,0,0,9.547h16.29a5.836,5.836,0,1,0,0-11.672Z" transform="translate(-135.921 -185.399)"/></g><g transform="translate(0 174.95)"><path class="ad" d="M99.123,368.033a6.152,6.152,0,0,1,.084-2.625,26,26,0,0,0-.294-14.138c-3.124-9.755-15.787-18.4-15.787-18.4s3.437,14.4,6.263,20.526a77.213,77.213,0,0,0,7.7,12.284,6,6,0,0,1,1.1,2.522,105.02,105.02,0,0,1,1.746,20.234l.95.037A106.01,106.01,0,0,0,99.123,368.033Z" transform="translate(-78.861 -332.874)"/><path class="ah" d="M117.777,363.152a113.982,113.982,0,0,0,3.685-17.321s-11.353,9.368-12.284,16.617a24.327,24.327,0,0,0,.774,10.1,6.907,6.907,0,0,1,.268,2.745,96.1,96.1,0,0,0-.234,18.968l.854-.1a94.655,94.655,0,0,1,.135-17.807,7.085,7.085,0,0,1,1.564-3.762A29.736,29.736,0,0,0,117.777,363.152Z" transform="translate(-87.418 -337.165)"/><path class="ad" d="M130.179,345.278s-12.235,4.54-15.434,14.53a26.649,26.649,0,0,0-.266,14.61,5.02,5.02,0,0,1,0,2.49,112.1,112.1,0,0,0-2.91,23.553h.974a111.332,111.332,0,0,1,2.813-23.046,8.642,8.642,0,0,1,1.451-3.1,78.1,78.1,0,0,0,7.694-12.328C127.392,355.712,130.179,345.278,130.179,345.278Z" transform="translate(-88.278 -336.981)"/><path class="ah" d="M97.062,390.87a33.932,33.932,0,0,0-2.825-11.1,3.791,3.791,0,0,1-.285-2.009,18.358,18.358,0,0,0-.286-5.971c-.993-4.9-7.5-15.49-16.918-16.11a68.539,68.539,0,0,1,4.922,9.6c2.116,5.53,5.136,11.316,10.144,13.536a3.764,3.764,0,0,1,1.938,2.012A32.827,32.827,0,0,1,96.2,390.932Z" transform="translate(-76.749 -340.424)"/><g transform="translate(9.889 45.17)"><path class="g" d="M95.59,427.132h15.543l4.033-24.644a1.793,1.793,0,0,0-1.769-2.081H93.326a1.792,1.792,0,0,0-1.768,2.081Z" transform="translate(-91.533 -400.406)"/></g></g><line class="aw" x2="399.363" transform="translate(0.33 246.847)"/></g></g></g></g></svg>